<?xml version="1.0" encoding="utf-8" standalone="yes"?>
<!DOCTYPE svg PUBLIC "-//W3C//DTD SVG 1.1//EN" "http://www.w3.org/Graphics/SVG/1.1/DTD/svg11.dtd">
<svg width="758" height="650" viewBox="0 0 758 650" style="fill:none;stroke:none;fill-rule:evenodd;clip-rule:evenodd;stroke-linecap:round;stroke-linejoin:round;stroke-miterlimit:1.5;" version="1.1" xmlns="http://www.w3.org/2000/svg" xmlns:xlink="http://www.w3.org/1999/xlink"><style id="fontImports">@import url("https://fonts.googleapis.com/css2?family=Roboto:wght@400;700&amp;display=block");</style><g id="items" style="isolation: isolate"><g id="blend" style="mix-blend-mode: normal"><g id="g-root-3.cu_sy_v48elp1pmqu4l-fill" data-item-order="-101819" transform="translate(192, 111)"></g><g id="g-root-2.cu_sy_8xrd2l1pmqtce-fill" data-item-order="-101815" transform="translate(283.32196044921875, 181.0908203125)"></g><g id="g-root-1.cu_sy_1unewod1pmquq7-fill" data-item-order="-101811" transform="translate(340.9954833984375, 111)"></g><g id="g-root-tx_giscolla_1lsedil1pmqt4w-fill" data-item-order="0" transform="translate(159, 39)"><g id="tx_giscolla_1lsedil1pmqt4w-fill" stroke="none" fill="#484848"><g><text style="font: 20px Roboto, sans-serif; white-space: pre;" font-size="20px" font-family="Roboto, sans-serif"><tspan x="17.57" y="34" dominant-baseline="ideographic">Collaboration and Data Sharing Platforms</tspan></text></g></g></g><g id="g-root-tx_wmswfs_mbprsd1pmqw3o-fill" data-item-order="0" transform="translate(39, 135)"><g id="tx_wmswfs_mbprsd1pmqw3o-fill" stroke="none" fill="#92bd39"><g><text style="font: bold 20px Roboto, sans-serif; white-space: pre;" font-weight="bold" font-size="20px" font-family="Roboto, sans-serif"><tspan x="16.78" y="34" dominant-baseline="ideographic">WMS &amp; WFS</tspan></text></g></g></g><g id="g-root-tx_arcgishu_1lviqy51pmqtji-fill" data-item-order="0" transform="translate(543, 135)"><g id="tx_arcgishu_1lviqy51pmqtji-fill" stroke="none" fill="#3cc583"><g><text style="font: bold 20px Roboto, sans-serif; white-space: pre;" font-weight="bold" font-size="20px" font-family="Roboto, sans-serif"><tspan x="12" y="34" dominant-baseline="ideographic">ArcGIS Hub</tspan></text></g></g></g><g id="g-root-tx_standard_zlauwd1pmqvih-fill" data-item-order="0" transform="translate(15, 171)"><g id="tx_standard_zlauwd1pmqvih-fill" stroke="none" fill="#484848"><g><text style="font: 20px Roboto, sans-serif; white-space: pre;" font-size="20px" font-family="Roboto, sans-serif"><tspan x="31.2" y="34" dominant-baseline="ideographic">Standards for </tspan><tspan x="22.14" y="58" dominant-baseline="ideographic">publishing and </tspan><tspan x="17.16" y="82" dominant-baseline="ideographic">consuming GIS </tspan><tspan x="112.41" y="106" dominant-baseline="ideographic">data</tspan></text></g></g></g><g id="g-root-tx_aplatfor_1hdttkd1pmqvbf-fill" data-item-order="0" transform="translate(543, 171)"><g id="tx_aplatfor_1hdttkd1pmqvbf-fill" stroke="none" fill="#484848"><g><text style="font: 20px Roboto, sans-serif; white-space: pre;" font-size="20px" font-family="Roboto, sans-serif"><tspan x="12" y="34" dominant-baseline="ideographic">A platform for </tspan><tspan x="12" y="58" dominant-baseline="ideographic">open data sharing </tspan><tspan x="12" y="82" dominant-baseline="ideographic">and stakeholder </tspan><tspan x="12" y="106" dominant-baseline="ideographic">engagement</tspan></text></g></g></g><g id="g-root-tx_geoserve_58q991pmqvbh-fill" data-item-order="0" transform="translate(303, 459)"><g id="tx_geoserve_58q991pmqvbh-fill" stroke="none" fill="#1eabda"><g><text style="font: bold 20px Roboto, sans-serif; white-space: pre;" font-weight="bold" font-size="20px" font-family="Roboto, sans-serif"><tspan x="11.79" y="34" dominant-baseline="ideographic">Geoserver</tspan></text></g></g></g><g id="g-root-tx_anopenso_8z0b8t1pmqvii-fill" data-item-order="0" transform="translate(267, 495)"><g id="tx_anopenso_8z0b8t1pmqvii-fill" stroke="none" fill="#484848"><g><text style="font: 20px Roboto, sans-serif; white-space: pre;" font-size="20px" font-family="Roboto, sans-serif"><tspan x="22.35" y="34" dominant-baseline="ideographic">An open-source </tspan><tspan x="13.99" y="58" dominant-baseline="ideographic">server for sharing </tspan><tspan x="42.71" y="82" dominant-baseline="ideographic">and editing </tspan><tspan x="23.32" y="106" dominant-baseline="ideographic">geospatial data</tspan></text></g></g></g><g id="g-root-3.cu_sy_v48elp1pmqu4l-stroke" data-item-order="-101819" transform="translate(192, 111)"><g id="3.cu_sy_v48elp1pmqu4l-stroke" fill="none" stroke-linecap="round" stroke-linejoin="round" stroke-miterlimit="4" stroke="#92bd39" stroke-width="2"><g><path d="M 19.026385 43.656185C 0.444785 75.840485 11.471885 116.994385 43.656185 135.575985L 91.950485 163.458685L 91.950485 107.958885L 67.688385 93.951185C 58.492785 88.642085 55.342185 76.883885 60.651285 67.688385C 65.960285 58.492785 77.718485 55.342185 86.914085 60.651285L 111.195185 74.669985L 111.179785 74.696685L 197.637085 124.612885L 245.701385 96.862985L 135.905685 33.472385L 135.921085 33.445585L 110.946185 19.026385C 78.761885 0.444785 37.607985 11.471885 19.026385 43.656185Z"></path></g></g></g><g id="g-root-2.cu_sy_8xrd2l1pmqtce-stroke" data-item-order="-101815" transform="translate(283.32196044921875, 181.0908203125)"><g id="2.cu_sy_8xrd2l1pmqtce-stroke" fill="none" stroke-linecap="round" stroke-linejoin="round" stroke-miterlimit="4" stroke="#1eabda" stroke-width="2"><g><path d="M 77.29 232.9097C 114.4532 232.9097 144.5799 202.783 144.5799 165.6198L 144.5799 109.8543L 96.5157 137.6042L 96.5157 165.6198C 96.5157 176.2378 87.908 184.8455 77.29 184.8455C 66.6719 184.8455 58.0643 176.2378 58.0643 165.6198L 58.0643 137.5823L 58.0951 137.5823L 58.0952 37.7499L 10.0309 10L 10.0309 136.7812L 10 136.7812L 10 165.6198C 10 202.783 40.1268 232.9097 77.29 232.9097Z"></path></g></g></g><g id="g-root-1.cu_sy_1unewod1pmquq7-stroke" data-item-order="-101811" transform="translate(340.9954833984375, 111)"><g id="1.cu_sy_1unewod1pmquq7-stroke" fill="none" stroke-linecap="round" stroke-linejoin="round" stroke-miterlimit="4" stroke="#3cc583" stroke-width="2"><g><path d="M 169.416 43.656185C 150.8344 11.471885 109.6804 0.444785 77.4961 19.026385L 29.2018 46.909085L 77.2661 74.658985L 101.5283 60.651285C 110.7238 55.342185 122.482 58.492785 127.7911 67.688385C 133.1001 76.883885 129.9495 88.642085 120.754 93.951085L 96.4728 107.969885L 96.4574 107.943185L 10 157.859285L 10 213.359085L 119.7958 149.968585L 119.8112 149.995285L 144.7861 135.575985C 176.9704 116.994385 187.9976 75.840485 169.416 43.656185Z"></path></g></g></g><g id="g-root-tx_giscolla_1lsedil1pmqt4w-stroke" data-item-order="0" transform="translate(159, 39)"></g><g id="g-root-tx_wmswfs_mbprsd1pmqw3o-stroke" data-item-order="0" transform="translate(39, 135)"></g><g id="g-root-tx_arcgishu_1lviqy51pmqtji-stroke" data-item-order="0" transform="translate(543, 135)"></g><g id="g-root-tx_standard_zlauwd1pmqvih-stroke" data-item-order="0" transform="translate(15, 171)"></g><g id="g-root-tx_aplatfor_1hdttkd1pmqvbf-stroke" data-item-order="0" transform="translate(543, 171)"></g><g id="g-root-tx_geoserve_58q991pmqvbh-stroke" data-item-order="0" transform="translate(303, 459)"></g><g id="g-root-tx_anopenso_8z0b8t1pmqvii-stroke" data-item-order="0" transform="translate(267, 495)"></g></g></g></svg>