<?xml version="1.0" encoding="utf-8" standalone="yes"?>
<!DOCTYPE svg PUBLIC "-//W3C//DTD SVG 1.1//EN" "http://www.w3.org/Graphics/SVG/1.1/DTD/svg11.dtd">
<svg width="818" height="596" viewBox="0 0 818 596" style="fill:none;stroke:none;fill-rule:evenodd;clip-rule:evenodd;stroke-linecap:round;stroke-linejoin:round;stroke-miterlimit:1.5;" version="1.1" xmlns="http://www.w3.org/2000/svg" xmlns:xlink="http://www.w3.org/1999/xlink"><style id="fontImports">@import url("https://fonts.googleapis.com/css2?family=Roboto:wght@400;700&amp;display=block");</style><g id="items" style="isolation: isolate"><g id="blend" style="mix-blend-mode: normal"><g id="g-root-cu_hs5ibi1nf2hvx-fill" data-item-order="0" transform="translate(225, 243)"></g><g id="g-root-cu_vb3pq61nf15vp-fill" data-item-order="0" transform="translate(435, 363)"></g><g id="g-root-ro_4m60u1nf6qyp-fill" data-item-order="0" transform="translate(459, 50.99993896484375)"></g><g id="g-root-cu_qvwoou1nf13i8-fill" data-item-order="0" transform="translate(351, 65.99993896484375)"></g><g id="g-root-ro_hx57um1nfcbv0-fill" data-item-order="0" transform="translate(99, 411)"></g><g id="g-root-ro_mb34e61neu39o-fill" data-item-order="0" transform="translate(459, 399)"></g><g id="g-root-cu_v4uyv21nf2ih8-fill" data-item-order="0" transform="translate(309, 465)"></g><g id="g-root-cu_dkg6bi1nf1537-fill" data-item-order="0" transform="translate(435, 77.99993896484375)"></g><g id="g-root-cu_4ikf7i1nf2ihb-fill" data-item-order="0" transform="translate(309, 465)"></g><g id="g-root-cu_v6qe4e1nf2hhq-fill" data-item-order="0" transform="translate(309, 92.99993896484375)"></g><g id="g-root-cu_mb3dvi1nf2j29-fill" data-item-order="0" transform="translate(309, 92.99993896484375)"></g><g id="g-root-cu_4gozy61nf2jgv-fill" data-item-order="0" transform="translate(567, 255)"></g><g id="g-root-tx_mapcreat_v2zda61nf86bw-fill" data-item-order="0" transform="translate(171, 105)"><g id="tx_mapcreat_v2zda61nf86bw-fill" stroke="none" fill="#484848"><g><text style="font: 20px Roboto, sans-serif; white-space: pre;" font-size="20px" font-family="Roboto, sans-serif"><tspan x="16.26" y="34" dominant-baseline="ideographic">Map Creation</tspan></text></g></g></g><g id="g-root-cu_1hbc0e61nf2j9e-fill" data-item-order="0" transform="translate(567, 255)"></g><g id="g-root-tx_datamana_1lz9ibi1nf6rrf-fill" data-item-order="0" transform="translate(507, 501)"><g id="tx_datamana_1lz9ibi1nf6rrf-fill" stroke="none" fill="#484848"><g><text style="font: 20px Roboto, sans-serif; white-space: pre;" font-size="20px" font-family="Roboto, sans-serif"><tspan x="11.89" y="34" dominant-baseline="ideographic">Data Management</tspan></text></g></g></g><g id="g-root-cu_909cla1nf2hhf-fill" data-item-order="0" transform="translate(483, 104.99993896484375)"></g><g id="g-root-cu_1upww721nf2iva-fill" data-item-order="0" transform="translate(483, 104.99993896484375)"></g><g id="g-root-tx_arcgispr_znso3i1nf6rka-fill" data-item-order="0" transform="translate(111, 255)"><g id="tx_arcgispr_znso3i1nf6rka-fill" stroke="none" fill="#484848"><g><text style="font: 20px Roboto, sans-serif; white-space: pre;" font-size="20px" font-family="Roboto, sans-serif"><tspan x="15.69" y="34" dominant-baseline="ideographic">ArcGIS Pro</tspan></text></g></g></g><g id="g-root-tx_dataconv_1q6yubi1nf84jy-fill" data-item-order="0" transform="translate(507, 117)"><g id="tx_dataconv_1q6yubi1nf84jy-fill" stroke="none" fill="#484848"><g><text style="font: 20px Roboto, sans-serif; white-space: pre;" font-size="20px" font-family="Roboto, sans-serif"><tspan x="14.78" y="34" dominant-baseline="ideographic">Data Conversion</tspan></text></g></g></g><g id="g-root-tx_dataanal_dcbtvi1nf85j9-fill" data-item-order="0" transform="translate(171, 141)"><g id="tx_dataanal_dcbtvi1nf85j9-fill" stroke="none" fill="#484848"><g><text style="font: 20px Roboto, sans-serif; white-space: pre;" font-size="20px" font-family="Roboto, sans-serif"><tspan x="15.4" y="34" dominant-baseline="ideographic">Data Analysis</tspan></text></g></g></g><g id="g-root-tx_spatiald_me7kzi1nf6s5i-fill" data-item-order="0" transform="translate(591, 267)"><g id="tx_spatiald_me7kzi1nf6s5i-fill" stroke="none" fill="#484848"><g><text style="font: 20px Roboto, sans-serif; white-space: pre;" font-size="20px" font-family="Roboto, sans-serif"><tspan x="12.35" y="34" dominant-baseline="ideographic">Spatial Data Analysis</tspan></text></g></g></g><g id="g-root-tx_arcgison_91i4fy1nf6rkb-fill" data-item-order="0" transform="translate(87, 291)"><g id="tx_arcgison_91i4fy1nf6rkb-fill" stroke="none" fill="#484848"><g><text style="font: 20px Roboto, sans-serif; white-space: pre;" font-size="20px" font-family="Roboto, sans-serif"><tspan x="14.91" y="34" dominant-baseline="ideographic">ArcGIS Online</tspan></text></g></g></g><g id="g-root-tx_datatran_1cviby61nf864v-fill" data-item-order="0" transform="translate(507, 153)"><g id="tx_datatran_1cviby61nf864v-fill" stroke="none" fill="#484848"><g><text style="font: 20px Roboto, sans-serif; white-space: pre;" font-size="20px" font-family="Roboto, sans-serif"><tspan x="14.38" y="34" dominant-baseline="ideographic">Data Transformation</tspan></text></g></g></g><g id="g-root-ro_hv9sla1nf13pe-fill" data-item-order="0" transform="translate(51, 189)"></g><g id="g-root-tx_complexs_958yym1nf6pky-fill" data-item-order="0" transform="translate(507, 465)"><g id="tx_complexs_958yym1nf6pky-fill" stroke="none" fill="#484848"><g><text style="font: 20px Roboto, sans-serif; white-space: pre;" font-size="20px" font-family="Roboto, sans-serif"><tspan x="15.2" y="34" dominant-baseline="ideographic">Complex Spatial Queries</tspan></text></g></g></g><g id="g-root-tx_datavisu_1ut13b21nf6ryf-fill" data-item-order="0" transform="translate(591, 303)"><g id="tx_datavisu_1ut13b21nf6ryf-fill" stroke="none" fill="#484848"><g><text style="font: 20px Roboto, sans-serif; white-space: pre;" font-size="20px" font-family="Roboto, sans-serif"><tspan x="13.7" y="34" dominant-baseline="ideographic">Data Visualization</tspan></text></g></g></g><g id="g-root-cu_1hhkr9a1nf15vw-fill" data-item-order="0" transform="translate(267, 216)"></g><g id="g-root-tx_arcgisen_1qbyn0e1nf6qkk-fill" data-item-order="0" transform="translate(51, 327)"><g id="tx_arcgisen_1qbyn0e1nf6qkk-fill" stroke="none" fill="#484848"><g><text style="font: 20px Roboto, sans-serif; white-space: pre;" font-size="20px" font-family="Roboto, sans-serif"><tspan x="15.92" y="34" dominant-baseline="ideographic">ArcGIS Enterprise</tspan></text></g></g></g><g id="g-root-ro_1qbcovy1n505xo-fill" data-item-order="0" transform="translate(315, 213)"></g><g id="g-root-ro_hye96m1nf15ab-fill" data-item-order="0" transform="translate(87, 38.99993896484375)"></g><g id="g-root-tx_environm_qvwida1nf6qdl-fill" data-item-order="0" transform="translate(63, 513)"><g id="tx_environm_qvwida1nf6qdl-fill" stroke="none" fill="#484848"><g><text style="font: 20px Roboto, sans-serif; white-space: pre;" font-size="20px" font-family="Roboto, sans-serif"><tspan x="15.55" y="34" dominant-baseline="ideographic">Environmental Monitoring</tspan></text></g></g></g><g id="g-root-ro_1cw4jjy1nfcc20-fill" data-item-order="0" transform="translate(543, 201)"></g><g id="g-root-tx_arcgisap_145hlha1nf6psd-fill" data-item-order="0" transform="translate(15, 363)"><g id="tx_arcgisap_145hlha1nf6psd-fill" stroke="none" fill="#484848"><g><text style="font: 20px Roboto, sans-serif; white-space: pre;" font-size="20px" font-family="Roboto, sans-serif"><tspan x="14.8" y="34" dominant-baseline="ideographic">ArcGIS API for Python</tspan></text></g></g></g><g id="g-root-cu_1lt0xry1nf2hhl-fill" data-item-order="0" transform="translate(483, 453)"></g><g id="g-root-cu_zqx7um1nf153e-fill" data-item-order="0" transform="translate(351, 363)"></g><g id="g-root-cu_1d2dq7y1nf13if-fill" data-item-order="0" transform="translate(495, 228)"></g><g id="g-root-cu_18hkfem1nf2j2k-fill" data-item-order="0" transform="translate(483, 453)"></g><g id="g-root-tx_remotese_1d2djwe1nf6r5s-fill" data-item-order="0" transform="translate(147, 477)"><g id="tx_remotese_1d2djwe1nf6r5s-fill" stroke="none" fill="#484848"><g><text style="font: 20px Roboto, sans-serif; white-space: pre;" font-size="20px" font-family="Roboto, sans-serif"><tspan x="15.51" y="34" dominant-baseline="ideographic">Remote Sensing</tspan></text></g></g></g><g id="g-root-cu_9m51a1nf13ie-fill" data-item-order="0" transform="translate(225, 243)"></g><g id="g-root-cu_1lz9on21nf14w9-fill" data-item-order="0" transform="translate(225, 243)"></g><g id="g-root-cu_13ymjum1nf2io3-fill" data-item-order="0" transform="translate(225, 243)"></g><g id="g-root-mapb_zpo9oe1nf12x6-fill" data-item-order="2000000000" transform="translate(309, 50.99993896484375)"></g><g id="g-root-velo_qqwpoe1nf6qyo-fill" data-item-order="2000000000" transform="translate(471, 62.99993896484375)"></g><g id="g-root-tx_fme_18hk9321nf6rrb-fill" data-item-order="2000000000" transform="translate(507, 65.99993896484375)"><g id="tx_fme_18hk9321nf6rrb-fill" stroke="none" fill="#92bd39"><g><text style="font: 20px Roboto, sans-serif; white-space: pre;" font-size="20px" font-family="Roboto, sans-serif"><tspan x="14.05" y="34" dominant-baseline="ideographic">FME</tspan></text></g></g></g><g id="g-root-tx_arcgispl_1q87vni1nf14i0-fill" data-item-order="2000000000" transform="translate(63, 204)"><g id="tx_arcgispl_1q87vni1nf14i0-fill" stroke="none" fill="#de58a9"><g><text style="font: 20px Roboto, sans-serif; white-space: pre;" font-size="20px" font-family="Roboto, sans-serif"><tspan x="16.2" y="34" dominant-baseline="ideographic">ArcGIS Platform</tspan></text></g></g></g><g id="g-root-data_18hkc8u1nf13pd-fill" data-item-order="2000000000" transform="translate(225, 201)"></g><g id="g-root-1_1q6yku61nfcdmv-fill" data-item-order="2000000000" transform="translate(555, 213)"></g><g id="g-root-tx_qgis_hs52im1nfcdty-fill" data-item-order="2000000000" transform="translate(591, 216)"><g id="tx_qgis_hs52im1nfcdty-fill" stroke="none" fill="#ba5de5"><g><text style="font: 20px Roboto, sans-serif; white-space: pre;" font-size="20px" font-family="Roboto, sans-serif"><tspan x="17.65" y="34" dominant-baseline="ideographic">QGIS</tspan></text></g></g></g><g id="g-root-2_dhc5j21n503r7-fill" data-item-order="2000000000" transform="translate(381, 237)"></g><g id="g-root-tx_coregist_143mp6m1n503r6-fill" data-item-order="2000000000" transform="translate(339, 291)"><g id="tx_coregist_143mp6m1n503r6-fill" stroke="none" fill="#484848"><g><text style="font: 20px Roboto, sans-serif; white-space: pre;" font-size="20px" font-family="Roboto, sans-serif"><tspan x="37.23" y="34" dominant-baseline="ideographic">Core GIS </tspan><tspan x="16.59" y="58" dominant-baseline="ideographic">Technologies</tspan></text></g></g></g><g id="g-root-migr_18hk5xa1neu41v-fill" data-item-order="2000000000" transform="translate(471, 411)"></g><g id="g-root-tx_googleea_4m96m1nfcc22-fill" data-item-order="2000000000" transform="translate(111, 426)"><g id="tx_googleea_4m96m1nfcc22-fill" stroke="none" fill="#1eabda"><g><text style="font: 20px Roboto, sans-serif; white-space: pre;" font-size="20px" font-family="Roboto, sans-serif"><tspan x="15.85" y="34" dominant-baseline="ideographic">Google Earth Engine</tspan></text></g></g></g><g id="g-root-sse_18jfri61nfcbuz-fill" data-item-order="2000000000" transform="translate(309, 423)"></g><g id="g-root-tx_postgis_2qnlq1neu48y-fill" data-item-order="2000000000" transform="translate(507, 414)"><g id="tx_postgis_2qnlq1neu48y-fill" stroke="none" fill="#4e88e7"><g><text style="font: 20px Roboto, sans-serif; white-space: pre;" font-size="20px" font-family="Roboto, sans-serif"><tspan x="16.15" y="34" dominant-baseline="ideographic">PostGIS</tspan></text></g></g></g><g id="g-root-tx_mapinfop_5vaim1nf15hd-fill" data-item-order="2000000000" transform="translate(99, 53.99993896484375)"><g id="tx_mapinfop_5vaim1nf15hd-fill" stroke="none" fill="#de8431"><g><text style="font: 20px Roboto, sans-serif; white-space: pre;" font-size="20px" font-family="Roboto, sans-serif"><tspan x="16.49" y="34" dominant-baseline="ideographic">MapInfo Professional</tspan></text></g></g></g><g id="g-root-cu_hs5ibi1nf2hvx-stroke" data-item-order="0" transform="translate(225, 243)"><g id="cu_hs5ibi1nf2hvx-stroke" fill="none" stroke-linecap="round" stroke-linejoin="round" stroke-miterlimit="4" stroke="#969696" stroke-width="2" stroke-dasharray="5.0, 7.0"><g><path d="M 28 10L 28 26.5L 28 130C 28.000005 136.627421 22.627422 142.000005 16.000005 142.000005L 15.9 142L 10 142"></path></g></g></g><g id="g-root-cu_vb3pq61nf15vp-stroke" data-item-order="0" transform="translate(435, 363)"><g id="cu_vb3pq61nf15vp-stroke" fill="none" stroke-linecap="round" stroke-linejoin="round" stroke-miterlimit="4" stroke="#969696" stroke-width="2" stroke-dasharray="5.0, 7.0"><g><path d="M 10 10L 10 17.9L 10 52.1C 9.999998 63.64275 19.357246 72.999999 30.899997 72.999999L 31 73L 34 73"></path></g></g></g><g id="g-root-ro_4m60u1nf6qyp-stroke" data-item-order="0" transform="translate(459, 50.99993896484375)"><g id="ro_4m60u1nf6qyp-stroke" fill="none" stroke-linecap="round" stroke-linejoin="round" stroke-miterlimit="4" stroke="#92bd39" stroke-width="2"><g><path d="M 22 10L 106 10C 106 10 118 10 118 22L 118 52C 118 52 118 64 106 64L 22 64C 22 64 10 64 10 52L 10 22C 10 22 10 10 22 10"></path></g></g></g><g id="g-root-cu_qvwoou1nf13i8-stroke" data-item-order="0" transform="translate(351, 65.99993896484375)"><g id="cu_qvwoou1nf13i8-stroke" fill="none" stroke-linecap="round" stroke-linejoin="round" stroke-miterlimit="4" stroke="#969696" stroke-width="2" stroke-dasharray="5.0, 7.0"><g><path d="M 34 157.000061L 34 138.600061L 34 30.900061C 34.000001 19.35731 24.642752 10.000061 13.1 10.000061L 13 10.000061L 10 10.000061"></path></g></g></g><g id="g-root-ro_hx57um1nfcbv0-stroke" data-item-order="0" transform="translate(99, 411)"><g id="ro_hx57um1nfcbv0-stroke" fill="none" stroke-linecap="round" stroke-linejoin="round" stroke-miterlimit="4" stroke="#1eabda" stroke-width="2"><g><path d="M 22 10L 250 10C 250 10 262 10 262 22L 262 52C 262 52 262 64 250 64L 22 64C 22 64 10 64 10 52L 10 22C 10 22 10 10 22 10"></path></g></g></g><g id="g-root-ro_mb34e61neu39o-stroke" data-item-order="0" transform="translate(459, 399)"><g id="ro_mb34e61neu39o-stroke" fill="none" stroke-linecap="round" stroke-linejoin="round" stroke-miterlimit="4" stroke="#4e88e7" stroke-width="2"><g><path d="M 22 10L 142 10C 142 10 154 10 154 22L 154 52C 154 52 154 64 142 64L 22 64C 22 64 10 64 10 52L 10 22C 10 22 10 10 22 10"></path></g></g></g><g id="g-root-cu_v4uyv21nf2ih8-stroke" data-item-order="0" transform="translate(309, 465)"><g id="cu_v4uyv21nf2ih8-stroke" fill="none" stroke-linecap="round" stroke-linejoin="round" stroke-miterlimit="4" stroke="#969696" stroke-width="2" stroke-dasharray="5.0, 7.0"><g><path d="M 28 10L 28 22L 28 34L 19 34L 10 34"></path></g></g></g><g id="g-root-cu_dkg6bi1nf1537-stroke" data-item-order="0" transform="translate(435, 77.99993896484375)"><g id="cu_dkg6bi1nf1537-stroke" fill="none" stroke-linecap="round" stroke-linejoin="round" stroke-miterlimit="4" stroke="#969696" stroke-width="2" stroke-dasharray="5.0, 7.0"><g><path d="M 10 145.000061L 10 128.100061L 10 30.900061C 10 19.357309 19.357248 10.000061 30.899998 10.000061L 31 10.000061L 34 10.000061"></path></g></g></g><g id="g-root-cu_4ikf7i1nf2ihb-stroke" data-item-order="0" transform="translate(309, 465)"><g id="cu_4ikf7i1nf2ihb-stroke" fill="none" stroke-linecap="round" stroke-linejoin="round" stroke-miterlimit="4" stroke="#969696" stroke-width="2" stroke-dasharray="5.0, 7.0"><g><path d="M 28 10L 28 17.5L 28 58C 27.999999 64.627415 22.627416 69.999998 16 69.999998L 15.9 70L 10 70"></path></g></g></g><g id="g-root-cu_v6qe4e1nf2hhq-stroke" data-item-order="0" transform="translate(309, 92.99993896484375)"><g id="cu_v6qe4e1nf2hhq-stroke" fill="none" stroke-linecap="round" stroke-linejoin="round" stroke-miterlimit="4" stroke="#969696" stroke-width="2" stroke-dasharray="5.0, 7.0"><g><path d="M 28 10L 28 22L 28 34L 19 34L 10 34"></path></g></g></g><g id="g-root-cu_mb3dvi1nf2j29-stroke" data-item-order="0" transform="translate(309, 92.99993896484375)"><g id="cu_mb3dvi1nf2j29-stroke" fill="none" stroke-linecap="round" stroke-linejoin="round" stroke-miterlimit="4" stroke="#969696" stroke-width="2" stroke-dasharray="5.0, 7.0"><g><path d="M 28 10L 28 17.5L 28 58C 27.999999 64.627415 22.627416 69.999998 16 69.999998L 15.9 70L 10 70"></path></g></g></g><g id="g-root-cu_4gozy61nf2jgv-stroke" data-item-order="0" transform="translate(567, 255)"><g id="cu_4gozy61nf2jgv-stroke" fill="none" stroke-linecap="round" stroke-linejoin="round" stroke-miterlimit="4" stroke="#969696" stroke-width="2" stroke-dasharray="5.0, 7.0"><g><path d="M 10 10L 10 22L 10 34L 19 34L 28 34"></path></g></g></g><g id="g-root-tx_mapcreat_v2zda61nf86bw-stroke" data-item-order="0" transform="translate(171, 105)"></g><g id="g-root-cu_1hbc0e61nf2j9e-stroke" data-item-order="0" transform="translate(567, 255)"><g id="cu_1hbc0e61nf2j9e-stroke" fill="none" stroke-linecap="round" stroke-linejoin="round" stroke-miterlimit="4" stroke="#969696" stroke-width="2" stroke-dasharray="5.0, 7.0"><g><path d="M 10 10L 10 17.5L 10 58C 10.000002 64.627417 15.372585 70 22.000002 69.999999L 22.1 70L 28 70"></path></g></g></g><g id="g-root-tx_datamana_1lz9ibi1nf6rrf-stroke" data-item-order="0" transform="translate(507, 501)"></g><g id="g-root-cu_909cla1nf2hhf-stroke" data-item-order="0" transform="translate(483, 104.99993896484375)"><g id="cu_909cla1nf2hhf-stroke" fill="none" stroke-linecap="round" stroke-linejoin="round" stroke-miterlimit="4" stroke="#969696" stroke-width="2" stroke-dasharray="5.0, 7.0"><g><path d="M 10 10.000061L 10 22.000061L 10 34.000061L 19 34.000061L 28 34.000061"></path></g></g></g><g id="g-root-cu_1upww721nf2iva-stroke" data-item-order="0" transform="translate(483, 104.99993896484375)"><g id="cu_1upww721nf2iva-stroke" fill="none" stroke-linecap="round" stroke-linejoin="round" stroke-miterlimit="4" stroke="#969696" stroke-width="2" stroke-dasharray="5.0, 7.0"><g><path d="M 10 10.000061L 10 17.500061L 10 58.000061C 10.000002 64.627478 15.372585 70.000061 22.000002 70.00006L 22.1 70.000061L 28 70.000061"></path></g></g></g><g id="g-root-tx_arcgispr_znso3i1nf6rka-stroke" data-item-order="0" transform="translate(111, 255)"></g><g id="g-root-tx_dataconv_1q6yubi1nf84jy-stroke" data-item-order="0" transform="translate(507, 117)"></g><g id="g-root-tx_dataanal_dcbtvi1nf85j9-stroke" data-item-order="0" transform="translate(171, 141)"></g><g id="g-root-tx_spatiald_me7kzi1nf6s5i-stroke" data-item-order="0" transform="translate(591, 267)"></g><g id="g-root-tx_arcgison_91i4fy1nf6rkb-stroke" data-item-order="0" transform="translate(87, 291)"></g><g id="g-root-tx_datatran_1cviby61nf864v-stroke" data-item-order="0" transform="translate(507, 153)"></g><g id="g-root-ro_hv9sla1nf13pe-stroke" data-item-order="0" transform="translate(51, 189)"><g id="ro_hv9sla1nf13pe-stroke" fill="none" stroke-linecap="round" stroke-linejoin="round" stroke-miterlimit="4" stroke="#de58a9" stroke-width="2"><g><path d="M 22 10L 214 10C 214 10 226 10 226 22L 226 52C 226 52 226 64 214 64L 22 64C 22 64 10 64 10 52L 10 22C 10 22 10 10 22 10"></path></g></g></g><g id="g-root-tx_complexs_958yym1nf6pky-stroke" data-item-order="0" transform="translate(507, 465)"></g><g id="g-root-tx_datavisu_1ut13b21nf6ryf-stroke" data-item-order="0" transform="translate(591, 303)"></g><g id="g-root-cu_1hhkr9a1nf15vw-stroke" data-item-order="0" transform="translate(267, 216)"><g id="cu_1hhkr9a1nf15vw-stroke" fill="none" stroke-linecap="round" stroke-linejoin="round" stroke-miterlimit="4" stroke="#969696" stroke-width="2" stroke-dasharray="5.0, 7.0"><g><path d="M 58 57L 55 57L 54.9 57C 43.357246 56.999996 33.999999 47.642748 33.999998 36.099998L 34 36L 34 30.9C 33.999998 19.357248 24.64275 10 13.1 10L 13 10L 10 10"></path></g></g></g><g id="g-root-tx_arcgisen_1qbyn0e1nf6qkk-stroke" data-item-order="0" transform="translate(51, 327)"></g><g id="g-root-ro_1qbcovy1n505xo-stroke" data-item-order="0" transform="translate(315, 213)"><g id="ro_1qbcovy1n505xo-stroke" fill="none" stroke-linecap="round" stroke-linejoin="round" stroke-miterlimit="4" stroke="#484848" stroke-width="2"><g><path d="M 34 10L 166 10C 166 10 190 10 190 34L 190 136C 190 136 190 160 166 160L 34 160C 34 160 10 160 10 136L 10 34C 10 34 10 10 34 10"></path></g></g></g><g id="g-root-ro_hye96m1nf15ab-stroke" data-item-order="0" transform="translate(87, 38.99993896484375)"><g id="ro_hye96m1nf15ab-stroke" fill="none" stroke-linecap="round" stroke-linejoin="round" stroke-miterlimit="4" stroke="#de8431" stroke-width="2"><g><path d="M 22 10L 262 10C 262 10 274 10 274 22L 274 52C 274 52 274 64 262 64L 22 64C 22 64 10 64 10 52L 10 22C 10 22 10 10 22 10"></path></g></g></g><g id="g-root-tx_environm_qvwida1nf6qdl-stroke" data-item-order="0" transform="translate(63, 513)"></g><g id="g-root-ro_1cw4jjy1nfcc20-stroke" data-item-order="0" transform="translate(543, 201)"><g id="ro_1cw4jjy1nfcc20-stroke" fill="none" stroke-linecap="round" stroke-linejoin="round" stroke-miterlimit="4" stroke="#ba5de5" stroke-width="2"><g><path d="M 22 10L 118 10C 118 10 130 10 130 22L 130 52C 130 52 130 64 118 64L 22 64C 22 64 10 64 10 52L 10 22C 10 22 10 10 22 10"></path></g></g></g><g id="g-root-tx_arcgisap_145hlha1nf6psd-stroke" data-item-order="0" transform="translate(15, 363)"></g><g id="g-root-cu_1lt0xry1nf2hhl-stroke" data-item-order="0" transform="translate(483, 453)"><g id="cu_1lt0xry1nf2hhl-stroke" fill="none" stroke-linecap="round" stroke-linejoin="round" stroke-miterlimit="4" stroke="#969696" stroke-width="2" stroke-dasharray="5.0, 7.0"><g><path d="M 10 10L 10 22L 10 34L 19 34L 28 34"></path></g></g></g><g id="g-root-cu_zqx7um1nf153e-stroke" data-item-order="0" transform="translate(351, 363)"><g id="cu_zqx7um1nf153e-stroke" fill="none" stroke-linecap="round" stroke-linejoin="round" stroke-miterlimit="4" stroke="#969696" stroke-width="2" stroke-dasharray="5.0, 7.0"><g><path d="M 34 10L 34 19.4L 34 64.1C 33.999997 75.642751 24.642748 84.999999 13.099997 84.999998L 13 85L 10 85"></path></g></g></g><g id="g-root-cu_1d2dq7y1nf13if-stroke" data-item-order="0" transform="translate(495, 228)"><g id="cu_1d2dq7y1nf13if-stroke" fill="none" stroke-linecap="round" stroke-linejoin="round" stroke-miterlimit="4" stroke="#969696" stroke-width="2" stroke-dasharray="5.0, 7.0"><g><path d="M 10 45L 13 45L 13.1 45C 17.577866 44.972592 22.360217 43.214375 26.699999 40C 29.320119 38.118536 31.98143 33.561497 33.999999 27.499999C 36.018569 21.438502 38.67988 16.881462 41.299999 15C 45.63978 11.785625 50.422131 10.027407 54.899998 9.999999L 55 10L 58 10"></path></g></g></g><g id="g-root-cu_18hkfem1nf2j2k-stroke" data-item-order="0" transform="translate(483, 453)"><g id="cu_18hkfem1nf2j2k-stroke" fill="none" stroke-linecap="round" stroke-linejoin="round" stroke-miterlimit="4" stroke="#969696" stroke-width="2" stroke-dasharray="5.0, 7.0"><g><path d="M 10 10L 10 17.5L 10 58C 10.000002 64.627417 15.372585 70 22.000002 69.999999L 22.1 70L 28 70"></path></g></g></g><g id="g-root-tx_remotese_1d2djwe1nf6r5s-stroke" data-item-order="0" transform="translate(147, 477)"></g><g id="g-root-cu_9m51a1nf13ie-stroke" data-item-order="0" transform="translate(225, 243)"><g id="cu_9m51a1nf13ie-stroke" fill="none" stroke-linecap="round" stroke-linejoin="round" stroke-miterlimit="4" stroke="#969696" stroke-width="2" stroke-dasharray="5.0, 7.0"><g><path d="M 28 10L 28 22L 28 34L 19 34L 10 34"></path></g></g></g><g id="g-root-cu_1lz9on21nf14w9-stroke" data-item-order="0" transform="translate(225, 243)"><g id="cu_1lz9on21nf14w9-stroke" fill="none" stroke-linecap="round" stroke-linejoin="round" stroke-miterlimit="4" stroke="#969696" stroke-width="2" stroke-dasharray="5.0, 7.0"><g><path d="M 28 10L 28 40L 28 70L 19 70L 10 70"></path></g></g></g><g id="g-root-cu_13ymjum1nf2io3-stroke" data-item-order="0" transform="translate(225, 243)"><g id="cu_13ymjum1nf2io3-stroke" fill="none" stroke-linecap="round" stroke-linejoin="round" stroke-miterlimit="4" stroke="#969696" stroke-width="2" stroke-dasharray="5.0, 7.0"><g><path d="M 28 10L 28 58L 28 106L 19 106L 10 106"></path></g></g></g><g id="g-root-mapb_zpo9oe1nf12x6-stroke" data-item-order="2000000000" transform="translate(309, 50.99993896484375)"><g id="mapb_zpo9oe1nf12x6-stroke" fill="none" stroke-linecap="round" stroke-linejoin="round" stroke-miterlimit="4" stroke="#de8431" stroke-width="2"><g><path d="M 31.862499 18.137501C 30.45574 16.729172 28.54682 15.93785 26.556252 15.93785C 24.565681 15.93785 22.656763 16.729172 21.25 18.137501C 16.0625 23.3375 17.8125 32.1875 17.8125 32.1875C 17.8125 32.1875 26.6625 33.9375 31.862499 28.737499C 34.787033 25.809324 34.787033 21.065676 31.862499 18.137501ZM 28.4375 24.6875L 31.25 23.125L 28.4375 21.5625L 26.875 18.75L 25.3125 21.5625L 22.5 23.125L 25.3125 24.6875L 26.875 27.5L 28.4375 24.6875ZM 10.625 25C 10.625 32.939095 17.060907 39.375 25 39.375C 32.939095 39.375 39.375 32.939095 39.375 25C 39.375 17.060907 32.939095 10.625 25 10.625C 17.060907 10.625 10.625 17.060907 10.625 25"></path></g></g></g><g id="g-root-velo_qqwpoe1nf6qyo-stroke" data-item-order="2000000000" transform="translate(471, 62.99993896484375)"><g id="velo_qqwpoe1nf6qyo-stroke" fill="none" stroke-linecap="round" stroke-linejoin="round" stroke-miterlimit="4" stroke="#92bd39" stroke-width="2"><g><path d="M 34.375 16.5625C 36.963749 16.5625 39.0625 15.30375 39.0625 13.75C 39.0625 12.19625 36.963749 10.9375 34.375 10.9375C 31.786251 10.9375 29.6875 12.19625 29.6875 13.75C 29.6875 15.30375 31.786251 16.5625 34.375 16.5625ZM 29.6875 13.75L 29.6875 19.375C 29.6875 20.9275 31.786251 22.1875 34.375 22.1875C 36.963749 22.1875 39.0625 20.9275 39.0625 19.375L 39.0625 13.75M 34.375 33.4375C 36.963749 33.4375 39.0625 32.178749 39.0625 30.625C 39.0625 29.071251 36.963749 27.8125 34.375 27.8125C 31.786251 27.8125 29.6875 29.071251 29.6875 30.625C 29.6875 32.178749 31.786251 33.4375 34.375 33.4375ZM 29.6875 30.625L 29.6875 36.25C 29.6875 37.802502 31.786251 39.0625 34.375 39.0625C 36.963749 39.0625 39.0625 37.802502 39.0625 36.25L 39.0625 30.625M 18.90625 32.96875C 23.30727 32.96875 26.875 29.40102 26.875 25.000002C 26.875 20.598982 23.307268 17.03125 18.90625 17.03125C 14.505231 17.03125 10.9375 20.598982 10.9375 25C 10.9375 29.40102 14.505231 32.96875 18.90625 32.96875ZM 11.3375 27.5L 26.25 27.5M 11.3375 22.5L 26.25 22.5M 17.1875 17.217501C 15.75723 22.378048 15.967793 27.855728 17.790001 32.891251M 20.625 17.217501C 21.249779 19.463322 21.565187 21.783894 21.5625 24.115C 21.567225 27.107605 21.047707 30.077908 20.0275 32.891251M 22.5 13.75L 22.5 11.875L 26.25 11.875M 22.5 36.25L 22.5 38.125L 26.25 38.125"></path></g></g></g><g id="g-root-tx_fme_18hk9321nf6rrb-stroke" data-item-order="2000000000" transform="translate(507, 65.99993896484375)"></g><g id="g-root-tx_arcgispl_1q87vni1nf14i0-stroke" data-item-order="2000000000" transform="translate(63, 204)"></g><g id="g-root-data_18hkc8u1nf13pd-stroke" data-item-order="2000000000" transform="translate(225, 201)"><g id="data_18hkc8u1nf13pd-stroke" fill="none" stroke-linecap="round" stroke-linejoin="round" stroke-miterlimit="4" stroke="#de58a9" stroke-width="2"><g><path d="M 22.615 32.43L 13.2625 32.43C 11.805849 32.429996 10.625 31.249149 10.625 29.792498L 10.625 13.30875C 10.625 11.852098 11.805849 10.67125 13.2625 10.67125L 33.043751 10.67125C 34.500397 10.67125 35.681248 11.852098 35.681248 13.30875L 35.681252 22.615M 10.625 15.82125L 35.681252 15.82125M 10.625 26.766251L 22.615 26.766251M 10.625 21.3025L 35.681252 21.3025M 20.858749 15.82125L 20.858749 32.43M 28.196251 15.82125L 28.196251 22.275M 26.272499 27.16375C 26.271498 28.714592 29.204885 29.972027 32.82375 29.972027C 36.442612 29.972027 39.375999 28.714592 39.375 27.16375C 39.375999 25.612907 36.442612 24.355473 32.82375 24.355473C 29.204885 24.355473 26.271498 25.612907 26.272499 27.16375M 26.272499 27.162498L 26.272499 31.842501C 26.272499 33.391251 29.206249 34.649998 32.82375 34.649998C 36.44125 34.649998 39.375 33.392502 39.375 31.842501L 39.375 27.162498M 26.272499 31.842501L 26.272499 36.521248C 26.272499 38.071251 29.206249 39.328751 32.82375 39.328751C 36.44125 39.328751 39.375 38.072502 39.375 36.521248L 39.375 31.842501"></path></g></g></g><g id="g-root-1_1q6yku61nfcdmv-stroke" data-item-order="2000000000" transform="translate(555, 213)"><g id="1_1q6yku61nfcdmv-stroke" fill="none" stroke-linecap="round" stroke-linejoin="round" stroke-miterlimit="4" stroke="#ba5de5" stroke-width="2"><g><path d="M 11.875 10.625L 38.125 10.625C 38.125 10.625 39.375 10.625 39.375 11.875L 39.375 38.125C 39.375 38.125 39.375 39.375 38.125 39.375L 11.875 39.375C 11.875 39.375 10.625 39.375 10.625 38.125L 10.625 11.875C 10.625 11.875 10.625 10.625 11.875 10.625M 19.375 10.625L 19.375 25.82625M 30.625 10.625L 30.625 23.18M 35.3325 19.375L 10.625 19.375M 39.375 30.625L 18.125 30.625M 11.125 39.125L 13.2925 32.875C 15.063485 27.785843 19.861502 24.375168 25.25 24.375L 25.25 24.375C 30.699173 24.37529 35.537056 20.888367 37.260002 15.71875L 38.875 10.875M 19.375 29.375L 19.375 39.37125M 30.625 27.5L 30.625 39.375"></path></g></g></g><g id="g-root-tx_qgis_hs52im1nfcdty-stroke" data-item-order="2000000000" transform="translate(591, 216)"></g><g id="g-root-2_dhc5j21n503r7-stroke" data-item-order="2000000000" transform="translate(381, 237)"><g id="2_dhc5j21n503r7-stroke" fill="none" stroke-linecap="round" stroke-linejoin="round" stroke-miterlimit="4" stroke="#484848" stroke-width="2"><g><path d="M 45.984001 32.938L 34.984001 38.938L 45.984001 44.938L 56.984001 38.938L 45.984001 32.938ZM 56.984001 38.938L 56.984001 50.938L 45.984001 56.938L 34.984001 50.938L 34.984001 38.938M 45.984001 44.938L 45.984001 56.938M 25.015999 20.834L 25.015999 52.834M 39.015999 31.062L 39.015999 11.062M 31.016001 48.776001L 25.6 52.647999C 25.252405 52.89613 24.785595 52.89613 24.438 52.647999L 11.438 43.362C 11.174659 43.174503 11.018199 42.871269 11.018 42.548L 11.018 12.062C 11.017695 11.687099 11.227113 11.343519 11.560474 11.171992C 11.893835 11.000465 12.295134 11.029807 12.6 11.248L 25.015999 20.834L 38.436001 11.248C 38.783592 10.999871 39.250404 10.999871 39.598 11.248L 52.598 20.534C 52.860584 20.721931 53.016262 21.025093 53.015999 21.348L 53.015999 32.062"></path></g></g></g><g id="g-root-tx_coregist_143mp6m1n503r6-stroke" data-item-order="2000000000" transform="translate(339, 291)"></g><g id="g-root-migr_18hk5xa1neu41v-stroke" data-item-order="2000000000" transform="translate(471, 411)"><g id="migr_18hk5xa1neu41v-stroke" fill="none" stroke-linecap="round" stroke-linejoin="round" stroke-miterlimit="4" stroke="#4e88e7" stroke-width="2"><g><path d="M 25 19.4375C 30.38475 19.4375 34.75 17.534712 34.75 15.1875C 34.75 12.840287 30.38475 10.9375 25 10.9375C 19.615238 10.9375 15.250012 12.840287 15.250012 15.1875C 15.250012 17.534712 19.615238 19.4375 25 19.4375ZM 15.250012 15.187525L 15.250012 21.687525C 15.250012 24.0625 19.625011 25.9375 25 25.9375C 30.375 25.9375 34.75 24.0625 34.75 21.687525L 34.75 15.187525M 15.250012 21.687475L 15.250012 28.1875C 15.250012 30.5625 19.625011 32.4375 25 32.4375C 30.375 32.4375 34.75 30.5625 34.75 28.1875L 34.75 21.687475M 15.500113 34.0625L 15.500113 36.5625M 21.750113 36.937374L 21.750113 39.062378M 28.000124 36.937374L 28.000124 39.062378M 34.250126 34.0625L 34.250126 36.5625"></path></g></g></g><g id="g-root-tx_googleea_4m96m1nfcc22-stroke" data-item-order="2000000000" transform="translate(111, 426)"></g><g id="g-root-sse_18jfri61nfcbuz-stroke" data-item-order="2000000000" transform="translate(309, 423)"><g id="sse_18jfri61nfcbuz-stroke" fill="none" stroke-linecap="round" stroke-linejoin="round" stroke-miterlimit="4" stroke="#1eabda" stroke-width="2"><g><path d="M 16.36875 19.41375C 16.36875 24.073654 20.146347 27.85125 24.80625 27.85125C 29.466152 27.85125 33.243748 24.073654 33.243748 19.41375C 33.243748 14.753847 29.466152 10.97625 24.80625 10.97625C 20.146347 10.97625 16.36875 14.753847 16.36875 19.41375M 20.984825 18.424637L 27.463749 23.935875L 25.930374 15.569338L 24.215124 18.309074L 20.984825 18.424637ZM 24.7325 11.013489L 24.7325 12.490513M 24.7325 26.3745L 24.7325 27.851624M 10 10M 33.243874 19.432526L 31.766874 19.432526M 10 10M 17.845875 19.432526L 16.368851 19.432526M 18.984337 32.71125C 18.902025 32.478374 18.775013 32.266624 18.6136 32.08625C 18.270275 31.702625 17.771351 31.46125 17.216038 31.46125L 15.764725 31.46125C 14.840375 31.46125 14.091038 32.210625 14.091038 33.134876C 14.091038 33.921501 14.6387 34.601875 15.407063 34.77L 17.616713 35.253376C 18.477501 35.441624 19.091038 36.204372 19.091038 37.085499C 19.091038 38.121124 18.251562 38.96125 17.216038 38.96125L 15.966038 38.96125C 15.14965 38.96125 14.455125 38.439499 14.197725 37.71125M 27.130375 32.71125C 27.048126 32.478374 26.921124 32.266624 26.759624 32.08625C 26.416374 31.702625 25.917376 31.46125 25.362125 31.46125L 23.910749 31.46125C 22.986376 31.46125 22.237087 32.210625 22.237087 33.134876C 22.237087 33.921501 22.78475 34.601875 23.553125 34.77L 25.762751 35.253376C 26.623501 35.441624 27.237125 36.204372 27.237125 37.085499C 27.237125 38.121124 26.397625 38.96125 25.362125 38.96125L 24.112125 38.96125C 23.29575 38.96125 22.601126 38.439499 22.343786 37.71125M 10 10M 35.362125 31.46125L 30.362125 31.46125L 30.362125 38.96125L 35.362125 38.96125M 30.362125 34.89875L 34.737125 34.89875"></path></g></g></g><g id="g-root-tx_postgis_2qnlq1neu48y-stroke" data-item-order="2000000000" transform="translate(507, 414)"></g><g id="g-root-tx_mapinfop_5vaim1nf15hd-stroke" data-item-order="2000000000" transform="translate(99, 53.99993896484375)"></g></g></g></svg>