<?xml version="1.0" encoding="utf-8" standalone="yes"?>
<!DOCTYPE svg PUBLIC "-//W3C//DTD SVG 1.1//EN" "http://www.w3.org/Graphics/SVG/1.1/DTD/svg11.dtd">
<svg width="608" height="518" viewBox="0 0 608 518" style="fill:none;stroke:none;fill-rule:evenodd;clip-rule:evenodd;stroke-linecap:round;stroke-linejoin:round;stroke-miterlimit:1.5;" version="1.1" xmlns="http://www.w3.org/2000/svg" xmlns:xlink="http://www.w3.org/1999/xlink"><style id="fontImports">@import url("https://fonts.googleapis.com/css2?family=Roboto:wght@400;700&amp;display=block");</style><g id="items" style="isolation: isolate"><g id="blend" style="mix-blend-mode: normal"><g id="g-root-0.cu_sy_1hgba191oss2rk-fill" data-item-order="-78833" transform="translate(225, 111)"></g><g id="g-root-2.cu_sy_qu0qdp1oss2rl-fill" data-item-order="-78829" transform="translate(213, 219)"></g><g id="g-root-3.cu_sy_7q6q51oss2rm-fill" data-item-order="-78825" transform="translate(471, 153)"></g><g id="g-root-1.cu_sy_zqwost1oss3d7-fill" data-item-order="-78821" transform="translate(93, 123)"></g><g id="g-root--1.cu_sy_i095e51oss2kk-fill" data-item-order="-78817" transform="translate(93, 111.26025390625)"></g><g id="g-root-tx_geospati_1qf2npp1oss2dh-fill" data-item-order="0" transform="translate(117, 39)"><g id="tx_geospati_1qf2npp1oss2dh-fill" stroke="none" fill="#484848"><g><text style="font: 20px Roboto, sans-serif; white-space: pre;" font-size="20px" font-family="Roboto, sans-serif"><tspan x="13.21" y="34" dominant-baseline="ideographic">Geospatial Data Collection and Analysis</tspan></text></g></g></g><g id="g-root-3_qrjvyl1otbq4j-fill" data-item-order="0" transform="translate(102, 132)"></g><g id="g-root-2_1lyndsd1pd59mo-fill" data-item-order="0" transform="translate(261, 147)"></g><g id="g-root-sign_18lbczx1pcwv0i-fill" data-item-order="0" transform="translate(483, 165)"></g><g id="g-root-road_v63dzh1osti4p-fill" data-item-order="0" transform="translate(228, 234)"></g><g id="g-root-tx_uavsdron_zlb4b11pn0n4e-fill" data-item-order="0" transform="translate(39, 303)"><g id="tx_uavsdron_zlb4b11pn0n4e-fill" stroke="none" fill="#1eabda"><g><text style="font: bold 20px Roboto, sans-serif; white-space: pre;" font-weight="bold" font-size="20px" font-family="Roboto, sans-serif"><tspan x="16.01" y="34" dominant-baseline="ideographic">UAVs/Drones</tspan></text></g></g></g><g id="g-root-tx_lidar_142dklp1pn0oi7-fill" data-item-order="0" transform="translate(267, 315)"><g id="tx_lidar_142dklp1pn0oi7-fill" stroke="none" fill="#3cc583"><g><text style="font: bold 20px Roboto, sans-serif; white-space: pre;" font-weight="bold" font-size="20px" font-family="Roboto, sans-serif"><tspan x="12.42" y="34" dominant-baseline="ideographic">LiDAR</tspan></text></g></g></g><g id="g-root-tx_satellit_mbq1711pn0npk-fill" data-item-order="0" transform="translate(405, 303)"><g id="tx_satellit_mbq1711pn0npk-fill" stroke="none" fill="#92bd39"><g><text style="font: bold 20px Roboto, sans-serif; white-space: pre;" font-weight="bold" font-size="20px" font-family="Roboto, sans-serif"><tspan x="17.66" y="34" dominant-baseline="ideographic">Satellite Imagery</tspan></text></g></g></g><g id="g-root-tx_usedforr_18foh3h1osthjj-fill" data-item-order="0" transform="translate(15, 339)"><g id="tx_usedforr_18foh3h1osthjj-fill" stroke="none" fill="#484848"><g><text style="font: 20px Roboto, sans-serif; white-space: pre;" font-size="20px" font-family="Roboto, sans-serif"><tspan x="16.98" y="34" dominant-baseline="ideographic">Used for rapid and </tspan><tspan x="17.27" y="58" dominant-baseline="ideographic">precise geospatial </tspan><tspan x="32.97" y="82" dominant-baseline="ideographic">data collection</tspan></text></g></g></g><g id="g-root-tx_provides_2qe191ostgqw-fill" data-item-order="0" transform="translate(213, 351)"><g id="tx_provides_2qe191ostgqw-fill" stroke="none" fill="#484848"><g><text style="font: 20px Roboto, sans-serif; white-space: pre;" font-size="20px" font-family="Roboto, sans-serif"><tspan x="14.96" y="34" dominant-baseline="ideographic">Provides detailed </tspan><tspan x="16.01" y="58" dominant-baseline="ideographic">topographic data </tspan><tspan x="44.05" y="82" dominant-baseline="ideographic">for various </tspan><tspan x="37.23" y="106" dominant-baseline="ideographic">applications</tspan></text></g></g></g><g id="g-root-tx_offershi_qn5ifh1osthqm-fill" data-item-order="0" transform="translate(423, 339)"><g id="tx_offershi_qn5ifh1osthqm-fill" stroke="none" fill="#484848"><g><text style="font: 20px Roboto, sans-serif; white-space: pre;" font-size="20px" font-family="Roboto, sans-serif"><tspan x="21.65" y="34" dominant-baseline="ideographic">Offers high-</tspan><tspan x="29.18" y="58" dominant-baseline="ideographic">resolution </tspan><tspan x="22.7" y="82" dominant-baseline="ideographic">imagery for </tspan><tspan x="13.48" y="106" dominant-baseline="ideographic">analysis from </tspan><tspan x="46.76" y="130" dominant-baseline="ideographic">space</tspan></text></g></g></g><g id="g-root-0.cu_sy_1hgba191oss2rk-stroke" data-item-order="-78833" transform="translate(225, 111)"><g id="0.cu_sy_1hgba191oss2rk-stroke" fill="none" stroke-linecap="round" stroke-linejoin="round" stroke-miterlimit="4" stroke="#4e88e7" stroke-width="2"><g><path d="M 82 154C 121.7645 154 154 121.7645 154 82C 154 42.2355 121.7645 10 82 10C 42.2355 10 10 42.2355 10 82C 10 96.1129 14.0605 109.2775 21.0769 120.3891C 25.088 118.8459 29.4452 118 34 118C 53.5486 118 69.4579 133.5813 69.9864 153.0022C 73.8932 153.6584 77.9067 154 82 154Z"></path></g></g></g><g id="g-root-2.cu_sy_qu0qdp1oss2rl-stroke" data-item-order="-78829" transform="translate(213, 219)"><g id="2.cu_sy_qu0qdp1oss2rl-stroke" fill="none" stroke-linecap="round" stroke-linejoin="round" stroke-miterlimit="4" stroke="#3cc583" stroke-width="2"><g><path d="M 82 46C 82 65.8823 65.8823 82 46 82C 26.1177 82 10 65.8823 10 46C 10 26.1177 26.1177 10 46 10C 65.8823 10 82 26.1177 82 46Z"></path></g></g></g><g id="g-root-3.cu_sy_7q6q51oss2rm-stroke" data-item-order="-78825" transform="translate(471, 153)"><g id="3.cu_sy_7q6q51oss2rm-stroke" fill="none" stroke-linecap="round" stroke-linejoin="round" stroke-miterlimit="4" stroke="#92bd39" stroke-width="2"><g><path d="M 70 40C 70 56.5685 56.5685 70 40 70C 23.4315 70 10 56.5685 10 40C 10 23.4315 23.4315 10 40 10C 56.5685 10 70 23.4315 70 40Z"></path></g></g></g><g id="g-root-1.cu_sy_zqwost1oss3d7-stroke" data-item-order="-78821" transform="translate(93, 123)"><g id="1.cu_sy_zqwost1oss3d7-stroke" fill="none" stroke-linecap="round" stroke-linejoin="round" stroke-miterlimit="4" stroke="#1eabda" stroke-width="2"><g><path d="M 58 34C 58 47.2548 47.2548 58 34 58C 20.7452 58 10 47.2548 10 34C 10 20.7452 20.7452 10 34 10C 47.2548 10 58 20.7452 58 34Z"></path></g></g></g><g id="g-root--1.cu_sy_i095e51oss2kk-stroke" data-item-order="-78817" transform="translate(93, 111.26025390625)"><g id="-1.cu_sy_i095e51oss2kk-stroke" fill="none" stroke-linecap="round" stroke-linejoin="round" stroke-miterlimit="4" stroke="#969696" stroke-width="2" stroke-dasharray="5.0, 7.0"><g><path d="M 144.3938 122.5313C 106.9361 114.0615 82 98.9595 82 81.7395C 82 63.1262 111.1351 46.9874 153.7264 39.0244M 128.7609 147.1723C 58.6613 135.7781 10 110.7645 10 81.7395C 10 75.7665 12.0608 69.9633 15.9452 64.4137M 194.39 129.2135C 200.7883 129.56 207.3365 129.7395 214 129.7395C 286.9016 129.7395 346 108.2492 346 81.7395C 346 63.0996 316.7815 46.9412 274.0908 38.9903M 204.1285 153.6567C 207.3994 153.7117 210.6905 153.7395 214 153.7395C 298.7492 153.7395 371.4281 135.4998 402.2421 109.5359M 57.841 35.4084C 91.7475 21.1874 140.9628 11.6636 196.5255 10M 232.4007 10.0285C 309.1626 12.4506 373.6831 29.8794 402.2421 53.9432"></path></g></g></g><g id="g-root-tx_geospati_1qf2npp1oss2dh-stroke" data-item-order="0" transform="translate(117, 39)"></g><g id="g-root-3_qrjvyl1otbq4j-stroke" data-item-order="0" transform="translate(102, 132)"><g id="3_qrjvyl1otbq4j-stroke" fill="none" stroke-linecap="round" stroke-linejoin="round" stroke-miterlimit="4" stroke="#1eabda" stroke-width="2"><g><path d="M 37.105 16.266251C 37.105 15.230717 36.265533 14.39125 35.23 14.39125L 33.375 14.39125C 31.791744 14.433762 30.268309 13.785423 29.20125 12.615C 28.132545 11.363122 26.56913 10.642159 24.923126 10.642159C 23.277121 10.642159 21.713707 11.363122 20.645 12.615C 19.576502 13.787101 18.050417 14.435596 16.465 14.39125L 14.605 14.39125C 13.569467 14.391251 12.73 15.230717 12.73 16.266251C 12.73 17.301785 13.569467 18.141251 14.605 18.141251L 16.465 18.141251C 18.048256 18.09874 19.57169 18.747076 20.63875 19.9175C 21.707457 21.169378 23.27087 21.890339 24.916876 21.890339C 26.56288 21.890339 28.126295 21.169378 29.195 19.9175C 30.2635 18.745399 31.789585 18.096905 33.375 18.141251L 35.236248 18.141251C 36.269344 18.137806 37.105007 17.299349 37.105 16.266251ZM 12.73 10.64125L 16.48 10.64125M 33.355 10.64125L 37.105 10.64125M 30.625 18.786249C 32.808449 20.319017 34.355694 22.597645 34.975002 25.192501M 19.205 18.786249C 17.020798 20.318274 15.473339 22.597218 14.855 25.192501M 23.125 26.130001C 23.125 26.302589 23.264912 26.442501 23.4375 26.442501C 23.610088 26.442501 23.75 26.302589 23.75 26.130001C 23.75 25.957411 23.610088 25.817501 23.4375 25.817501C 23.264912 25.817501 23.125 25.957411 23.125 26.130001M 28.125 28.630001C 28.125 28.802589 28.264912 28.942501 28.4375 28.942501C 28.610088 28.942501 28.75 28.802589 28.75 28.630001C 28.75 28.457411 28.610088 28.317501 28.4375 28.317501C 28.264912 28.317501 28.125 28.457411 28.125 28.630001M 21.25 31.129999C 21.25 31.302588 21.389912 31.442499 21.5625 31.442499C 21.735088 31.442499 21.875 31.302588 21.875 31.129999C 21.875 30.957411 21.735088 30.817499 21.5625 30.817499C 21.389912 30.817499 21.25 30.957411 21.25 31.129999M 16.25 34.358749L 11.25 39.358749L 38.75 39.358749L 33.75 34.358749M 25 34.358749L 25 39.358749M 22.4175 16.266251C 22.4175 17.646961 23.536789 18.766251 24.9175 18.766251C 26.298212 18.766251 27.4175 17.646961 27.4175 16.266251C 27.4175 14.885538 26.298212 13.76625 24.9175 13.76625C 23.536789 13.76625 22.4175 14.885538 22.4175 16.266251"></path></g></g></g><g id="g-root-2_1lyndsd1pd59mo-stroke" data-item-order="0" transform="translate(261, 147)"><g id="2_1lyndsd1pd59mo-stroke" fill="none" stroke-linecap="round" stroke-linejoin="round" stroke-miterlimit="4" stroke="#4e88e7" stroke-width="2"><g><path d="M 79 79L 13 79M 16.75 79L 34.105 43.995998L 53.707001 79M 68.5 46L 58 19L 41.695 57.537998M 20.5 12.814L 20.5 45.436001M 27.49 19.803999L 20.5 12.814L 13.51 19.803999M 13.51 38.445999L 20.5 45.436001L 27.49 38.445999M 10 10M 56.5 61L 62.674004 46L 74.125 46L 79 79"></path></g></g></g><g id="g-root-sign_18lbczx1pcwv0i-stroke" data-item-order="0" transform="translate(483, 165)"><g id="sign_18lbczx1pcwv0i-stroke" fill="none" stroke-linecap="round" stroke-linejoin="round" stroke-miterlimit="4" stroke="#92bd39" stroke-width="2"><g><path d="M 22.75 28C 22.750002 30.899494 25.100506 33.25 28.000002 33.25C 30.899494 33.25 33.25 30.899494 33.25 28.000002C 33.25 25.100506 30.899494 22.750002 28.000002 22.750002C 25.100506 22.750002 22.750002 25.100506 22.750002 28.000002M 28 27.625C 28.207108 27.625 28.375 27.792892 28.375 28C 28.375 28.207108 28.207108 28.375 28 28.375C 27.792892 28.375 27.625 28.207108 27.625 28C 27.625 27.792892 27.792892 27.625 28 27.625M 24.280001 24.280001L 21.639999 21.639999M 11.551611 16.859341L 16.854912 11.556039C 17.147804 11.263145 17.622677 11.263147 17.915571 11.55604L 23.749203 17.389671C 24.334988 17.975456 24.334988 18.925205 23.749203 19.51099L 19.506561 23.753632C 18.920774 24.339417 17.971027 24.339418 17.385241 23.753632L 11.551611 17.92C 11.258718 17.627106 11.258718 17.152233 11.551611 16.859341ZM 31.719999 31.719999L 34.360001 34.360001M 44.437843 39.140656L 39.134544 44.443958C 38.841648 44.736855 38.366776 44.736855 38.073883 44.443958L 32.240253 38.610329C 31.654465 38.02454 31.654465 37.074795 32.240253 36.48901L 36.482895 32.246368C 37.06868 31.660582 38.018425 31.660582 38.604214 32.246368L 44.437843 38.079998C 44.730736 38.372894 44.730736 38.847767 44.437843 39.140656ZM 13 26.889999C 10.677349 31.51301 11.579143 37.104172 15.237484 40.762512C 18.895826 44.42086 24.48699 45.322651 29.110001 43M 17.049999 31C 16.595642 33.217102 17.285204 35.514175 18.885513 37.114487C 20.485823 38.714794 22.782898 39.404354 25 38.949997"></path></g></g></g><g id="g-root-road_v63dzh1osti4p-stroke" data-item-order="0" transform="translate(228, 234)"><g id="road_v63dzh1osti4p-stroke" fill="none" stroke-linecap="round" stroke-linejoin="round" stroke-miterlimit="4" stroke="#3cc583" stroke-width="2"><g><path d="M 35.033752 32.408752C 34.148083 33.195423 33.005337 33.631111 31.820749 33.633747C 29.335461 33.601337 27.246254 31.758968 26.903252 29.297251L 26.84725 28.866751C 25.127642 28.090765 24.016397 26.385487 24.000982 24.498962C 23.985569 22.612438 25.068802 20.889231 26.775501 20.085251L 26.84375 19.689751C 26.809639 17.693146 28.401371 16.047338 30.398001 16.014751L 30.747999 15.649C 30.701723 13.967484 31.572365 12.39351 33.021378 11.539109C 34.470387 10.684708 36.269112 10.684708 37.718124 11.539109C 39.167137 12.39351 40.037777 13.967484 39.991501 15.649L 40.341499 16.01475C 42.338135 16.047338 43.929863 17.693146 43.895752 19.689751L 44.320999 20.26725C 45.888527 21.172192 46.819935 22.876314 46.73521 24.684317C 46.650482 26.492319 45.563786 28.101868 43.918499 28.856249L 43.83625 29.297251C 43.49255 31.758595 41.403755 33.600597 38.918751 33.633751C 37.747169 33.632942 36.615143 33.209827 35.730247 32.441998ZM 35.375 22.25L 35.375 40.625M 35.375 28.375C 37.876419 28.375563 40.188042 27.041294 41.438751 24.875M 35.375 26.625C 32.475506 26.625 30.125 24.274496 30.125 21.375M 24.889 32.434998L 24.838249 32.706249C 24.627417 34.221142 23.341866 35.355015 21.8125 35.375C 21.091722 35.374226 20.395327 35.11393 19.85075 34.64175L 19.415001 34.62775C 18.868443 35.1087 18.165537 35.37431 17.4375 35.375C 15.90785 35.355759 14.621886 34.221519 14.41175 32.706249L 14.37675 32.442001C 13.318186 31.96472 12.634058 30.915157 12.624658 29.754009C 12.615257 28.592859 13.282302 27.532358 14.333 27.038002L 14.375 26.800001C 14.364233 26.209469 14.588781 25.638903 14.999136 25.214106C 15.40949 24.789305 15.97195 24.54516 16.5625 24.535501L 16.78125 24.30975C 16.755922 22.713982 18.029226 21.399933 19.625 21.375C 19.922298 21.374292 20.217764 21.421566 20.5 21.514999M 19.625 30.125L 19.625 40.625M 10.875 40.625L 51.125 40.625M 10.875 51.125L 51.125 51.125M 14.375 45.875L 21.375 45.875M 26.625 45.875L 33.625 45.875M 38.875 45.875L 45.875 45.875"></path></g></g></g><g id="g-root-tx_uavsdron_zlb4b11pn0n4e-stroke" data-item-order="0" transform="translate(39, 303)"></g><g id="g-root-tx_lidar_142dklp1pn0oi7-stroke" data-item-order="0" transform="translate(267, 315)"></g><g id="g-root-tx_satellit_mbq1711pn0npk-stroke" data-item-order="0" transform="translate(405, 303)"></g><g id="g-root-tx_usedforr_18foh3h1osthjj-stroke" data-item-order="0" transform="translate(15, 339)"></g><g id="g-root-tx_provides_2qe191ostgqw-stroke" data-item-order="0" transform="translate(213, 351)"></g><g id="g-root-tx_offershi_qn5ifh1osthqm-stroke" data-item-order="0" transform="translate(423, 339)"></g></g></g></svg>