<?xml version="1.0" encoding="utf-8" standalone="yes"?>
<!DOCTYPE svg PUBLIC "-//W3C//DTD SVG 1.1//EN" "http://www.w3.org/Graphics/SVG/1.1/DTD/svg11.dtd">
<svg width="842" height="698" viewBox="0 0 842 698" style="fill:none;stroke:none;fill-rule:evenodd;clip-rule:evenodd;stroke-linecap:round;stroke-linejoin:round;stroke-miterlimit:1.5;" version="1.1" xmlns="http://www.w3.org/2000/svg" xmlns:xlink="http://www.w3.org/1999/xlink"><style id="fontImports">@import url("https://fonts.googleapis.com/css2?family=Roboto:wght@400;700&amp;display=block");</style><g id="items" style="isolation: isolate"><g id="blend" style="mix-blend-mode: normal"><g id="g-root-5.g-5_fr_hvahrx1o8yio4-fill" data-item-order="-465686" transform="translate(240, 142)"></g><g id="g-root-4.g-4_fr_4kgghp1o8yh3a-fill" data-item-order="-465682" transform="translate(208.99899291992188, 239.9990234375)"></g><g id="g-root-3.g-3_fr_1luahz11o8yj9c-fill" data-item-order="-465678" transform="translate(290.9989929199219, 302.242919921875)"></g><g id="g-root-2.g-2_fr_18jggot1o8yhoi-fill" data-item-order="-465674" transform="translate(373, 278.30908203125)"></g><g id="g-root-1.g-1_fr_v7zybh1o8yj9g-fill" data-item-order="-465670" transform="translate(411, 142)"></g><g id="g-root-tx_mappinga_1ursxh91o8ygpa-fill" data-item-order="0" transform="translate(219, 39)"><g id="tx_mappinga_1ursxh91o8ygpa-fill" stroke="none" fill="#484848"><g><text style="font: 20px Roboto, sans-serif; white-space: pre;" font-size="20px" font-family="Roboto, sans-serif"><tspan x="14.58" y="34" dominant-baseline="ideographic">Mapping and Visualization Tools Overview</tspan></text></g></g></g><g id="g-root-tx_powerbiw_v305ml1o8zx8v-fill" data-item-order="0" transform="translate(87, 99)"><g id="tx_powerbiw_v305ml1o8zx8v-fill" stroke="none" fill="#de58a9"><g><text style="font: bold 20px Roboto, sans-serif; white-space: pre;" font-weight="bold" font-size="20px" font-family="Roboto, sans-serif"><tspan x="28.63" y="34" dominant-baseline="ideographic">Power BI with </tspan><tspan x="41.45" y="58" dominant-baseline="ideographic">Map Visuals</tspan></text></g></g></g><g id="g-root-tx_leafletj_1d0iwzh1o8yj2f-fill" data-item-order="0" transform="translate(591, 123)"><g id="tx_leafletj_1d0iwzh1o8yj2f-fill" stroke="none" fill="#3cc583"><g><text style="font: bold 20px Roboto, sans-serif; white-space: pre;" font-weight="bold" font-size="20px" font-family="Roboto, sans-serif"><tspan x="12" y="34" dominant-baseline="ideographic">Leaflet.js</tspan></text></g></g></g><g id="g-root-tx_integrat_dccm7x1o8zwg8-fill" data-item-order="0" transform="translate(87, 159)"><g id="tx_integrat_dccm7x1o8zwg8-fill" stroke="none" fill="#484848"><g><text style="font: 11.7px Roboto, sans-serif; white-space: pre;" font-size="11.7px" font-family="Roboto, sans-serif"><tspan x="13.31" y="27" dominant-baseline="ideographic">Integrates spatial data into </tspan><tspan x="43.13" y="41" dominant-baseline="ideographic">business intelligence </tspan><tspan x="87.44" y="55" dominant-baseline="ideographic">dashboards.</tspan></text></g></g></g><g id="g-root-fact_18fpm651o8zxu1-fill" data-item-order="0" transform="translate(351, 171)"></g><g id="g-root-tx_alightwe_v9vdkt1o8yi9s-fill" data-item-order="0" transform="translate(591, 159)"><g id="tx_alightwe_v9vdkt1o8yi9s-fill" stroke="none" fill="#484848"><g><text style="font: 11.7px Roboto, sans-serif; white-space: pre;" font-size="11.7px" font-family="Roboto, sans-serif"><tspan x="12" y="27" dominant-baseline="ideographic">A lightweight library for </tspan><tspan x="12" y="41" dominant-baseline="ideographic">embedding custom maps </tspan><tspan x="12" y="55" dominant-baseline="ideographic">on websites.</tspan></text></g></g></g><g id="g-root-node_m7cj991p2vvny-fill" data-item-order="0" transform="translate(507, 237)"></g><g id="g-root-dayt_18jggot1oj6ih8-fill" data-item-order="0" transform="translate(249, 303)"></g><g id="g-root-tx_d3js_93ec1p1o8yhhl-fill" data-item-order="0" transform="translate(39, 351)"><g id="tx_d3js_93ec1p1o8yhhl-fill" stroke="none" fill="#ba5de5"><g><text style="font: bold 20px Roboto, sans-serif; white-space: pre;" font-weight="bold" font-size="20px" font-family="Roboto, sans-serif"><tspan x="106.23" y="34" dominant-baseline="ideographic">D3.js</tspan></text></g></g></g><g id="g-root-tx_deckgl_1uuxawt1o8yhvp-fill" data-item-order="0" transform="translate(639, 357)"><g id="tx_deckgl_1uuxawt1o8yhvp-fill" stroke="none" fill="#1eabda"><g><text style="font: bold 20px Roboto, sans-serif; white-space: pre;" font-weight="bold" font-size="20px" font-family="Roboto, sans-serif"><tspan x="12" y="34" dominant-baseline="ideographic">Deck.gl</tspan></text></g></g></g><g id="g-root-tx_alibrary_1qduum51o8yghu-fill" data-item-order="0" transform="translate(39, 387)"><g id="tx_alibrary_1qduum51o8yghu-fill" stroke="none" fill="#484848"><g><text style="font: 11.7px Roboto, sans-serif; white-space: pre;" font-size="11.7px" font-family="Roboto, sans-serif"><tspan x="36.97" y="27" dominant-baseline="ideographic">A library for producing </tspan><tspan x="48.67" y="41" dominant-baseline="ideographic">dynamic, interactive </tspan><tspan x="77.92" y="55" dominant-baseline="ideographic">visualizations.</tspan></text></g></g></g><g id="g-root-data_1qd7erh1p31jb7-fill" data-item-order="0" transform="translate(495, 399)"></g><g id="g-root-tx_aframewo_1hjgsjh1o8yjgm-fill" data-item-order="0" transform="translate(639, 393)"><g id="tx_aframewo_1hjgsjh1o8yjgm-fill" stroke="none" fill="#484848"><g><text style="font: 11.7px Roboto, sans-serif; white-space: pre;" font-size="11.7px" font-family="Roboto, sans-serif"><tspan x="12" y="28" dominant-baseline="ideographic">A framework for rendering </tspan><tspan x="12" y="42" dominant-baseline="ideographic">complex geospatial data.</tspan></text></g></g></g><g id="g-root-2_v308sd1osw935-fill" data-item-order="0" transform="translate(327, 435)"></g><g id="g-root-tx_cesiumjs_zrkayl1o8yghv-fill" data-item-order="0" transform="translate(339, 567)"><g id="tx_cesiumjs_zrkayl1o8yghv-fill" stroke="none" fill="#7f64ea"><g><text style="font: bold 20px Roboto, sans-serif; white-space: pre;" font-weight="bold" font-size="20px" font-family="Roboto, sans-serif"><tspan x="36.27" y="34" dominant-baseline="ideographic">CesiumJS</tspan></text></g></g></g><g id="g-root-tx_alibrary_dkgscd1o8yivg-fill" data-item-order="0" transform="translate(339, 603)"><g id="tx_alibrary_dkgscd1o8yivg-fill" stroke="none" fill="#484848"><g><text style="font: 11.7px Roboto, sans-serif; white-space: pre;" font-size="11.7px" font-family="Roboto, sans-serif"><tspan x="19.4" y="28" dominant-baseline="ideographic">A library for creating 3D </tspan><tspan x="34.37" y="42" dominant-baseline="ideographic">globes and maps.</tspan></text></g></g></g><g id="g-root-5.g-5_fr_hvahrx1o8yio4-stroke" data-item-order="-465686" transform="translate(240, 142)"><g id="5.g-5_fr_hvahrx1o8yio4-stroke" fill="none" stroke-linecap="round" stroke-linejoin="round" stroke-miterlimit="4" stroke="#de58a9" stroke-width="2"><g><path d="M 130 10C 63.7258 10 10 63.7258 10 130C 10 135.5315 10.3743 140.9757 11.0989 146.3084C 33.0101 122.7424 64.2834 108 99 108C 104.0273 108 108.9824 108.3091 113.8473 108.9095C 139.6674 112.0956 162.9474 123.4837 181 140.3867C 190.2201 149.0196 198.0767 159.0911 204.2118 170.2432C 211.1475 182.8507 215.883 196.8393 217.9011 211.6916C 225.9671 203.0164 232.7644 193.1455 237.9977 182.3742C 245.687 166.5479 250 148.7776 250 130C 250 122.8043 249.3667 115.7566 248.1527 108.9095C 241.2622 70.0454 215.6655 37.6449 181 21.3454C 165.522 14.0678 148.236 10 130 10Z"></path></g></g></g><g id="g-root-4.g-4_fr_4kgghp1o8yh3a-stroke" data-item-order="-465682" transform="translate(208.99899291992188, 239.9990234375)"><g id="4.g-4_fr_4kgghp1o8yh3a-stroke" fill="none" stroke-linecap="round" stroke-linejoin="round" stroke-miterlimit="4" stroke="#ba5de5" stroke-width="2"><g><path d="M 144.8473 10.9095C 139.9824 10.3091 135.0273 10 130 10C 95.2834 10 64.0101 24.7424 42.0989 48.3084C 22.1815 69.73 10 98.4424 10 130C 10 188.3331 51.6222 236.9449 106.7882 247.7568C 97.3622 230.6225 92 210.9375 92 190C 92 171.2224 96.313 153.4521 104.0023 137.6258C 115.0044 114.981 132.9189 96.3159 155.0023 84.3742C 165.4309 78.7348 176.7892 74.5949 188.7882 72.2432C 196.2981 70.7714 204.059 70 212 70C 219.941 70 227.7019 70.7713 235.2118 72.2432C 229.0767 61.0911 221.2201 51.0196 212 42.3867C 193.9474 25.4837 170.6675 14.0956 144.8473 10.9095Z"></path></g></g></g><g id="g-root-3.g-3_fr_1luahz11o8yj9c-stroke" data-item-order="-465678" transform="translate(290.9989929199219, 302.242919921875)"><g id="3.g-3_fr_1luahz11o8yj9c-stroke" fill="none" stroke-linecap="round" stroke-linejoin="round" stroke-miterlimit="4" stroke="#7f64ea" stroke-width="2"><g><path d="M 106.7882 10C 94.7892 12.3517 83.4309 16.4917 73.0023 22.131C 50.919 34.0727 33.0044 52.7378 22.0023 75.3826C 14.313 91.2089 10 108.9792 10 127.7568C 10 148.6943 15.3622 168.3793 24.7882 185.5136C 45.1987 222.6151 84.6633 247.7568 130 247.7568C 175.3367 247.7568 214.8012 222.6151 235.2118 185.5136C 227.7019 186.9855 219.941 187.7568 212 187.7568C 180.2907 187.7568 151.454 175.4579 130 155.3701C 111.4824 138.0318 98.4648 114.8908 93.8473 88.8473C 92.6333 82.0002 92 74.9525 92 67.7568C 92 62.2253 92.3742 56.7811 93.0989 51.4483C 95.117 36.596 99.8525 22.6075 106.7882 10Z"></path></g></g></g><g id="g-root-2.g-2_fr_18jggot1o8yhoi-stroke" data-item-order="-465674" transform="translate(373, 278.30908203125)"><g id="2.g-2_fr_18jggot1o8yhoi-stroke" fill="none" stroke-linecap="round" stroke-linejoin="round" stroke-miterlimit="4" stroke="#1eabda" stroke-width="2"><g><path d="M 11.0988 75.3831C 10.3742 80.7158 10 86.16 10 91.6915C 9.999999 98.8872 10.6333 105.935 11.8473 112.7821C 16.4648 138.8256 29.4824 161.9665 48 179.3049C 69.454 199.3926 98.2907 211.6915 130 211.6915C 137.941 211.6915 145.7019 210.9202 153.2118 209.4484C 208.3778 198.6365 250 150.0247 250 91.6916C 250 60.134 237.8185 31.4216 217.9011 10C 212.6465 48.6722 188.9684 81.4882 155.9977 99.3173C 139.0421 108.4862 119.629 113.6916 99 113.6916C 93.9727 113.6916 89.0176 113.3824 84.1527 112.7821C 71.3706 111.2048 59.2111 107.6175 48 102.3461C 34.0119 95.769 21.5005 86.5703 11.0988 75.3831Z"></path></g></g></g><g id="g-root-1.g-1_fr_v7zybh1o8yj9g-stroke" data-item-order="-465670" transform="translate(411, 142)"><g id="1.g-1_fr_v7zybh1o8yj9g-stroke" fill="none" stroke-linecap="round" stroke-linejoin="round" stroke-miterlimit="4" stroke="#3cc583" stroke-width="2"><g><path d="M 181 130C 181 63.7258 127.2742 10 61 10C 42.764 10 25.478 14.0677 10 21.3454C 44.6655 37.6449 70.2622 70.0453 77.1527 108.9095C 78.3667 115.7566 79 122.8043 79 130C 79 148.7776 74.6871 166.5479 66.9977 182.3742C 61.7644 193.1455 54.9671 203.0164 46.9011 211.6916C 36.4995 222.8787 23.9881 232.0775 10 238.6546C 21.2111 243.9259 33.3706 247.5132 46.1527 249.0905C 51.0176 249.6909 55.9727 250 61 250C 81.6289 250 101.0421 244.7946 117.9977 235.6258C 150.9684 217.7967 174.6465 184.9807 179.9011 146.3085C 180.6257 140.9757 181 135.5316 181 130Z"></path></g></g></g><g id="g-root-tx_mappinga_1ursxh91o8ygpa-stroke" data-item-order="0" transform="translate(219, 39)"></g><g id="g-root-tx_powerbiw_v305ml1o8zx8v-stroke" data-item-order="0" transform="translate(87, 99)"></g><g id="g-root-tx_leafletj_1d0iwzh1o8yj2f-stroke" data-item-order="0" transform="translate(591, 123)"></g><g id="g-root-tx_integrat_dccm7x1o8zwg8-stroke" data-item-order="0" transform="translate(87, 159)"></g><g id="g-root-fact_18fpm651o8zxu1-stroke" data-item-order="0" transform="translate(351, 171)"><g id="fact_18fpm651o8zxu1-stroke" fill="none" stroke-linecap="round" stroke-linejoin="round" stroke-miterlimit="4" stroke="#de58a9" stroke-width="2"><g><path d="M 34 11C 38.328384 10.993644 42.568836 12.221655 46.223999 14.54C 55.723999 20.562 56.424 33 48.854 42.094002C 44.368031 47.50565 39.395939 52.495148 34 57C 28.604061 52.495148 23.631969 47.50565 19.146 42.094002C 11.578 33 12.276 20.562 21.776001 14.54C 25.431162 12.221655 29.671616 10.993644 34 11ZM 29 33L 28.09 23.9C 28.038458 23.387098 27.605478 22.997417 27.09 23L 25 23C 24.447716 23 24 23.447716 24 24L 24 40C 24 40.552284 24.447716 41 25 41L 43 41C 43.552284 41 44 40.552284 44 40L 44 30.615999C 43.999641 30.269848 43.820293 29.948498 43.525867 29.766466C 43.231445 29.584436 42.863819 29.567616 42.554001 29.722L 36 33L 36 30.722C 35.999886 30.365616 35.810112 30.036226 35.501854 29.857372C 35.193604 29.678518 34.813454 29.677233 34.503998 29.854ZM 32 37L 34 37M 38 37L 40 37M 26 19C 26.859541 17.643433 28.399021 16.873692 30 17C 33 17 33 21 36 21C 37.600975 21.126308 39.140457 20.356567 40 19"></path></g></g></g><g id="g-root-tx_alightwe_v9vdkt1o8yi9s-stroke" data-item-order="0" transform="translate(591, 159)"></g><g id="g-root-node_m7cj991p2vvny-stroke" data-item-order="0" transform="translate(507, 237)"><g id="node_m7cj991p2vvny-stroke" fill="none" stroke-linecap="round" stroke-linejoin="round" stroke-miterlimit="4" stroke="#3cc583" stroke-width="2"><g><path d="M 34 57L 55 44L 55 24L 34 11L 13 24L 13 44L 34 57ZM 21 41L 31 28L 47 27L 38 40L 21 41ZM 33 34C 33 34.552284 33.447716 35 34 35C 34.552284 35 35 34.552284 35 34C 35 33.447716 34.552284 33 34 33C 33.447716 33 33 33.447716 33 34"></path></g></g></g><g id="g-root-dayt_18jggot1oj6ih8-stroke" data-item-order="0" transform="translate(249, 303)"><g id="dayt_18jggot1oj6ih8-stroke" fill="none" stroke-linecap="round" stroke-linejoin="round" stroke-miterlimit="4" stroke="#ba5de5" stroke-width="2"><g><path d="M 13 45L 17 45L 17 57L 13 57ZM 21 35L 25 35L 25 57L 21 57ZM 29 41L 33 41L 33 57L 29 57ZM 37 27L 41 27L 41 57L 37 57ZM 45 35L 49 35L 49 57L 45 57ZM 53 19L 57 19L 57 57L 53 57ZM 13 11L 57 11L 57 15L 13 15Z"></path></g></g></g><g id="g-root-tx_d3js_93ec1p1o8yhhl-stroke" data-item-order="0" transform="translate(39, 351)"></g><g id="g-root-tx_deckgl_1uuxawt1o8yhvp-stroke" data-item-order="0" transform="translate(639, 357)"></g><g id="g-root-tx_alibrary_1qduum51o8yghu-stroke" data-item-order="0" transform="translate(39, 387)"></g><g id="g-root-data_1qd7erh1p31jb7-stroke" data-item-order="0" transform="translate(495, 399)"><g id="data_1qd7erh1p31jb7-stroke" fill="none" stroke-linecap="round" stroke-linejoin="round" stroke-miterlimit="4" stroke="#1eabda" stroke-width="2"><g><path d="M 30.184 45.888L 15.219999 45.888C 12.889359 45.887997 11 43.998638 11 41.667999L 11 15.294001C 11 12.963358 12.889359 11.074 15.219999 11.073999L 46.869999 11.074C 49.200638 11.074 51.089996 12.963358 51.089996 15.294L 51.09 30.184M 11 19.313999L 51.09 19.313999M 11 36.826L 30.184 36.826M 11 28.084L 51.09 28.084M 27.374001 19.313999L 27.374001 45.888M 39.113998 19.313999L 39.113998 29.639999M 36.035999 37.461998C 36.034397 39.943348 40.727818 41.955246 46.518002 41.955246C 52.308182 41.955246 57.001602 39.943348 57 37.461998C 57.001602 34.980652 52.308182 32.968758 46.518002 32.968758C 40.727818 32.968758 36.034397 34.980652 36.035999 37.461998M 36.035999 37.459999L 36.035999 44.948002C 36.035999 47.425999 40.73 49.439999 46.518002 49.439999C 52.306 49.439999 57 47.428001 57 44.948002L 57 37.459999M 36.035999 44.948002L 36.035999 52.433998C 36.035999 54.914001 40.73 56.925999 46.518002 56.925999C 52.306 56.925999 57 54.916 57 52.433998L 57 44.948002"></path></g></g></g><g id="g-root-tx_aframewo_1hjgsjh1o8yjgm-stroke" data-item-order="0" transform="translate(639, 393)"></g><g id="g-root-2_v308sd1osw935-stroke" data-item-order="0" transform="translate(327, 435)"><g id="2_v308sd1osw935-stroke" fill="none" stroke-linecap="round" stroke-linejoin="round" stroke-miterlimit="4" stroke="#7f64ea" stroke-width="2"><g><path d="M 45.984001 32.938L 34.984001 38.938L 45.984001 44.938L 56.984001 38.938L 45.984001 32.938ZM 56.984001 38.938L 56.984001 50.938L 45.984001 56.938L 34.984001 50.938L 34.984001 38.938M 45.984001 44.938L 45.984001 56.938M 25.015999 20.834L 25.015999 52.834M 39.015999 31.062L 39.015999 11.062M 31.016001 48.776001L 25.6 52.647999C 25.252405 52.89613 24.785595 52.89613 24.438 52.647999L 11.438 43.362C 11.174659 43.174503 11.018199 42.871269 11.018 42.548L 11.018 12.062C 11.017695 11.687099 11.227113 11.343519 11.560474 11.171992C 11.893835 11.000465 12.295134 11.029807 12.6 11.248L 25.015999 20.834L 38.436001 11.248C 38.783592 10.999871 39.250404 10.999871 39.598 11.248L 52.598 20.534C 52.860584 20.721931 53.016262 21.025093 53.015999 21.348L 53.015999 32.062"></path></g></g></g><g id="g-root-tx_cesiumjs_zrkayl1o8yghv-stroke" data-item-order="0" transform="translate(339, 567)"></g><g id="g-root-tx_alibrary_dkgscd1o8yivg-stroke" data-item-order="0" transform="translate(339, 603)"></g></g></g></svg>