<?xml version="1.0" encoding="utf-8" standalone="yes"?>
<!DOCTYPE svg PUBLIC "-//W3C//DTD SVG 1.1//EN" "http://www.w3.org/Graphics/SVG/1.1/DTD/svg11.dtd">
<svg width="734" height="462" viewBox="0 0 734 462" style="fill:none;stroke:none;fill-rule:evenodd;clip-rule:evenodd;stroke-linecap:round;stroke-linejoin:round;stroke-miterlimit:1.5;" version="1.1" xmlns="http://www.w3.org/2000/svg" xmlns:xlink="http://www.w3.org/1999/xlink"><style id="fontImports">@import url("https://fonts.googleapis.com/css2?family=Roboto:wght@400;700&amp;display=block");</style><g id="items" style="isolation: isolate"><g id="blend" style="mix-blend-mode: normal"><g id="g-root-0.cu_sy_13z9djx1mlar61-fill" data-item-order="-35721" transform="translate(307, 207)"></g><g id="g-root-0.cu_1_sy_1q8usil1mlascq-fill" data-item-order="-35719" transform="translate(307.000244140625, 115)"></g><g id="g-root-3.cu_sy_1uqjpwd1mlaqkr-fill" data-item-order="-35715" transform="translate(391, 291)"></g><g id="g-root-3.cu_1_sy_mcz5r11mlasxw-fill" data-item-order="-35713" transform="translate(335, 303)"></g><g id="g-root-3.cu_2_sy_18lbmjh1mlaryl-fill" data-item-order="-35711" transform="translate(307, 291)"></g><g id="g-root-2.cu_sy_8djh91mlar5y-fill" data-item-order="-35707" transform="translate(391, 219)"></g><g id="g-root-2.cu_1_sy_959hwd1mlarrj-fill" data-item-order="-35705" transform="translate(335, 231)"></g><g id="g-root-2.cu_2_sy_zjfvfh1mlc5c8-fill" data-item-order="-35703" transform="translate(307, 219)"></g><g id="g-root-1.cu_sy_1umsvdp1mlc6q1-fill" data-item-order="-35699" transform="translate(391.000244140625, 147)"></g><g id="g-root-1.cu_1_sy_m9usbh1mlc5xe-fill" data-item-order="-35697" transform="translate(335.000244140625, 159)"></g><g id="g-root-1.cu_2_sy_hvwpgd1mlc4y3-fill" data-item-order="-35695" transform="translate(307.000244140625, 147)"></g><g id="g-root-1.cu_3_sy_18jg7a51mlc744-fill" data-item-order="-35693" transform="translate(307.0000305175781, 87)"></g><g id="g-root-tx_machinel_4hbtnh1mldjig-fill" data-item-order="0" transform="translate(507, 201)"><g id="tx_machinel_4hbtnh1mldjig-fill" stroke="none" fill="#484848"><g><text style="font: bold 20px Roboto, sans-serif; white-space: pre;" font-weight="bold" font-size="20px" font-family="Roboto, sans-serif"><tspan x="12" y="34" dominant-baseline="ideographic">Machine Learning </tspan><tspan x="12" y="58" dominant-baseline="ideographic">Integration</tspan></text></g></g></g><g id="g-root-jour_1d2dtct1muwb2n-fill" data-item-order="0" transform="translate(447, 213)"></g><g id="g-root-tx_librarie_m9usbh1mldjbd-fill" data-item-order="0" transform="translate(15, 189)"><g id="tx_librarie_m9usbh1mldjbd-fill" stroke="none" fill="#484848"><g><text style="font: 11.7px Roboto, sans-serif; white-space: pre;" font-size="11.7px" font-family="Roboto, sans-serif"><tspan x="15.05" y="28" dominant-baseline="ideographic">Libraries for spatial data manipulation </tspan><tspan x="163.42" y="42" dominant-baseline="ideographic">in Python</tspan></text></g></g></g><g id="g-root-tx_geospati_1hi7kyl1mlc6py-fill" data-item-order="0" transform="translate(63, 273)"><g id="tx_geospati_1hi7kyl1mlc6py-fill" stroke="none" fill="#484848"><g><text style="font: bold 20px Roboto, sans-serif; white-space: pre;" font-weight="bold" font-size="20px" font-family="Roboto, sans-serif"><tspan x="21.84" y="34" dominant-baseline="ideographic">Geospatial Data </tspan><tspan x="27.05" y="58" dominant-baseline="ideographic">Analysis with R</tspan></text></g></g></g><g id="g-root-tx_toolsfor_1qf3jdp1mlc7bj-fill" data-item-order="0" transform="translate(507, 261)"><g id="tx_toolsfor_1qf3jdp1mlc7bj-fill" stroke="none" fill="#484848"><g><text style="font: 11.7px Roboto, sans-serif; white-space: pre;" font-size="11.7px" font-family="Roboto, sans-serif"><tspan x="12" y="29" dominant-baseline="ideographic">Tools for predictive modeling in GIS</tspan></text></g></g></g><g id="g-root-net_143mp5p1mldlab-fill" data-item-order="0" transform="translate(231, 285)"></g><g id="g-root-stre_mbpf4t1n502yt-fill" data-item-order="0" transform="translate(231, 141)"></g><g id="g-root-tx_spatiald_dfgq8t1mldma2-fill" data-item-order="0" transform="translate(27, 129)"><g id="tx_spatiald_dfgq8t1mldma2-fill" stroke="none" fill="#484848"><g><text style="font: bold 20px Roboto, sans-serif; white-space: pre;" font-weight="bold" font-size="20px" font-family="Roboto, sans-serif"><tspan x="15.3" y="34" dominant-baseline="ideographic">Spatial Data Science </tspan><tspan x="121.23" y="58" dominant-baseline="ideographic">Libraries</tspan></text></g></g></g><g id="g-root-tx_rpackage_145i4f11mlc64t-fill" data-item-order="0" transform="translate(15, 333)"><g id="tx_rpackage_145i4f11mlc64t-fill" stroke="none" fill="#484848"><g><text style="font: 11.7px Roboto, sans-serif; white-space: pre;" font-size="11.7px" font-family="Roboto, sans-serif"><tspan x="23.25" y="28" dominant-baseline="ideographic">R packages for statistical geospatial </tspan><tspan x="169.55" y="42" dominant-baseline="ideographic">analysis</tspan></text></g></g></g><g id="g-root-tx_advanced_8xrg7x1n5fklr-fill" data-item-order="0" transform="translate(189, 39)"><g id="tx_advanced_8xrg7x1n5fklr-fill" stroke="none" fill="#484848"><g><text style="font: 20px Roboto, sans-serif; white-space: pre;" font-size="20px" font-family="Roboto, sans-serif"><tspan x="17.28" y="34" dominant-baseline="ideographic">Advanced GIS Technologies Overview</tspan></text></g></g></g><g id="g-root-0.cu_sy_13z9djx1mlar61-stroke" data-item-order="-35721" transform="translate(307, 207)"><g id="0.cu_sy_13z9djx1mlar61-stroke" fill="none" stroke-linecap="round" stroke-linejoin="round" stroke-miterlimit="4" stroke="#4e88e7" stroke-width="2"><g><path d="M 54.78 190.78L 60.38 193.98L 61.98 189.18L 66 193.18L 70.02 189.18L 71.62 193.98L 77.22 190.78L 122 130L 94 142L 38 142L 10 130L 54.78 190.78ZM 94 82L 38 82L 10 94L 38 106L 94 106L 122 94L 94 82ZM 66 98.8C 54.95 98.8 46 96.65 46 94C 46 91.35 54.95 89.2 66 89.2C 77.05 89.2 86 91.35 86 94C 86 96.65 77.05 98.8 66 98.8ZM 94 10L 38 10L 10 22L 38 34L 94 34L 122 22L 94 10ZM 66 26.8C 54.95 26.8 46 24.65 46 22C 46 19.35 54.95 17.2 66 17.2C 77.05 17.2 86 19.35 86 22C 86 24.65 77.05 26.8 66 26.8Z"></path></g></g></g><g id="g-root-0.cu_1_sy_1q8usil1mlascq-stroke" data-item-order="-35719" transform="translate(307.000244140625, 115)"><g id="0.cu_1_sy_1q8usil1mlascq-stroke" fill="none" stroke-linecap="round" stroke-linejoin="round" stroke-miterlimit="4" stroke="#808080" stroke-width="2"><g><path d="M 54.779785 282.780176L 60.379785 285.980176L 61.979785 281.180176L 65.999785 285.180176L 70.019785 281.180176L 71.619785 285.980176L 77.219785 282.780176L 65.999785 298.000176L 54.779785 282.780176ZM 65.999756 190.800195C 77.045456 190.800195 85.999756 188.651195 85.999756 186.000195C 85.999756 183.349195 77.045456 181.200195 65.999756 181.200195C 54.954056 181.200195 45.999756 183.349195 45.999756 186.000195C 45.999756 188.651195 54.954056 190.800195 65.999756 190.800195ZM 65.999756 118.800195C 77.045456 118.800195 85.999756 116.651195 85.999756 114.000195C 85.999756 111.349195 77.045456 109.200195 65.999756 109.200195C 54.954056 109.200195 45.999756 111.349195 45.999756 114.000195C 45.999756 116.651195 54.954056 118.800195 65.999756 118.800195ZM 10 34L 38 46L 94 46L 122 34L 122 42L 94 54L 38 54L 10 42L 10 34ZM 10 26L 38 38L 94 38L 122 26L 122 34L 94 46L 38 46L 10 34L 10 26ZM 10 26L 38 38L 94 38L 122 26L 122 10L 94 22L 38 22L 10 10L 10 26Z"></path></g></g></g><g id="g-root-3.cu_sy_1uqjpwd1mlaqkr-stroke" data-item-order="-35715" transform="translate(391, 291)"><g id="3.cu_sy_1uqjpwd1mlaqkr-stroke" fill="none" stroke-linecap="round" stroke-linejoin="round" stroke-miterlimit="4" stroke="#92bd39" stroke-width="2"><g><path d="M 10 58L 38 46L 38 10L 10 22L 10 58Z"></path></g></g></g><g id="g-root-3.cu_1_sy_mcz5r11mlasxw-stroke" data-item-order="-35713" transform="translate(335, 303)"><g id="3.cu_1_sy_mcz5r11mlasxw-stroke" fill="none" stroke-linecap="round" stroke-linejoin="round" stroke-miterlimit="4" stroke="#92bd39" stroke-width="2"><g><path d="M 66 10L 10 10L 10 46L 66 46L 66 10Z"></path></g></g></g><g id="g-root-3.cu_2_sy_18lbmjh1mlaryl-stroke" data-item-order="-35711" transform="translate(307, 291)"><g id="3.cu_2_sy_18lbmjh1mlaryl-stroke" fill="none" stroke-linecap="round" stroke-linejoin="round" stroke-miterlimit="4" stroke="#92bd39" stroke-width="2"><g><path d="M 38 22L 10 10L 10 46L 38 58L 38 22Z"></path></g></g></g><g id="g-root-2.cu_sy_8djh91mlar5y-stroke" data-item-order="-35707" transform="translate(391, 219)"><g id="2.cu_sy_8djh91mlar5y-stroke" fill="none" stroke-linecap="round" stroke-linejoin="round" stroke-miterlimit="4" stroke="#3cc583" stroke-width="2"><g><path d="M 10 58L 38 46L 38 10L 10 22L 10 58Z"></path></g></g></g><g id="g-root-2.cu_1_sy_959hwd1mlarrj-stroke" data-item-order="-35705" transform="translate(335, 231)"><g id="2.cu_1_sy_959hwd1mlarrj-stroke" fill="none" stroke-linecap="round" stroke-linejoin="round" stroke-miterlimit="4" stroke="#3cc583" stroke-width="2"><g><path d="M 66 10L 10 10L 10 46L 66 46L 66 10Z"></path></g></g></g><g id="g-root-2.cu_2_sy_zjfvfh1mlc5c8-stroke" data-item-order="-35703" transform="translate(307, 219)"><g id="2.cu_2_sy_zjfvfh1mlc5c8-stroke" fill="none" stroke-linecap="round" stroke-linejoin="round" stroke-miterlimit="4" stroke="#3cc583" stroke-width="2"><g><path d="M 38 22L 10 10L 10 46L 38 58L 38 22Z"></path></g></g></g><g id="g-root-1.cu_sy_1umsvdp1mlc6q1-stroke" data-item-order="-35699" transform="translate(391.000244140625, 147)"><g id="1.cu_sy_1umsvdp1mlc6q1-stroke" fill="none" stroke-linecap="round" stroke-linejoin="round" stroke-miterlimit="4" stroke="#1eabda" stroke-width="2"><g><path d="M 10 58L 38 46L 38 10L 10 22L 10 58Z"></path></g></g></g><g id="g-root-1.cu_1_sy_m9usbh1mlc5xe-stroke" data-item-order="-35697" transform="translate(335.000244140625, 159)"><g id="1.cu_1_sy_m9usbh1mlc5xe-stroke" fill="none" stroke-linecap="round" stroke-linejoin="round" stroke-miterlimit="4" stroke="#1eabda" stroke-width="2"><g><path d="M 66 10L 10 10L 10 46L 66 46L 66 10Z"></path></g></g></g><g id="g-root-1.cu_2_sy_hvwpgd1mlc4y3-stroke" data-item-order="-35695" transform="translate(307.000244140625, 147)"><g id="1.cu_2_sy_hvwpgd1mlc4y3-stroke" fill="none" stroke-linecap="round" stroke-linejoin="round" stroke-miterlimit="4" stroke="#1eabda" stroke-width="2"><g><path d="M 38 22L 10 10L 10 46L 38 58L 38 22Z"></path></g></g></g><g id="g-root-1.cu_3_sy_18jg7a51mlc744-stroke" data-item-order="-35693" transform="translate(307.0000305175781, 87)"><g id="1.cu_3_sy_18jg7a51mlc744-stroke" fill="none" stroke-linecap="round" stroke-linejoin="round" stroke-miterlimit="4" stroke="#1eabda" stroke-width="2"><g><path d="M 38.000169 50L 94.000169 50L 122.000169 38C 122.000169 38 122.530169 10 66.000169 10C 9.470169 10 10.000169 38 10.000169 38L 38.000169 50Z"></path></g></g></g><g id="g-root-tx_machinel_4hbtnh1mldjig-stroke" data-item-order="0" transform="translate(507, 201)"></g><g id="g-root-jour_1d2dtct1muwb2n-stroke" data-item-order="0" transform="translate(447, 213)"><g id="jour_1d2dtct1muwb2n-stroke" fill="none" stroke-linecap="round" stroke-linejoin="round" stroke-miterlimit="4" stroke="#3cc583" stroke-width="2"><g><path d="M 27.900141 45.700001C 31.434799 45.700001 34.300201 42.834599 34.300201 39.299801C 34.300201 35.765198 31.434799 32.900002 27.900141 32.900002C 24.365501 32.900002 21.50012 35.765198 21.50012 39.299801C 21.50012 42.834599 24.365501 45.700001 27.900141 45.700001ZM 10 10M 32.680801 35.054802L 43.164001 27.654779M 10 10M 34.300201 39.299801L 49.300201 39.299801M 46.299999 29.499821C 48.2882 29.499821 49.900002 27.888041 49.900002 25.89982C 49.900002 23.911579 48.2882 22.299801 46.299999 22.299801C 44.311798 22.299801 42.700001 23.911579 42.700001 25.89982C 42.700001 27.888041 44.311798 29.499821 46.299999 29.499821ZM 52.900002 42.899601C 54.888199 42.899601 56.5 41.288002 56.5 39.299801C 56.5 37.311401 54.888199 35.699799 52.900002 35.699799C 50.9118 35.699799 49.299999 37.311401 49.299999 39.299801C 49.299999 41.288002 50.9118 42.899601 52.900002 42.899601ZM 10 10M 32.568001 43.671799L 43.242199 50.9972M 46.299999 56.499802C 48.2882 56.499802 49.900002 54.888 49.900002 52.899799C 49.900002 50.911598 48.2882 49.299801 46.299999 49.299801C 44.311798 49.299801 42.700001 50.911598 42.700001 52.899799C 42.700001 54.888 44.311798 56.499802 46.299999 56.499802ZM 10 10M 47.911598 49.6796L 51.896999 42.757801M 10 10M 47.909801 29.11622L 51.805801 35.883202M 17.100121 33.099998L 11.500122 28.5L 11.500122 11.5L 21.50012 16.5L 31.5002 11.5L 31.5002 27.5M 21.50012 16.5L 21.50012 28.5"></path></g></g></g><g id="g-root-tx_librarie_m9usbh1mldjbd-stroke" data-item-order="0" transform="translate(15, 189)"></g><g id="g-root-tx_geospati_1hi7kyl1mlc6py-stroke" data-item-order="0" transform="translate(63, 273)"></g><g id="g-root-tx_toolsfor_1qf3jdp1mlc7bj-stroke" data-item-order="0" transform="translate(507, 261)"></g><g id="g-root-net_143mp5p1mldlab-stroke" data-item-order="0" transform="translate(231, 285)"><g id="net_143mp5p1mldlab-stroke" fill="none" stroke-linecap="round" stroke-linejoin="round" stroke-miterlimit="4" stroke="#92bd39" stroke-width="2"><g><path d="M 18.007999 13L 50.007999 13C 50.007999 13 54.007999 13 54.007999 17L 54.007999 51C 54.007999 51 54.007999 55 50.007999 55L 18.007999 55C 18.007999 55 14.007999 55 14.007999 51L 14.007999 17C 14.007999 17 14.007999 13 18.007999 13M 14 39L 21.310001 30.959999C 22.959269 29.298944 25.454391 28.810856 27.608 29.728001L 30.392 31.062C 32.6185 31.984388 35.16328 31.693317 37.124001 30.292L 40.875999 27.292C 42.987286 25.71822 45.348209 24.510715 47.859997 23.719999L 54 22M 24.007999 29.436001L 24.007999 55M 34.007999 31.532L 34.007999 55M 44.007999 25.326L 44.007999 55M 14.007999 39L 54.007999 39M 35.944 31L 54.007999 31M 14.007999 47L 54.007999 47"></path></g></g></g><g id="g-root-stre_mbpf4t1n502yt-stroke" data-item-order="0" transform="translate(231, 141)"><g id="stre_mbpf4t1n502yt-stroke" fill="none" stroke-linecap="round" stroke-linejoin="round" stroke-miterlimit="4" stroke="#1eabda" stroke-width="2"><g><path d="M 34.299999 11.900146C 34.299999 17.500141 42.299999 22.100159 53.5 22.100159L 56.299999 22.100159M 56.299999 28.1001C 36.5 28.1001 21.300041 21.3001 21.300041 13.1001M 40.300201 33.500198C 21.50856 35.100201 11.5 41.100201 11.5 48.100201M 34.299999 56.099998C 34.299999 55.700001 34.299999 55.099998 34.5 54.700001M 32.099998 43.5C 25.499981 46.099998 21.5 49.900002 21.5 53.900002M 54.299999 33.9002L 56.299999 33.9002M 11.5 18.900139C 11.5 25.900139 21.499981 31.9002 40.299999 33.500198M 10 10M 47.5 56.099998L 38.5 50.099998L 38.5 41.5L 47.5 47.099998L 47.5 56.099998ZM 10 10M 47.5 56.099998L 56.5 50.099998L 56.5 41.5L 47.5 47.099998L 47.5 56.099998ZM 10 10M 38.5 41.5L 47.5 36.099998M 10 10M 56.5 41.5L 47.5 36.099998"></path></g></g></g><g id="g-root-tx_spatiald_dfgq8t1mldma2-stroke" data-item-order="0" transform="translate(27, 129)"></g><g id="g-root-tx_rpackage_145i4f11mlc64t-stroke" data-item-order="0" transform="translate(15, 333)"></g><g id="g-root-tx_advanced_8xrg7x1n5fklr-stroke" data-item-order="0" transform="translate(189, 39)"></g></g></g></svg>