<?xml version="1.0" encoding="utf-8" standalone="yes"?>
<!DOCTYPE svg PUBLIC "-//W3C//DTD SVG 1.1//EN" "http://www.w3.org/Graphics/SVG/1.1/DTD/svg11.dtd">
<svg width="830" height="560" viewBox="0 0 830 560" style="fill:none;stroke:none;fill-rule:evenodd;clip-rule:evenodd;stroke-linecap:round;stroke-linejoin:round;stroke-miterlimit:1.5;" version="1.1" xmlns="http://www.w3.org/2000/svg" xmlns:xlink="http://www.w3.org/1999/xlink"><style id="fontImports">@import url("https://fonts.googleapis.com/css2?family=Roboto:wght@400;700&amp;display=block");</style><g id="items" style="isolation: isolate"><g id="blend" style="mix-blend-mode: normal"><g id="g-root-ro_1cy0hntws9og8-fill" data-item-order="-31320" transform="translate(327, 108)"><g id="ro_1cy0hntws9og8-fill" stroke="none" fill="#f5f5f5"><g><path d="M 34 10L 166 10C 166 10 190 10 190 34L 190 160C 190 160 190 184 166 184L 34 184C 34 184 10 184 10 160L 10 34C 10 34 10 10 34 10"></path></g></g></g><g id="g-root-ro_1q6cga1x2exhe-fill" data-item-order="-14256" transform="translate(15, 39)"><g id="ro_1q6cga1x2exhe-fill" stroke="none" fill="#ffebf7"><g><path d="M 22 10L 262 10C 262 10 274 10 274 22L 274 52C 274 52 274 64 262 64L 22 64C 22 64 10 64 10 52L 10 22C 10 22 10 10 22 10"></path></g></g></g><g id="g-root-ro_1q87p7tx22970-fill" data-item-order="-13608" transform="translate(291, 375)"><g id="ro_1q87p7tx22970-fill" stroke="none" fill="#ffeceb"><g><path d="M 22 10L 250 10C 250 10 262 10 262 22L 262 52C 262 52 262 64 250 64L 22 64C 22 64 10 64 10 52L 10 22C 10 22 10 10 22 10"></path></g></g></g><g id="g-root-ro_143m63tx2ape2-fill" data-item-order="-10368" transform="translate(87, 225)"><g id="ro_143m63tx2ape2-fill" stroke="none" fill="#f4ffdc"><g><path d="M 22 10L 190 10C 190 10 202 10 202 22L 202 52C 202 52 202 64 190 64L 22 64C 22 64 10 64 10 52L 10 22C 10 22 10 10 22 10"></path></g></g></g><g id="g-root-ro_1cw5bvtws9q0w-fill" data-item-order="-8424" transform="translate(555, 57)"><g id="ro_1cw5bvtws9q0w-fill" stroke="none" fill="#e3fff2"><g><path d="M 22 10L 154 10C 154 10 166 10 166 22L 166 52C 166 52 166 64 154 64L 22 64C 22 64 10 64 10 52L 10 22C 10 22 10 10 22 10"></path></g></g></g><g id="g-root-ro_1ut1vmxws9pn1-fill" data-item-order="-7128" transform="translate(555, 207)"><g id="ro_1ut1vmxws9pn1-fill" stroke="none" fill="#faf0ff"><g><path d="M 22 10L 130 10C 130 10 142 10 142 22L 142 52C 142 52 142 64 130 64L 22 64C 22 64 10 64 10 52L 10 22C 10 22 10 10 22 10"></path></g></g></g><g id="g-root-cu_1cuvxwpx2ez2b-fill" data-item-order="0" transform="translate(507, 84)"></g><g id="g-root-tx_uiuxdesi_1cymm3tx229s8-fill" data-item-order="0" transform="translate(603, 309)"><g id="tx_uiuxdesi_1cymm3tx229s8-fill" stroke="none" fill="#484848"><g><text style="font: 20px Roboto, sans-serif; white-space: pre;" font-size="20px" font-family="Roboto, sans-serif"><tspan x="16.84" y="34" dominant-baseline="ideographic">UI/UX Design</tspan></text></g></g></g><g id="g-root-tx_reactjs_4loj1lx228zm-fill" data-item-order="0" transform="translate(147, 327)"><g id="tx_reactjs_4loj1lx228zm-fill" stroke="none" fill="#484848"><g><text style="font: 20px Roboto, sans-serif; white-space: pre;" font-size="20px" font-family="Roboto, sans-serif"><tspan x="15.13" y="34" dominant-baseline="ideographic">ReactJS</tspan></text></g></g></g><g id="g-root-tx_qualitya_1hfp2ehx22b63-fill" data-item-order="0" transform="translate(63, 105)"><g id="tx_qualitya_1hfp2ehx22b63-fill" stroke="none" fill="#484848"><g><text style="font: 20px Roboto, sans-serif; white-space: pre;" font-size="20px" font-family="Roboto, sans-serif"><tspan x="13.77" y="34" dominant-baseline="ideographic">Quality Assurance</tspan></text></g></g></g><g id="g-root-cu_8zms89x2exa9-fill" data-item-order="0" transform="translate(237, 93)"></g><g id="g-root-cu_1lu9so9x2ewb0-fill" data-item-order="0" transform="translate(237, 93)"></g><g id="g-root-cu_18itaaxx2exvy-fill" data-item-order="0" transform="translate(237, 93)"></g><g id="g-root-tx_wirefram_1upa5ihx22akv-fill" data-item-order="0" transform="translate(603, 273)"><g id="tx_wirefram_1upa5ihx22akv-fill" stroke="none" fill="#484848"><g><text style="font: 20px Roboto, sans-serif; white-space: pre;" font-size="20px" font-family="Roboto, sans-serif"><tspan x="12.75" y="34" dominant-baseline="ideographic">Wireframes</tspan></text></g></g></g><g id="g-root-cu_4hxuuhx2ey9z-fill" data-item-order="0" transform="translate(417, 282)"></g><g id="g-root-cu_znsr55x2ewao-fill" data-item-order="0" transform="translate(315, 429)"></g><g id="g-root-cu_dfgacpx2ewhz-fill" data-item-order="0" transform="translate(237, 279)"></g><g id="g-root-cu_1q87vjdx2ewi2-fill" data-item-order="0" transform="translate(579, 111)"></g><g id="g-root-cu_8xrcyxx2exho-fill" data-item-order="0" transform="translate(279, 66)"></g><g id="g-root-cu_qqabmxx2ey2s-fill" data-item-order="0" transform="translate(237, 279)"></g><g id="g-root-tx_django_mcc2g9x229s9-fill" data-item-order="0" transform="translate(159, 291)"><g id="tx_django_mcc2g9x229s9-fill" stroke="none" fill="#484848"><g><text style="font: 20px Roboto, sans-serif; white-space: pre;" font-size="20px" font-family="Roboto, sans-serif"><tspan x="14.76" y="34" dominant-baseline="ideographic">Django</tspan></text></g></g></g><g id="g-root-tx_clientre_18gxoq1x22bk5-fill" data-item-order="0" transform="translate(603, 123)"><g id="tx_clientre_18gxoq1x22bk5-fill" stroke="none" fill="#484848"><g><text style="font: 20px Roboto, sans-serif; white-space: pre;" font-size="20px" font-family="Roboto, sans-serif"><tspan x="16.33" y="34" dominant-baseline="ideographic">Client Requirements</tspan></text></g></g></g><g id="g-root-tx_bugfixin_zp1iztx22adg-fill" data-item-order="0" transform="translate(123, 141)"><g id="tx_bugfixin_zp1iztx22adg-fill" stroke="none" fill="#484848"><g><text style="font: 20px Roboto, sans-serif; white-space: pre;" font-size="20px" font-family="Roboto, sans-serif"><tspan x="17.67" y="34" dominant-baseline="ideographic">Bug Fixing</tspan></text></g></g></g><g id="g-root-cu_141qu09x2ewhu-fill" data-item-order="0" transform="translate(579, 261)"></g><g id="g-root-tx_launch_mdl0mhx22byd-fill" data-item-order="0" transform="translate(159, 177)"><g id="tx_launch_mdl0mhx22byd-fill" stroke="none" fill="#484848"><g><text style="font: 20px Roboto, sans-serif; white-space: pre;" font-size="20px" font-family="Roboto, sans-serif"><tspan x="13.39" y="34" dominant-baseline="ideographic">Launch</tspan></text></g></g></g><g id="g-root-cu_18gxv1lx2eyvb-fill" data-item-order="0" transform="translate(579, 261)"></g><g id="g-root-tx_iterativ_1hhkhntx22a6f-fill" data-item-order="0" transform="translate(339, 477)"><g id="tx_iterativ_1hhkhntx22a6f-fill" stroke="none" fill="#484848"><g><text style="font: 20px Roboto, sans-serif; white-space: pre;" font-size="20px" font-family="Roboto, sans-serif"><tspan x="15.66" y="34" dominant-baseline="ideographic">Iterative Improvements</tspan></text></g></g></g><g id="g-root-cu_zk1wmhx2exhi-fill" data-item-order="0" transform="translate(507, 224)"></g><g id="g-root-tx_business_hun52hx22bk6-fill" data-item-order="0" transform="translate(603, 159)"><g id="tx_business_hun52hx22bk6-fill" stroke="none" fill="#484848"><g><text style="font: 20px Roboto, sans-serif; white-space: pre;" font-size="20px" font-family="Roboto, sans-serif"><tspan x="16.49" y="34" dominant-baseline="ideographic">Business Needs</tspan></text></g></g></g><g id="g-root-cu_hted7tx2ewox-fill" data-item-order="0" transform="translate(279, 224)"></g><g id="g-root-cu_qs5qw9x2ex3f-fill" data-item-order="0" transform="translate(315, 429)"></g><g id="g-root-tx_maintena_1useiy1x22bra-fill" data-item-order="0" transform="translate(339, 441)"><g id="tx_maintena_1useiy1x22bra-fill" stroke="none" fill="#484848"><g><text style="font: 20px Roboto, sans-serif; white-space: pre;" font-size="20px" font-family="Roboto, sans-serif"><tspan x="12.27" y="34" dominant-baseline="ideographic">Maintenance</tspan></text></g></g></g><g id="g-root-cu_1lsedexx2exad-fill" data-item-order="0" transform="translate(579, 111)"></g><g id="g-root-tx_ourdevel_v5hiztws9ona-fill" data-item-order="1000000000" transform="translate(351, 186)"><g id="tx_ourdevel_v5hiztws9ona-fill" stroke="none" fill="#484848"><g><text style="font: 20px Roboto, sans-serif; white-space: pre;" font-size="20px" font-family="Roboto, sans-serif"><tspan x="58.98" y="34" dominant-baseline="ideographic">Our </tspan><tspan x="16.24" y="58" dominant-baseline="ideographic">Development </tspan><tspan x="38.59" y="82" dominant-baseline="ideographic">Process</tspan></text></g></g></g><g id="g-root-mode_hyev6xws9qmc-fill" data-item-order="1000000000" transform="translate(567, 219)"></g><g id="g-root-tx_developm_8zmp2hx2ar60-fill" data-item-order="1000000000" transform="translate(99, 240)"><g id="tx_developm_8zmp2hx2ar60-fill" stroke="none" fill="#92bd39"><g><text style="font: 20px Roboto, sans-serif; white-space: pre;" font-size="20px" font-family="Roboto, sans-serif"><tspan x="17.49" y="34" dominant-baseline="ideographic">Development</tspan></text></g></g></g><g id="g-root-tx_design_18kpeuhws9qmb-fill" data-item-order="1000000000" transform="translate(603, 222)"><g id="tx_design_18kpeuhws9qmb-fill" stroke="none" fill="#ba5de5"><g><text style="font: 20px Roboto, sans-serif; white-space: pre;" font-size="20px" font-family="Roboto, sans-serif"><tspan x="15.4" y="34" dominant-baseline="ideographic">Design</tspan></text></g></g></g><g id="g-root-mana_1q8uiy1ws9q13-fill" data-item-order="1000000000" transform="translate(393, 132)"></g><g id="g-root-tx_discover_m7zcyxws9r0m-fill" data-item-order="1000000000" transform="translate(603, 72)"><g id="tx_discover_m7zcyxws9r0m-fill" stroke="none" fill="#3cc583"><g><text style="font: 20px Roboto, sans-serif; white-space: pre;" font-size="20px" font-family="Roboto, sans-serif"><tspan x="14.69" y="34" dominant-baseline="ideographic">Discovery</tspan></text></g></g></g><g id="g-root-1_ddkortx22a6b-fill" data-item-order="1000000000" transform="translate(303, 387)"></g><g id="g-root-tx_postlaun_v4886hx22ayy-fill" data-item-order="1000000000" transform="translate(339, 390)"><g id="tx_postlaun_v4886hx22ayy-fill" stroke="none" fill="#e55753"><g><text style="font: 20px Roboto, sans-serif; white-space: pre;" font-size="20px" font-family="Roboto, sans-serif"><tspan x="12.48" y="34" dominant-baseline="ideographic">Post-Launch Support</tspan></text></g></g></g><g id="g-root-docu_1umsvahws9qtj-fill" data-item-order="1000000000" transform="translate(567, 69)"></g><g id="g-root-go_4gowo9x2ew3l-fill" data-item-order="1000000000" transform="translate(237, 51)"></g><g id="g-root-tx_testingd_hrixyhx2exog-fill" data-item-order="1000000000" transform="translate(27, 54)"><g id="tx_testingd_hrixyhx2exog-fill" stroke="none" fill="#de58a9"><g><text style="font: 20px Roboto, sans-serif; white-space: pre;" font-size="20px" font-family="Roboto, sans-serif"><tspan x="14.89" y="34" dominant-baseline="ideographic">Testing &amp; Deployment</tspan></text></g></g></g><g id="g-root-4_1heg7e1x2aqyx-fill" data-item-order="1000000000" transform="translate(237, 237)"></g><g id="g-root-ro_1cy0hntws9og8-stroke" data-item-order="-31320" transform="translate(327, 108)"><g id="ro_1cy0hntws9og8-stroke" fill="none" stroke-linecap="round" stroke-linejoin="round" stroke-miterlimit="4" stroke="#484848" stroke-width="2"><g><path d="M 34 10L 166 10C 166 10 190 10 190 34L 190 160C 190 160 190 184 166 184L 34 184C 34 184 10 184 10 160L 10 34C 10 34 10 10 34 10"></path></g></g></g><g id="g-root-ro_1q6cga1x2exhe-stroke" data-item-order="-14256" transform="translate(15, 39)"><g id="ro_1q6cga1x2exhe-stroke" fill="none" stroke-linecap="round" stroke-linejoin="round" stroke-miterlimit="4" stroke="#de58a9" stroke-width="2"><g><path d="M 22 10L 262 10C 262 10 274 10 274 22L 274 52C 274 52 274 64 262 64L 22 64C 22 64 10 64 10 52L 10 22C 10 22 10 10 22 10"></path></g></g></g><g id="g-root-ro_1q87p7tx22970-stroke" data-item-order="-13608" transform="translate(291, 375)"><g id="ro_1q87p7tx22970-stroke" fill="none" stroke-linecap="round" stroke-linejoin="round" stroke-miterlimit="4" stroke="#e55753" stroke-width="2"><g><path d="M 22 10L 250 10C 250 10 262 10 262 22L 262 52C 262 52 262 64 250 64L 22 64C 22 64 10 64 10 52L 10 22C 10 22 10 10 22 10"></path></g></g></g><g id="g-root-ro_143m63tx2ape2-stroke" data-item-order="-10368" transform="translate(87, 225)"><g id="ro_143m63tx2ape2-stroke" fill="none" stroke-linecap="round" stroke-linejoin="round" stroke-miterlimit="4" stroke="#92bd39" stroke-width="2"><g><path d="M 22 10L 190 10C 190 10 202 10 202 22L 202 52C 202 52 202 64 190 64L 22 64C 22 64 10 64 10 52L 10 22C 10 22 10 10 22 10"></path></g></g></g><g id="g-root-ro_1cw5bvtws9q0w-stroke" data-item-order="-8424" transform="translate(555, 57)"><g id="ro_1cw5bvtws9q0w-stroke" fill="none" stroke-linecap="round" stroke-linejoin="round" stroke-miterlimit="4" stroke="#3cc583" stroke-width="2"><g><path d="M 22 10L 154 10C 154 10 166 10 166 22L 166 52C 166 52 166 64 154 64L 22 64C 22 64 10 64 10 52L 10 22C 10 22 10 10 22 10"></path></g></g></g><g id="g-root-ro_1ut1vmxws9pn1-stroke" data-item-order="-7128" transform="translate(555, 207)"><g id="ro_1ut1vmxws9pn1-stroke" fill="none" stroke-linecap="round" stroke-linejoin="round" stroke-miterlimit="4" stroke="#ba5de5" stroke-width="2"><g><path d="M 22 10L 130 10C 130 10 142 10 142 22L 142 52C 142 52 142 64 130 64L 22 64C 22 64 10 64 10 52L 10 22C 10 22 10 10 22 10"></path></g></g></g><g id="g-root-cu_1cuvxwpx2ez2b-stroke" data-item-order="0" transform="translate(507, 84)"><g id="cu_1cuvxwpx2ez2b-stroke" fill="none" stroke-linecap="round" stroke-linejoin="round" stroke-miterlimit="4" stroke="#969696" stroke-width="2" stroke-dasharray="5.0, 7.0"><g><path d="M 10 92L 13 92L 13.1 92C 24.642748 92.000003 33.999998 82.642755 33.999998 71.100003L 34 71L 34 30.9C 33.999999 19.357249 43.357248 10.000001 54.899999 10.000002L 55 10L 58 10"></path></g></g></g><g id="g-root-tx_uiuxdesi_1cymm3tx229s8-stroke" data-item-order="0" transform="translate(603, 309)"></g><g id="g-root-tx_reactjs_4loj1lx228zm-stroke" data-item-order="0" transform="translate(147, 327)"></g><g id="g-root-tx_qualitya_1hfp2ehx22b63-stroke" data-item-order="0" transform="translate(63, 105)"></g><g id="g-root-cu_8zms89x2exa9-stroke" data-item-order="0" transform="translate(237, 93)"><g id="cu_8zms89x2exa9-stroke" fill="none" stroke-linecap="round" stroke-linejoin="round" stroke-miterlimit="4" stroke="#969696" stroke-width="2" stroke-dasharray="5.0, 7.0"><g><path d="M 28 10L 28 22L 28 34L 19 34L 10 34"></path></g></g></g><g id="g-root-cu_1lu9so9x2ewb0-stroke" data-item-order="0" transform="translate(237, 93)"><g id="cu_1lu9so9x2ewb0-stroke" fill="none" stroke-linecap="round" stroke-linejoin="round" stroke-miterlimit="4" stroke="#969696" stroke-width="2" stroke-dasharray="5.0, 7.0"><g><path d="M 28 10L 28 40L 28 70L 19 70L 10 70"></path></g></g></g><g id="g-root-cu_18itaaxx2exvy-stroke" data-item-order="0" transform="translate(237, 93)"><g id="cu_18itaaxx2exvy-stroke" fill="none" stroke-linecap="round" stroke-linejoin="round" stroke-miterlimit="4" stroke="#969696" stroke-width="2" stroke-dasharray="5.0, 7.0"><g><path d="M 28 10L 28 22L 28 94C 28.000002 100.627415 22.627419 105.999998 16.000002 105.999998L 15.9 106L 10 106"></path></g></g></g><g id="g-root-tx_wirefram_1upa5ihx22akv-stroke" data-item-order="0" transform="translate(603, 273)"></g><g id="g-root-cu_4hxuuhx2ey9z-stroke" data-item-order="0" transform="translate(417, 282)"><g id="cu_4hxuuhx2ey9z-stroke" fill="none" stroke-linecap="round" stroke-linejoin="round" stroke-miterlimit="4" stroke="#969696" stroke-width="2" stroke-dasharray="5.0, 7.0"><g><path d="M 10 10L 10 56.5L 10 103"></path></g></g></g><g id="g-root-cu_znsr55x2ewao-stroke" data-item-order="0" transform="translate(315, 429)"><g id="cu_znsr55x2ewao-stroke" fill="none" stroke-linecap="round" stroke-linejoin="round" stroke-miterlimit="4" stroke="#969696" stroke-width="2" stroke-dasharray="5.0, 7.0"><g><path d="M 10 10L 10 22L 10 34L 19 34L 28 34"></path></g></g></g><g id="g-root-cu_dfgacpx2ewhz-stroke" data-item-order="0" transform="translate(237, 279)"><g id="cu_dfgacpx2ewhz-stroke" fill="none" stroke-linecap="round" stroke-linejoin="round" stroke-miterlimit="4" stroke="#969696" stroke-width="2" stroke-dasharray="5.0, 7.0"><g><path d="M 28 10L 28 17.5L 28 58C 27.999999 64.627415 22.627416 69.999998 16 69.999998L 15.9 70L 10 70"></path></g></g></g><g id="g-root-cu_1q87vjdx2ewi2-stroke" data-item-order="0" transform="translate(579, 111)"><g id="cu_1q87vjdx2ewi2-stroke" fill="none" stroke-linecap="round" stroke-linejoin="round" stroke-miterlimit="4" stroke="#969696" stroke-width="2" stroke-dasharray="5.0, 7.0"><g><path d="M 10 10L 10 22L 10 34L 19 34L 28 34"></path></g></g></g><g id="g-root-cu_8xrcyxx2exho-stroke" data-item-order="0" transform="translate(279, 66)"><g id="cu_8xrcyxx2exho-stroke" fill="none" stroke-linecap="round" stroke-linejoin="round" stroke-miterlimit="4" stroke="#969696" stroke-width="2" stroke-dasharray="5.0, 7.0"><g><path d="M 58 110L 55 110L 54.9 110C 43.357245 109.999995 33.999997 100.642746 33.999997 89.099996L 34 89L 34 30.9C 33.999998 19.357248 24.64275 10 13.1 10L 13 10L 10 10"></path></g></g></g><g id="g-root-cu_qqabmxx2ey2s-stroke" data-item-order="0" transform="translate(237, 279)"><g id="cu_qqabmxx2ey2s-stroke" fill="none" stroke-linecap="round" stroke-linejoin="round" stroke-miterlimit="4" stroke="#969696" stroke-width="2" stroke-dasharray="5.0, 7.0"><g><path d="M 28 10L 28 22L 28 34L 19 34L 10 34"></path></g></g></g><g id="g-root-tx_django_mcc2g9x229s9-stroke" data-item-order="0" transform="translate(159, 291)"></g><g id="g-root-tx_clientre_18gxoq1x22bk5-stroke" data-item-order="0" transform="translate(603, 123)"></g><g id="g-root-tx_bugfixin_zp1iztx22adg-stroke" data-item-order="0" transform="translate(123, 141)"></g><g id="g-root-cu_141qu09x2ewhu-stroke" data-item-order="0" transform="translate(579, 261)"><g id="cu_141qu09x2ewhu-stroke" fill="none" stroke-linecap="round" stroke-linejoin="round" stroke-miterlimit="4" stroke="#969696" stroke-width="2" stroke-dasharray="5.0, 7.0"><g><path d="M 10 10L 10 17.5L 10 58C 10.000002 64.627417 15.372585 70 22.000002 69.999999L 22.1 70L 28 70"></path></g></g></g><g id="g-root-tx_launch_mdl0mhx22byd-stroke" data-item-order="0" transform="translate(159, 177)"></g><g id="g-root-cu_18gxv1lx2eyvb-stroke" data-item-order="0" transform="translate(579, 261)"><g id="cu_18gxv1lx2eyvb-stroke" fill="none" stroke-linecap="round" stroke-linejoin="round" stroke-miterlimit="4" stroke="#969696" stroke-width="2" stroke-dasharray="5.0, 7.0"><g><path d="M 10 10L 10 22L 10 34L 19 34L 28 34"></path></g></g></g><g id="g-root-tx_iterativ_1hhkhntx22a6f-stroke" data-item-order="0" transform="translate(339, 477)"></g><g id="g-root-cu_zk1wmhx2exhi-stroke" data-item-order="0" transform="translate(507, 224)"><g id="cu_zk1wmhx2exhi-stroke" fill="none" stroke-linecap="round" stroke-linejoin="round" stroke-miterlimit="4" stroke="#969696" stroke-width="2" stroke-dasharray="5.0, 7.0"><g><path d="M 10 10L 13 10L 13.1 10C 16.360602 10.01615 19.962923 10.453815 23.800001 11.3C 26.03452 11.745014 29.638043 13.052174 34 15.000001C 38.361958 16.947827 41.965481 18.254987 44.200001 18.700001C 48.03708 19.546186 51.639401 19.983851 54.900002 20.000001L 55 20L 58 20"></path></g></g></g><g id="g-root-tx_business_hun52hx22bk6-stroke" data-item-order="0" transform="translate(603, 159)"></g><g id="g-root-cu_hted7tx2ewox-stroke" data-item-order="0" transform="translate(279, 224)"><g id="cu_hted7tx2ewox-stroke" fill="none" stroke-linecap="round" stroke-linejoin="round" stroke-miterlimit="4" stroke="#969696" stroke-width="2" stroke-dasharray="5.0, 7.0"><g><path d="M 58 10L 55 10L 54.9 10C 50.870243 9.983299 46.497953 11.301926 42.300001 13.8C 39.78535 15.340094 36.796876 19.012676 34.000001 24C 31.203126 28.987325 28.214652 32.659907 25.700001 34.2C 21.502047 36.698075 17.129757 38.016702 13.1 38.000002L 13 38L 10 38"></path></g></g></g><g id="g-root-cu_qs5qw9x2ex3f-stroke" data-item-order="0" transform="translate(315, 429)"><g id="cu_qs5qw9x2ex3f-stroke" fill="none" stroke-linecap="round" stroke-linejoin="round" stroke-miterlimit="4" stroke="#969696" stroke-width="2" stroke-dasharray="5.0, 7.0"><g><path d="M 10 10L 10 17.5L 10 58C 10.000002 64.627417 15.372585 70 22.000002 69.999999L 22.1 70L 28 70"></path></g></g></g><g id="g-root-tx_maintena_1useiy1x22bra-stroke" data-item-order="0" transform="translate(339, 441)"></g><g id="g-root-cu_1lsedexx2exad-stroke" data-item-order="0" transform="translate(579, 111)"><g id="cu_1lsedexx2exad-stroke" fill="none" stroke-linecap="round" stroke-linejoin="round" stroke-miterlimit="4" stroke="#969696" stroke-width="2" stroke-dasharray="5.0, 7.0"><g><path d="M 10 10L 10 17.5L 10 58C 10.000002 64.627417 15.372585 70 22.000002 69.999999L 22.1 70L 28 70"></path></g></g></g><g id="g-root-tx_ourdevel_v5hiztws9ona-stroke" data-item-order="1000000000" transform="translate(351, 186)"></g><g id="g-root-mode_hyev6xws9qmc-stroke" data-item-order="1000000000" transform="translate(567, 219)"><g id="mode_hyev6xws9qmc-stroke" fill="none" stroke-linecap="round" stroke-linejoin="round" stroke-miterlimit="4" stroke="#ba5de5" stroke-width="2"><g><path d="M 37.5 21.875C 36.349998 21.875 35.924999 18.725 35.412498 17.700001C 34.778515 16.430084 33.481873 15.626942 32.0625 15.625L 17.9375 15.625C 16.518126 15.626942 15.221486 16.430084 14.5875 17.700001C 14.075 18.75 13.65 21.875 12.5 21.875M 19.387501 31.849998L 18.125 34.375M 30.612499 31.849998L 31.875 34.375M 23.125 25.625L 23.125 20.625C 23.127018 20.427807 23.033966 20.241703 22.875 20.125C 22.719444 20.003475 22.517799 19.957647 22.324999 20C 20.805882 20.437565 19.194118 20.437565 17.674999 20C 17.485891 19.950565 17.284605 19.987162 17.125 20.099998C 16.966034 20.216702 16.872982 20.402805 16.875 20.6L 16.875 23.75M 33.125 23.75L 33.125 20.625C 33.127018 20.427807 33.033966 20.241703 32.875 20.125C 32.719444 20.003475 32.517799 19.957647 32.324997 20C 30.805882 20.437565 29.194118 20.437565 27.674999 20C 27.485889 19.950565 27.284603 19.987162 27.124998 20.099998C 26.966034 20.216702 26.872982 20.402805 26.875 20.6L 26.875 25.599998M 38.037498 21.950001C 37.048359 21.664579 36.011841 22.218868 35.700001 23.199999C 35.700001 23.4 34.137501 28.125 30 28.125L 20 28.125C 15.8625 28.125 14.35 23.4 14.3 23.200001C 13.988159 22.218868 12.951641 21.664579 11.9625 21.949999C 10.981367 22.261841 10.427079 23.298357 10.7125 24.287498C 10.8 24.6 13.0625 31.875 20 31.875L 30 31.875C 36.9375 31.875 39.200001 24.6 39.299999 24.2875C 39.584351 23.294708 39.023651 22.256582 38.037498 21.949999Z"></path></g></g></g><g id="g-root-tx_developm_8zmp2hx2ar60-stroke" data-item-order="1000000000" transform="translate(99, 240)"></g><g id="g-root-tx_design_18kpeuhws9qmb-stroke" data-item-order="1000000000" transform="translate(603, 222)"></g><g id="g-root-mana_1q8uiy1ws9q13-stroke" data-item-order="1000000000" transform="translate(393, 132)"><g id="mana_1q8uiy1ws9q13-stroke" fill="none" stroke-linecap="round" stroke-linejoin="round" stroke-miterlimit="4" stroke="#484848" stroke-width="2"><g><path d="M 12 34L 16 34M 24 34L 34 34M 42 34L 56 34M 51.953999 30L 56 34L 51.953999 38M 16 34C 16 36.209137 17.790861 38 20 38C 22.209139 38 24 36.209137 24 34C 24 31.790861 22.209139 30 20 30C 17.790861 30 16 31.790861 16 34M 34 34C 34 36.209137 35.790863 38 38 38C 40.209137 38 42 36.209137 42 34C 42 31.790861 40.209137 30 38 30C 35.790863 30 34 31.790861 34 34M 38 30L 38 23M 20 45L 20 38M 32 11L 44 11C 44 11 46 11 46 13L 46 21C 46 21 46 23 44 23L 32 23C 32 23 30 23 30 21L 30 13C 30 13 30 11 32 11M 14 45L 26 45C 26 45 28 45 28 47L 28 55C 28 55 28 57 26 57L 14 57C 14 57 12 57 12 55L 12 47C 12 47 12 45 14 45"></path></g></g></g><g id="g-root-tx_discover_m7zcyxws9r0m-stroke" data-item-order="1000000000" transform="translate(603, 72)"></g><g id="g-root-1_ddkortx22a6b-stroke" data-item-order="1000000000" transform="translate(303, 387)"><g id="1_ddkortx22a6b-stroke" fill="none" stroke-linecap="round" stroke-linejoin="round" stroke-miterlimit="4" stroke="#e55753" stroke-width="2"><g><path d="M 39.357498 20.625L 39.357498 10.625C 35.90572 10.625 33.107498 13.423221 33.107498 16.875L 33.107498 18.125L 39.357498 18.125M 31.2325 20.625L 24.3575 20.625L 28.7325 16.764999C 29.966249 15.67625 30.908749 14.915 30.545002 13.125C 30.225517 11.551629 28.765791 10.476332 27.16844 10.63768C 25.571089 10.799028 24.355886 12.144522 24.3575 13.75M 23.565001 39.145C 20.564999 36.137501 21.62875 33.7925 23.2575 32.16375L 24.30875 31.112499C 25.355345 30.065956 27.052156 30.065956 28.098751 31.112501L 32.647499 35.662502C 33.01894 36.033222 33.179844 36.565437 33.076004 37.079849C 32.972168 37.594265 32.617413 38.022388 32.131248 38.219997C 26.306047 40.600803 19.621109 39.254715 15.171322 34.804928C 10.721535 30.355141 9.375447 23.670202 11.75625 17.844999C 11.953859 17.358837 12.381986 17.004082 12.896399 16.900244C 13.410811 16.796406 13.943027 16.95731 14.31375 17.328751L 18.866249 21.875C 19.912794 22.921595 19.912794 24.618406 18.866249 25.665001L 17.815001 26.716249C 16.190001 28.341251 13.841249 29.408751 10.83375 26.408751"></path></g></g></g><g id="g-root-tx_postlaun_v4886hx22ayy-stroke" data-item-order="1000000000" transform="translate(339, 390)"></g><g id="g-root-docu_1umsvahws9qtj-stroke" data-item-order="1000000000" transform="translate(567, 69)"><g id="docu_1umsvahws9qtj-stroke" fill="none" stroke-linecap="round" stroke-linejoin="round" stroke-miterlimit="4" stroke="#3cc583" stroke-width="2"><g><path d="M 29.77125 30.786249C 29.77125 31.840422 30.625824 32.695 31.68 32.695C 32.734173 32.695 33.588749 31.840422 33.588749 30.786249C 33.588749 29.732077 32.734173 28.877499 31.68 28.877499C 30.625824 28.877499 29.77125 29.732077 29.77125 30.786249M 33.302502 23.4025L 33.864998 25.25C 34.056198 25.88726 34.709137 26.266773 35.357498 26.1175L 37.232498 25.682499C 37.962337 25.514441 38.716293 25.843069 39.089973 26.492126C 39.463654 27.141182 39.369293 27.95821 38.857498 28.504999L 37.547501 29.918751C 37.09351 30.407507 37.09351 31.163746 37.547501 31.6525L 38.857502 33.06625C 39.369293 33.613037 39.463654 34.430069 39.089973 35.079124C 38.716293 35.72818 37.962337 36.056808 37.232498 35.888748L 35.357498 35.455002C 34.709503 35.305618 34.056721 35.684494 33.864998 36.321251L 33.302502 38.169998C 33.087086 38.885689 32.428028 39.37558 31.680624 39.37558C 30.93322 39.37558 30.274166 38.885689 30.05875 38.169998L 29.49625 36.321251C 29.304529 35.684494 28.651749 35.305618 28.00375 35.455002L 26.12875 35.888752C 25.399445 36.054848 24.647095 35.725845 24.273891 35.077621C 23.900688 34.429394 23.993921 33.613564 24.50375 33.06625L 25.815001 31.6525C 26.26778 31.163269 26.26778 30.407982 25.815001 29.918751L 24.5075 28.5C 23.997671 27.952688 23.904438 27.136856 24.277641 26.488632C 24.650845 25.840408 25.403194 25.511404 26.1325 25.677502L 28.0075 26.112501C 28.654404 26.262218 29.306721 25.88525 29.5 25.25L 30.0625 23.4025C 30.279949 22.689926 30.937485 22.203106 31.682501 22.203106C 32.427513 22.203106 33.085052 22.689926 33.302502 23.4025ZM 20.125 18.278749L 17.4125 21.895C 17.246559 22.116314 16.992912 22.254927 16.71703 22.275059C 16.441149 22.295193 16.170065 22.194876 15.97375 22L 14.5 20.525M 20.125 26.8675L 17.4125 30.483749C 17.246672 30.705441 16.992699 30.844135 16.716551 30.863808C 16.440401 30.883482 16.169331 30.782192 15.97375 30.58625L 14.5 29.11375M 26.408751 10.625C 26.830793 10.624823 27.235565 10.792578 27.533751 11.09125L 33.759998 17.31625C 34.057632 17.615028 34.224823 18.019522 34.224998 18.44125M 34.224998 18.577499L 27.862499 18.577499C 26.984365 18.577499 26.272499 17.865633 26.272499 16.987499L 26.272499 10.625M 23.41 39.256252L 12.59375 39.256252C 11.539577 39.256248 10.685 38.401672 10.685 37.3475L 10.685 12.53375C 10.685 11.479576 11.539577 10.625 12.59375 10.625L 26.1175 10.625M 22.647499 21.77375L 26.408751 21.77375"></path></g></g></g><g id="g-root-go_4gowo9x2ew3l-stroke" data-item-order="1000000000" transform="translate(237, 51)"><g id="go_4gowo9x2ew3l-stroke" fill="none" stroke-linecap="round" stroke-linejoin="round" stroke-miterlimit="4" stroke="#de58a9" stroke-width="2"><g><path d="M 10.625 11.875L 39.376251 11.875L 39.376251 29.375L 10.625 29.375ZM 10.625 10.625L 10.625 39.375M 39.376251 10.625L 39.376251 39.375M 30.625 22.5C 30.625 23.535534 29.785534 24.375 28.75 24.375C 27.714466 24.375 26.875 23.535534 26.875 22.5L 26.875 18.75C 26.875 17.714466 27.714466 16.875 28.75 16.875C 29.785534 16.875 30.625 17.714466 30.625 18.75ZM 23.125 19.375L 23.125 18.75C 23.125 17.714466 22.285534 16.875 21.25 16.875C 20.214466 16.875 19.375 17.714466 19.375 18.75L 19.375 22.5C 19.375 23.535534 20.214466 24.375 21.25 24.375C 22.285534 24.375 23.125 23.535534 23.125 22.5L 23.125 21.875L 21.875 21.875"></path></g></g></g><g id="g-root-tx_testingd_hrixyhx2exog-stroke" data-item-order="1000000000" transform="translate(27, 54)"></g><g id="g-root-4_1heg7e1x2aqyx-stroke" data-item-order="1000000000" transform="translate(237, 237)"><g id="4_1heg7e1x2aqyx-stroke" fill="none" stroke-linecap="round" stroke-linejoin="round" stroke-miterlimit="4" stroke="#92bd39" stroke-width="2"><g><path d="M 16.7675 16.875L 22.6 24.116251C 23.087976 24.604376 23.087976 25.395624 22.6 25.883749L 16.7675 33.125M 39.008751 24.116251C 39.496727 24.604376 39.496727 25.395624 39.008751 25.883749L 32.758751 32.758751C 32.524384 32.993187 32.206493 33.124928 31.875 33.125L 24.897501 33.125L 32.138752 25.883749C 32.626728 25.395624 32.626728 24.604376 32.138752 24.116251L 24.897501 16.875L 31.875 16.875C 32.206493 16.875071 32.524384 17.006813 32.758751 17.241251ZM 21.875 16.875L 16.7675 16.875M 21.875 33.125L 16.7675 33.125M 13.75 16.875L 10.625 16.875M 13.75 33.125L 10.625 33.125"></path></g></g></g></g></g></svg>