<?xml version="1.0" encoding="utf-8" standalone="yes"?>
<!DOCTYPE svg PUBLIC "-//W3C//DTD SVG 1.1//EN" "http://www.w3.org/Graphics/SVG/1.1/DTD/svg11.dtd">
<svg width="818" height="740" viewBox="0 0 818 740" style="fill:none;stroke:none;fill-rule:evenodd;clip-rule:evenodd;stroke-linecap:round;stroke-linejoin:round;stroke-miterlimit:1.5;" version="1.1" xmlns="http://www.w3.org/2000/svg" xmlns:xlink="http://www.w3.org/1999/xlink"><style id="fontImports">@import url("https://fonts.googleapis.com/css2?family=Roboto:wght@400;700&amp;display=block");</style><g id="items" style="isolation: isolate"><g id="blend" style="mix-blend-mode: normal"><g id="g-root-ro_1qf36ob1kdclcd-fill" data-item-order="0" transform="translate(123, 57)"></g><g id="g-root-ro_1cvhz7v1kdi9se-fill" data-item-order="0" transform="translate(285, 555)"></g><g id="g-root-cu_zkogwb1kddzpc-fill" data-item-order="0" transform="translate(309, 609)"></g><g id="g-root-tx_aws_1hbc0az1kcyk27-fill" data-item-order="0" transform="translate(591, 435)"><g id="tx_aws_1hbc0az1kcyk27-fill" stroke="none" fill="#484848"><g><text style="font: 20px Roboto, sans-serif; white-space: pre;" font-size="20px" font-family="Roboto, sans-serif"><tspan x="13" y="34" dominant-baseline="ideographic">AWS</tspan></text></g></g></g><g id="g-root-cu_4gozuz1kde0pb-fill" data-item-order="0" transform="translate(495, 66)"></g><g id="g-root-tx_celery_5v79n1kdjo5l-fill" data-item-order="0" transform="translate(171, 453)"><g id="tx_celery_5v79n1kdjo5l-fill" stroke="none" fill="#484848"><g><text style="font: 20px Roboto, sans-serif; white-space: pre;" font-size="20px" font-family="Roboto, sans-serif"><tspan x="12.24" y="34" dominant-baseline="ideographic">Celery</tspan></text></g></g></g><g id="g-root-ro_1lviqvf1kdb6dp-fill" data-item-order="0" transform="translate(543, 39)"></g><g id="g-root-cu_hs5i8b1kddz4c-fill" data-item-order="0" transform="translate(279, 84)"></g><g id="g-root-tx_expressj_1lw57yj1kdjmdm-fill" data-item-order="0" transform="translate(135, 489)"><g id="tx_expressj_1lw57yj1kdjmdm-fill" stroke="none" fill="#484848"><g><text style="font: 20px Roboto, sans-serif; white-space: pre;" font-size="20px" font-family="Roboto, sans-serif"><tspan x="15.27" y="34" dominant-baseline="ideographic">Expressjs</tspan></text></g></g></g><g id="g-root-cu_18eg1vv1kddz46-fill" data-item-order="0" transform="translate(411, 360)"></g><g id="g-root-cu_4kfudn1kddzie-fill" data-item-order="0" transform="translate(567, 93)"></g><g id="g-root-cu_1qa3dzf1kde0w9-fill" data-item-order="0" transform="translate(567, 93)"></g><g id="g-root-cu_1cz9cp71kddzbf-fill" data-item-order="0" transform="translate(567, 93)"></g><g id="g-root-cu_18jfukr1kde03p-fill" data-item-order="0" transform="translate(567, 93)"></g><g id="g-root-cu_v7zc7f1kde1on-fill" data-item-order="0" transform="translate(567, 93)"></g><g id="g-root-tx_postgres_145hojv1kdjlkz-fill" data-item-order="0" transform="translate(111, 123)"><g id="tx_postgres_145hojv1kdjlkz-fill" stroke="none" fill="#484848"><g><text style="font: 20px Roboto, sans-serif; white-space: pre;" font-size="20px" font-family="Roboto, sans-serif"><tspan x="17.2" y="34" dominant-baseline="ideographic">PostgreSQL</tspan></text></g></g></g><g id="g-root-cu_1hd7fkb1kddzij-fill" data-item-order="0" transform="translate(237, 111)"></g><g id="g-root-cu_141qx6z1kde13i-fill" data-item-order="0" transform="translate(237, 111)"></g><g id="g-root-cu_v6qe171kddzi8-fill" data-item-order="0" transform="translate(237, 111)"></g><g id="g-root-cu_mb3dsb1kde0ay-fill" data-item-order="0" transform="translate(237, 111)"></g><g id="g-root-cu_8zmvez1kde1vw-fill" data-item-order="0" transform="translate(237, 111)"></g><g id="g-root-tx_expo_1upwsy31kdjmkl-fill" data-item-order="0" transform="translate(333, 621)"><g id="tx_expo_1upwsy31kdjmkl-fill" stroke="none" fill="#484848"><g><text style="font: 20px Roboto, sans-serif; white-space: pre;" font-size="20px" font-family="Roboto, sans-serif"><tspan x="12.03" y="34" dominant-baseline="ideographic">Expo</tspan></text></g></g></g><g id="g-root-tx_reactnat_1hegakr1kdjo5i-fill" data-item-order="0" transform="translate(333, 657)"><g id="tx_reactnat_1hegakr1kdjo5i-fill" stroke="none" fill="#484848"><g><text style="font: 20px Roboto, sans-serif; white-space: pre;" font-size="20px" font-family="Roboto, sans-serif"><tspan x="13.75" y="34" dominant-baseline="ideographic">React Native</tspan></text></g></g></g><g id="g-root-tx_git_i09l6z1kdjmyw-fill" data-item-order="0" transform="translate(591, 105)"><g id="tx_git_i09l6z1kdjmyw-fill" stroke="none" fill="#484848"><g><text style="font: 20px Roboto, sans-serif; white-space: pre;" font-size="20px" font-family="Roboto, sans-serif"><tspan x="15.48" y="34" dominant-baseline="ideographic">Git</tspan></text></g></g></g><g id="g-root-cu_dhbssr1kde0w4-fill" data-item-order="0" transform="translate(567, 351)"></g><g id="g-root-cu_4losjv1kde1ou-fill" data-item-order="0" transform="translate(567, 351)"></g><g id="g-root-tx_githubac_9m1sb1kdjm69-fill" data-item-order="0" transform="translate(591, 141)"><g id="tx_githubac_9m1sb1kdjm69-fill" stroke="none" fill="#484848"><g><text style="font: 20px Roboto, sans-serif; white-space: pre;" font-size="20px" font-family="Roboto, sans-serif"><tspan x="14.89" y="34" dominant-baseline="ideographic">GitHub Actions</tspan></text></g></g></g><g id="g-root-tx_mysql_qu166j1kdjn5w-fill" data-item-order="0" transform="translate(159, 159)"><g id="tx_mysql_qu166j1kdjn5w-fill" stroke="none" fill="#484848"><g><text style="font: 20px Roboto, sans-serif; white-space: pre;" font-size="20px" font-family="Roboto, sans-serif"><tspan x="14.33" y="34" dominant-baseline="ideographic">MySQL</tspan></text></g></g></g><g id="g-root-cu_1ursbd71kddzwg-fill" data-item-order="0" transform="translate(567, 351)"></g><g id="g-root-cu_1lw5b4b1kde0p6-fill" data-item-order="0" transform="translate(567, 351)"></g><g id="g-root-tx_jenkins_1lz9le31kdjnk2-fill" data-item-order="0" transform="translate(591, 177)"><g id="tx_jenkins_1lz9le31kdjnk2-fill" stroke="none" fill="#484848"><g><text style="font: 20px Roboto, sans-serif; white-space: pre;" font-size="20px" font-family="Roboto, sans-serif"><tspan x="17.47" y="34" dominant-baseline="ideographic">Jenkins</tspan></text></g></g></g><g id="g-root-tx_sqlite_dj74wb1kdjll1-fill" data-item-order="0" transform="translate(171, 195)"><g id="tx_sqlite_dj74wb1kdjll1-fill" stroke="none" fill="#484848"><g><text style="font: 20px Roboto, sans-serif; white-space: pre;" font-size="20px" font-family="Roboto, sans-serif"><tspan x="14.94" y="34" dominant-baseline="ideographic">Sqlite</tspan></text></g></g></g><g id="g-root-tx_django_v7z91n1kdjndb-fill" data-item-order="0" transform="translate(159, 381)"><g id="tx_django_v7z91n1kdjndb-fill" stroke="none" fill="#484848"><g><text style="font: 20px Roboto, sans-serif; white-space: pre;" font-size="20px" font-family="Roboto, sans-serif"><tspan x="14.76" y="34" dominant-baseline="ideographic">Django</tspan></text></g></g></g><g id="g-root-ro_1qaqnij1k3edxg-fill" data-item-order="0" transform="translate(327, 210)"></g><g id="g-root-tx_docker_18eg1vv1kcyjgj-fill" data-item-order="0" transform="translate(591, 213)"><g id="tx_docker_18eg1vv1kcyjgj-fill" stroke="none" fill="#484848"><g><text style="font: 20px Roboto, sans-serif; white-space: pre;" font-size="20px" font-family="Roboto, sans-serif"><tspan x="14.84" y="34" dominant-baseline="ideographic">Docker</tspan></text></g></g></g><g id="g-root-tx_realm_18mk4uj1kdjmyu-fill" data-item-order="0" transform="translate(171, 231)"><g id="tx_realm_18mk4uj1kdjmyu-fill" stroke="none" fill="#484848"><g><text style="font: 20px Roboto, sans-serif; white-space: pre;" font-size="20px" font-family="Roboto, sans-serif"><tspan x="11.89" y="34" dominant-baseline="ideographic">Realm</tspan></text></g></g></g><g id="g-root-cu_m97yiz1kde1aa-fill" data-item-order="0" transform="translate(237, 369)"></g><g id="g-root-cu_8ydx8r1kddzph-fill" data-item-order="0" transform="translate(237, 369)"></g><g id="g-root-cu_2qwzv1kde0i7-fill" data-item-order="0" transform="translate(237, 369)"></g><g id="g-root-cu_1q87yq31kde1vl-fill" data-item-order="0" transform="translate(237, 369)"></g><g id="g-root-tx_gcp_18fp0231kcylmo-fill" data-item-order="0" transform="translate(591, 471)"><g id="tx_gcp_18fp0231kcylmo-fill" stroke="none" fill="#484848"><g><text style="font: 20px Roboto, sans-serif; white-space: pre;" font-size="20px" font-family="Roboto, sans-serif"><tspan x="14.37" y="34" dominant-baseline="ideographic">GCP</tspan></text></g></g></g><g id="g-root-cu_qssb631kddzb5-fill" data-item-order="0" transform="translate(567, 351)"></g><g id="g-root-tx_kubernet_v2zjij1kcyl1g-fill" data-item-order="0" transform="translate(591, 249)"><g id="tx_kubernet_v2zjij1kcyl1g-fill" stroke="none" fill="#484848"><g><text style="font: 20px Roboto, sans-serif; white-space: pre;" font-size="20px" font-family="Roboto, sans-serif"><tspan x="13.45" y="34" dominant-baseline="ideographic">Kubernetes</tspan></text></g></g></g><g id="g-root-tx_firebase_vbq3kb1kdjldz-fill" data-item-order="0" transform="translate(147, 267)"><g id="tx_firebase_vbq3kb1kdjldz-fill" stroke="none" fill="#484848"><g><text style="font: 20px Roboto, sans-serif; white-space: pre;" font-size="20px" font-family="Roboto, sans-serif"><tspan x="13.92" y="34" dominant-baseline="ideographic">Firebase</tspan></text></g></g></g><g id="g-root-tx_googlepl_8wihzf1kcyk99-fill" data-item-order="0" transform="translate(591, 363)"><g id="tx_googlepl_8wihzf1kcyk99-fill" stroke="none" fill="#484848"><g><text style="font: 20px Roboto, sans-serif; white-space: pre;" font-size="20px" font-family="Roboto, sans-serif"><tspan x="15.22" y="34" dominant-baseline="ideographic">Google Play Store</tspan></text></g></g></g><g id="g-root-cu_1um61l71kde22t-fill" data-item-order="0" transform="translate(309, 609)"></g><g id="g-root-ro_dfgadn1kdjnkc-fill" data-item-order="0" transform="translate(543, 297)"></g><g id="g-root-ro_1q7lhmz1kd5l3b-fill" data-item-order="0" transform="translate(15, 315)"></g><g id="g-root-cu_v2zjij1kde0p5-fill" data-item-order="0" transform="translate(279, 310)"></g><g id="g-root-tx_azure_v4uyrv1kcyk1t-fill" data-item-order="0" transform="translate(591, 507)"><g id="tx_azure_v4uyrv1kcyk1t-fill" stroke="none" fill="#484848"><g><text style="font: 20px Roboto, sans-serif; white-space: pre;" font-size="20px" font-family="Roboto, sans-serif"><tspan x="14.34" y="34" dominant-baseline="ideographic">Azure</tspan></text></g></g></g><g id="g-root-tx_appstore_1um61l71kcyln2-fill" data-item-order="0" transform="translate(591, 399)"><g id="tx_appstore_1um61l71kcyln2-fill" stroke="none" fill="#484848"><g><text style="font: 20px Roboto, sans-serif; white-space: pre;" font-size="20px" font-family="Roboto, sans-serif"><tspan x="14.35" y="34" dominant-baseline="ideographic">App Store</tspan></text></g></g></g><g id="g-root-cu_vhqj1kde1hm-fill" data-item-order="0" transform="translate(495, 310)"></g><g id="g-root-tx_djangore_dhbpmz1kdjmko-fill" data-item-order="0" transform="translate(15, 417)"><g id="tx_djangore_dhbpmz1kdjmko-fill" stroke="none" fill="#484848"><g><text style="font: 20px Roboto, sans-serif; white-space: pre;" font-size="20px" font-family="Roboto, sans-serif"><tspan x="12.13" y="34" dominant-baseline="ideographic">Django Rest Framework</tspan></text></g></g></g><g id="g-root-tx_database_qvwoln1kdckqr-fill" data-item-order="1000000000" transform="translate(135, 72)"><g id="tx_database_qvwoln1kdckqr-fill" stroke="none" fill="#de58a9"><g><text style="font: 20px Roboto, sans-serif; white-space: pre;" font-size="20px" font-family="Roboto, sans-serif"><tspan x="15.77" y="34" dominant-baseline="ideographic">Database</tspan></text></g></g></g><g id="g-root-2_4ot5zf1kdcn4c-fill" data-item-order="1000000000" transform="translate(237, 69)"></g><g id="g-root-tx_devopsan_dgp8jv1kdb6kr-fill" data-item-order="1000000000" transform="translate(591, 54)"><g id="tx_devopsan_dgp8jv1kdb6kr-fill" stroke="none" fill="#4e88e7"><g><text style="font: 20px Roboto, sans-serif; white-space: pre;" font-size="20px" font-family="Roboto, sans-serif"><tspan x="17.7" y="34" dominant-baseline="ideographic">DevOps and CI/CD</tspan></text></g></g></g><g id="g-root-tech_90a4y31k3eex7-fill" data-item-order="1000000000" transform="translate(387, 234)"></g><g id="g-root-tx_technolo_1qdv0y31k3d0y2-fill" data-item-order="1000000000" transform="translate(351, 288)"><g id="tx_technolo_1qdv0y31k3d0y2-fill" stroke="none" fill="#484848"><g><text style="font: 20px Roboto, sans-serif; white-space: pre;" font-size="20px" font-family="Roboto, sans-serif"><tspan x="16.27" y="34" dominant-baseline="ideographic">Technology </tspan><tspan x="42.57" y="58" dominant-baseline="ideographic">Stack</tspan></text></g></g></g><g id="g-root-exch_qqwsqz1kdjlzf-fill" data-item-order="1000000000" transform="translate(555, 309)"></g><g id="g-root-tx_backendd_m8lhfv1kd5ki5-fill" data-item-order="1000000000" transform="translate(45, 330)"><g id="tx_backendd_m8lhfv1kd5ki5-fill" stroke="none" fill="#92bd39"><g><text style="font: 20px Roboto, sans-serif; white-space: pre;" font-size="20px" font-family="Roboto, sans-serif"><tspan x="17.46" y="34" dominant-baseline="ideographic">API Development</tspan></text></g></g></g><g id="g-root-code_1unezrf1kd5kb2-fill" data-item-order="1000000000" transform="translate(219, 327)"></g><g id="g-root-tx_deployme_1cxdua31kdjmrm-fill" data-item-order="1000000000" transform="translate(591, 312)"><g id="tx_deployme_1cxdua31kdjmrm-fill" stroke="none" fill="#e55753"><g><text style="font: 20px Roboto, sans-serif; white-space: pre;" font-size="20px" font-family="Roboto, sans-serif"><tspan x="16.86" y="34" dominant-baseline="ideographic">Deployment</tspan></text></g></g></g><g id="g-root-app_4haxzf1kdi6tp-fill" data-item-order="1000000000" transform="translate(297, 567)"></g><g id="g-root-tx_mobilede_qnrzij1kdi7lw-fill" data-item-order="1000000000" transform="translate(333, 570)"><g id="tx_mobilede_qnrzij1kdi7lw-fill" stroke="none" fill="#3cc583"><g><text style="font: 20px Roboto, sans-serif; white-space: pre;" font-size="20px" font-family="Roboto, sans-serif"><tspan x="14.8" y="34" dominant-baseline="ideographic">Mobile Development</tspan></text></g></g></g><g id="g-root-code_58q6j1kdb85o-fill" data-item-order="1000000000" transform="translate(555, 51)"></g><g id="g-root-ro_1qf36ob1kdclcd-stroke" data-item-order="0" transform="translate(123, 57)"><g id="ro_1qf36ob1kdclcd-stroke" fill="none" stroke-linecap="round" stroke-linejoin="round" stroke-miterlimit="4" stroke="#de58a9" stroke-width="2"><g><path d="M 22 10L 154 10C 154 10 166 10 166 22L 166 52C 166 52 166 64 154 64L 22 64C 22 64 10 64 10 52L 10 22C 10 22 10 10 22 10"></path></g></g></g><g id="g-root-ro_1cvhz7v1kdi9se-stroke" data-item-order="0" transform="translate(285, 555)"><g id="ro_1cvhz7v1kdi9se-stroke" fill="none" stroke-linecap="round" stroke-linejoin="round" stroke-miterlimit="4" stroke="#3cc583" stroke-width="2"><g><path d="M 22 10L 250 10C 250 10 262 10 262 22L 262 52C 262 52 262 64 250 64L 22 64C 22 64 10 64 10 52L 10 22C 10 22 10 10 22 10"></path></g></g></g><g id="g-root-cu_zkogwb1kddzpc-stroke" data-item-order="0" transform="translate(309, 609)"><g id="cu_zkogwb1kddzpc-stroke" fill="none" stroke-linecap="round" stroke-linejoin="round" stroke-miterlimit="4" stroke="#969696" stroke-width="2" stroke-dasharray="5.0, 7.0"><g><path d="M 10 10L 10 17.5L 10 58C 10.000002 64.627417 15.372585 70 22.000002 69.999999L 22.1 70L 28 70"></path></g></g></g><g id="g-root-tx_aws_1hbc0az1kcyk27-stroke" data-item-order="0" transform="translate(591, 435)"></g><g id="g-root-cu_4gozuz1kde0pb-stroke" data-item-order="0" transform="translate(495, 66)"><g id="cu_4gozuz1kde0pb-stroke" fill="none" stroke-linecap="round" stroke-linejoin="round" stroke-miterlimit="4" stroke="#969696" stroke-width="2" stroke-dasharray="5.0, 7.0"><g><path d="M 10 204L 13 204L 13.1 204C 24.642754 204.000004 34.000003 194.642754 34.000002 183.100003L 34 183L 34 30.9C 33.999999 19.357249 43.357248 10.000001 54.899999 10.000002L 55 10L 58 10"></path></g></g></g><g id="g-root-tx_celery_5v79n1kdjo5l-stroke" data-item-order="0" transform="translate(171, 453)"></g><g id="g-root-ro_1lviqvf1kdb6dp-stroke" data-item-order="0" transform="translate(543, 39)"><g id="ro_1lviqvf1kdb6dp-stroke" fill="none" stroke-linecap="round" stroke-linejoin="round" stroke-miterlimit="4" stroke="#4e88e7" stroke-width="2"><g><path d="M 22 10L 238 10C 238 10 250 10 250 22L 250 52C 250 52 250 64 238 64L 22 64C 22 64 10 64 10 52L 10 22C 10 22 10 10 22 10"></path></g></g></g><g id="g-root-cu_hs5i8b1kddz4c-stroke" data-item-order="0" transform="translate(279, 84)"><g id="cu_hs5i8b1kddz4c-stroke" fill="none" stroke-linecap="round" stroke-linejoin="round" stroke-miterlimit="4" stroke="#969696" stroke-width="2" stroke-dasharray="5.0, 7.0"><g><path d="M 58 186L 55 186L 54.9 186C 43.357244 186.000001 33.999995 176.642752 33.999996 165.1L 34 165L 34 30.9C 33.999998 19.357248 24.64275 10 13.1 10L 13 10L 10 10"></path></g></g></g><g id="g-root-tx_expressj_1lw57yj1kdjmdm-stroke" data-item-order="0" transform="translate(135, 489)"></g><g id="g-root-cu_18eg1vv1kddz46-stroke" data-item-order="0" transform="translate(411, 360)"><g id="cu_18eg1vv1kddz46-stroke" fill="none" stroke-linecap="round" stroke-linejoin="round" stroke-miterlimit="4" stroke="#969696" stroke-width="2" stroke-dasharray="5.0, 7.0"><g><path d="M 10 10L 10 107.5L 10 205"></path></g></g></g><g id="g-root-cu_4kfudn1kddzie-stroke" data-item-order="0" transform="translate(567, 93)"><g id="cu_4kfudn1kddzie-stroke" fill="none" stroke-linecap="round" stroke-linejoin="round" stroke-miterlimit="4" stroke="#969696" stroke-width="2" stroke-dasharray="5.0, 7.0"><g><path d="M 10 10L 10 22L 10 34L 19 34L 28 34"></path></g></g></g><g id="g-root-cu_1qa3dzf1kde0w9-stroke" data-item-order="0" transform="translate(567, 93)"><g id="cu_1qa3dzf1kde0w9-stroke" fill="none" stroke-linecap="round" stroke-linejoin="round" stroke-miterlimit="4" stroke="#969696" stroke-width="2" stroke-dasharray="5.0, 7.0"><g><path d="M 10 10L 10 40L 10 70L 19 70L 28 70"></path></g></g></g><g id="g-root-cu_1cz9cp71kddzbf-stroke" data-item-order="0" transform="translate(567, 93)"><g id="cu_1cz9cp71kddzbf-stroke" fill="none" stroke-linecap="round" stroke-linejoin="round" stroke-miterlimit="4" stroke="#969696" stroke-width="2" stroke-dasharray="5.0, 7.0"><g><path d="M 10 10L 10 58L 10 106L 19 106L 28 106"></path></g></g></g><g id="g-root-cu_18jfukr1kde03p-stroke" data-item-order="0" transform="translate(567, 93)"><g id="cu_18jfukr1kde03p-stroke" fill="none" stroke-linecap="round" stroke-linejoin="round" stroke-miterlimit="4" stroke="#969696" stroke-width="2" stroke-dasharray="5.0, 7.0"><g><path d="M 10 10L 10 76L 10 142L 19 142L 28 142"></path></g></g></g><g id="g-root-cu_v7zc7f1kde1on-stroke" data-item-order="0" transform="translate(567, 93)"><g id="cu_v7zc7f1kde1on-stroke" fill="none" stroke-linecap="round" stroke-linejoin="round" stroke-miterlimit="4" stroke="#969696" stroke-width="2" stroke-dasharray="5.0, 7.0"><g><path d="M 10 10L 10 31L 10 166C 10 172.627425 15.372584 178.000009 22.000001 178.000008L 22.1 178L 28 178"></path></g></g></g><g id="g-root-tx_postgres_145hojv1kdjlkz-stroke" data-item-order="0" transform="translate(111, 123)"></g><g id="g-root-cu_1hd7fkb1kddzij-stroke" data-item-order="0" transform="translate(237, 111)"><g id="cu_1hd7fkb1kddzij-stroke" fill="none" stroke-linecap="round" stroke-linejoin="round" stroke-miterlimit="4" stroke="#969696" stroke-width="2" stroke-dasharray="5.0, 7.0"><g><path d="M 28 10L 28 22L 28 34L 19 34L 10 34"></path></g></g></g><g id="g-root-cu_141qx6z1kde13i-stroke" data-item-order="0" transform="translate(237, 111)"><g id="cu_141qx6z1kde13i-stroke" fill="none" stroke-linecap="round" stroke-linejoin="round" stroke-miterlimit="4" stroke="#969696" stroke-width="2" stroke-dasharray="5.0, 7.0"><g><path d="M 28 10L 28 40L 28 70L 19 70L 10 70"></path></g></g></g><g id="g-root-cu_v6qe171kddzi8-stroke" data-item-order="0" transform="translate(237, 111)"><g id="cu_v6qe171kddzi8-stroke" fill="none" stroke-linecap="round" stroke-linejoin="round" stroke-miterlimit="4" stroke="#969696" stroke-width="2" stroke-dasharray="5.0, 7.0"><g><path d="M 28 10L 28 58L 28 106L 19 106L 10 106"></path></g></g></g><g id="g-root-cu_mb3dsb1kde0ay-stroke" data-item-order="0" transform="translate(237, 111)"><g id="cu_mb3dsb1kde0ay-stroke" fill="none" stroke-linecap="round" stroke-linejoin="round" stroke-miterlimit="4" stroke="#969696" stroke-width="2" stroke-dasharray="5.0, 7.0"><g><path d="M 28 10L 28 76L 28 142L 19 142L 10 142"></path></g></g></g><g id="g-root-cu_8zmvez1kde1vw-stroke" data-item-order="0" transform="translate(237, 111)"><g id="cu_8zmvez1kde1vw-stroke" fill="none" stroke-linecap="round" stroke-linejoin="round" stroke-miterlimit="4" stroke="#969696" stroke-width="2" stroke-dasharray="5.0, 7.0"><g><path d="M 28 10L 28 31L 28 166C 28.000011 172.627427 22.627428 178.000011 16.00001 178.000011L 15.9 178L 10 178"></path></g></g></g><g id="g-root-tx_expo_1upwsy31kdjmkl-stroke" data-item-order="0" transform="translate(333, 621)"></g><g id="g-root-tx_reactnat_1hegakr1kdjo5i-stroke" data-item-order="0" transform="translate(333, 657)"></g><g id="g-root-tx_git_i09l6z1kdjmyw-stroke" data-item-order="0" transform="translate(591, 105)"></g><g id="g-root-cu_dhbssr1kde0w4-stroke" data-item-order="0" transform="translate(567, 351)"><g id="cu_dhbssr1kde0w4-stroke" fill="none" stroke-linecap="round" stroke-linejoin="round" stroke-miterlimit="4" stroke="#969696" stroke-width="2" stroke-dasharray="5.0, 7.0"><g><path d="M 10 10L 10 40L 10 70L 19 70L 28 70"></path></g></g></g><g id="g-root-cu_4losjv1kde1ou-stroke" data-item-order="0" transform="translate(567, 351)"><g id="cu_4losjv1kde1ou-stroke" fill="none" stroke-linecap="round" stroke-linejoin="round" stroke-miterlimit="4" stroke="#969696" stroke-width="2" stroke-dasharray="5.0, 7.0"><g><path d="M 10 10L 10 58L 10 106L 19 106L 28 106"></path></g></g></g><g id="g-root-tx_githubac_9m1sb1kdjm69-stroke" data-item-order="0" transform="translate(591, 141)"></g><g id="g-root-tx_mysql_qu166j1kdjn5w-stroke" data-item-order="0" transform="translate(159, 159)"></g><g id="g-root-cu_1ursbd71kddzwg-stroke" data-item-order="0" transform="translate(567, 351)"><g id="cu_1ursbd71kddzwg-stroke" fill="none" stroke-linecap="round" stroke-linejoin="round" stroke-miterlimit="4" stroke="#969696" stroke-width="2" stroke-dasharray="5.0, 7.0"><g><path d="M 10 10L 10 76L 10 142L 19 142L 28 142"></path></g></g></g><g id="g-root-cu_1lw5b4b1kde0p6-stroke" data-item-order="0" transform="translate(567, 351)"><g id="cu_1lw5b4b1kde0p6-stroke" fill="none" stroke-linecap="round" stroke-linejoin="round" stroke-miterlimit="4" stroke="#969696" stroke-width="2" stroke-dasharray="5.0, 7.0"><g><path d="M 10 10L 10 31L 10 166C 10 172.627425 15.372584 178.000009 22.000001 178.000008L 22.1 178L 28 178"></path></g></g></g><g id="g-root-tx_jenkins_1lz9le31kdjnk2-stroke" data-item-order="0" transform="translate(591, 177)"></g><g id="g-root-tx_sqlite_dj74wb1kdjll1-stroke" data-item-order="0" transform="translate(171, 195)"></g><g id="g-root-tx_django_v7z91n1kdjndb-stroke" data-item-order="0" transform="translate(159, 381)"></g><g id="g-root-ro_1qaqnij1k3edxg-stroke" data-item-order="0" transform="translate(327, 210)"><g id="ro_1qaqnij1k3edxg-stroke" fill="none" stroke-linecap="round" stroke-linejoin="round" stroke-miterlimit="4" stroke="#484848" stroke-width="2"><g><path d="M 34 10L 154 10C 154 10 178 10 178 34L 178 136C 178 136 178 160 154 160L 34 160C 34 160 10 160 10 136L 10 34C 10 34 10 10 34 10"></path></g></g></g><g id="g-root-tx_docker_18eg1vv1kcyjgj-stroke" data-item-order="0" transform="translate(591, 213)"></g><g id="g-root-tx_realm_18mk4uj1kdjmyu-stroke" data-item-order="0" transform="translate(171, 231)"></g><g id="g-root-cu_m97yiz1kde1aa-stroke" data-item-order="0" transform="translate(237, 369)"><g id="cu_m97yiz1kde1aa-stroke" fill="none" stroke-linecap="round" stroke-linejoin="round" stroke-miterlimit="4" stroke="#969696" stroke-width="2" stroke-dasharray="5.0, 7.0"><g><path d="M 28 10L 28 22L 28 34L 19 34L 10 34"></path></g></g></g><g id="g-root-cu_8ydx8r1kddzph-stroke" data-item-order="0" transform="translate(237, 369)"><g id="cu_8ydx8r1kddzph-stroke" fill="none" stroke-linecap="round" stroke-linejoin="round" stroke-miterlimit="4" stroke="#969696" stroke-width="2" stroke-dasharray="5.0, 7.0"><g><path d="M 28 10L 28 40L 28 70L 19 70L 10 70"></path></g></g></g><g id="g-root-cu_2qwzv1kde0i7-stroke" data-item-order="0" transform="translate(237, 369)"><g id="cu_2qwzv1kde0i7-stroke" fill="none" stroke-linecap="round" stroke-linejoin="round" stroke-miterlimit="4" stroke="#969696" stroke-width="2" stroke-dasharray="5.0, 7.0"><g><path d="M 28 10L 28 58L 28 106L 19 106L 10 106"></path></g></g></g><g id="g-root-cu_1q87yq31kde1vl-stroke" data-item-order="0" transform="translate(237, 369)"><g id="cu_1q87yq31kde1vl-stroke" fill="none" stroke-linecap="round" stroke-linejoin="round" stroke-miterlimit="4" stroke="#969696" stroke-width="2" stroke-dasharray="5.0, 7.0"><g><path d="M 28 10L 28 26.5L 28 130C 28.000005 136.627421 22.627422 142.000005 16.000005 142.000005L 15.9 142L 10 142"></path></g></g></g><g id="g-root-tx_gcp_18fp0231kcylmo-stroke" data-item-order="0" transform="translate(591, 471)"></g><g id="g-root-cu_qssb631kddzb5-stroke" data-item-order="0" transform="translate(567, 351)"><g id="cu_qssb631kddzb5-stroke" fill="none" stroke-linecap="round" stroke-linejoin="round" stroke-miterlimit="4" stroke="#969696" stroke-width="2" stroke-dasharray="5.0, 7.0"><g><path d="M 10 10L 10 22L 10 34L 19 34L 28 34"></path></g></g></g><g id="g-root-tx_kubernet_v2zjij1kcyl1g-stroke" data-item-order="0" transform="translate(591, 249)"></g><g id="g-root-tx_firebase_vbq3kb1kdjldz-stroke" data-item-order="0" transform="translate(147, 267)"></g><g id="g-root-tx_googlepl_8wihzf1kcyk99-stroke" data-item-order="0" transform="translate(591, 363)"></g><g id="g-root-cu_1um61l71kde22t-stroke" data-item-order="0" transform="translate(309, 609)"><g id="cu_1um61l71kde22t-stroke" fill="none" stroke-linecap="round" stroke-linejoin="round" stroke-miterlimit="4" stroke="#969696" stroke-width="2" stroke-dasharray="5.0, 7.0"><g><path d="M 10 10L 10 22L 10 34L 19 34L 28 34"></path></g></g></g><g id="g-root-ro_dfgadn1kdjnkc-stroke" data-item-order="0" transform="translate(543, 297)"><g id="ro_dfgadn1kdjnkc-stroke" fill="none" stroke-linecap="round" stroke-linejoin="round" stroke-miterlimit="4" stroke="#e55753" stroke-width="2"><g><path d="M 22 10L 178 10C 178 10 190 10 190 22L 190 52C 190 52 190 64 178 64L 22 64C 22 64 10 64 10 52L 10 22C 10 22 10 10 22 10"></path></g></g></g><g id="g-root-ro_1q7lhmz1kd5l3b-stroke" data-item-order="0" transform="translate(15, 315)"><g id="ro_1q7lhmz1kd5l3b-stroke" fill="none" stroke-linecap="round" stroke-linejoin="round" stroke-miterlimit="4" stroke="#92bd39" stroke-width="2"><g><path d="M 22 10L 262 10C 262 10 274 10 274 22L 274 52C 274 52 274 64 262 64L 22 64C 22 64 10 64 10 52L 10 22C 10 22 10 10 22 10"></path></g></g></g><g id="g-root-cu_v2zjij1kde0p5-stroke" data-item-order="0" transform="translate(279, 310)"><g id="cu_v2zjij1kde0p5-stroke" fill="none" stroke-linecap="round" stroke-linejoin="round" stroke-miterlimit="4" stroke="#969696" stroke-width="2" stroke-dasharray="5.0, 7.0"><g><path d="M 58 10L 55 10L 54.9 10C 50.611929 10.004962 45.995266 11.578824 41.700001 14.500001C 39.147207 16.234511 36.356002 20.403194 34.000002 26.000001C 31.644001 31.596807 28.852796 35.76549 26.300001 37.500001C 22.004737 40.421177 17.388073 41.995039 13.100001 42L 13 42L 10 42"></path></g></g></g><g id="g-root-tx_azure_v4uyrv1kcyk1t-stroke" data-item-order="0" transform="translate(591, 507)"></g><g id="g-root-tx_appstore_1um61l71kcyln2-stroke" data-item-order="0" transform="translate(591, 399)"></g><g id="g-root-cu_vhqj1kde1hm-stroke" data-item-order="0" transform="translate(495, 310)"><g id="cu_vhqj1kde1hm-stroke" fill="none" stroke-linecap="round" stroke-linejoin="round" stroke-miterlimit="4" stroke="#969696" stroke-width="2" stroke-dasharray="5.0, 7.0"><g><path d="M 10 10L 13 10L 13.1 10C 16.47715 10.00393 20.199416 10.613028 24.1 11.8C 26.434787 12.503612 29.936878 14.343094 34 16.999999C 38.063122 19.656905 41.565214 21.496387 43.900001 22.199999C 47.800584 23.386973 51.52285 23.996071 54.900001 24.000001L 55 24L 58 24"></path></g></g></g><g id="g-root-tx_djangore_dhbpmz1kdjmko-stroke" data-item-order="0" transform="translate(15, 417)"></g><g id="g-root-tx_database_qvwoln1kdckqr-stroke" data-item-order="1000000000" transform="translate(135, 72)"></g><g id="g-root-2_4ot5zf1kdcn4c-stroke" data-item-order="1000000000" transform="translate(237, 69)"><g id="2_4ot5zf1kdcn4c-stroke" fill="none" stroke-linecap="round" stroke-linejoin="round" stroke-miterlimit="4" stroke="#de58a9" stroke-width="2"><g><path d="M 15.9375 23.125126C 18.698925 23.125126 20.9375 22.229725 20.9375 21.125149C 20.9375 20.020588 18.698925 19.125151 15.9375 19.125151C 13.176075 19.125151 10.9375 20.020588 10.9375 21.125149C 10.9375 22.229725 13.176075 23.125126 15.9375 23.125126ZM 10.9375 21.124962L 10.9375 29.125C 10.9375 30.25 13.1875 31.125 15.9375 31.125C 18.6875 31.125 20.9375 30.25 20.9375 29.125L 20.9375 21.124962M 35.751751 14.216625C 37.519127 14.216625 38.951752 13.440588 38.951752 12.4833C 38.951752 11.526 37.519127 10.74996 35.751751 10.74996C 33.984497 10.74996 32.55175 11.526 32.55175 12.4833C 32.55175 13.440588 33.984497 14.216625 35.751751 14.216625ZM 32.55175 12.483362L 32.55175 17.016687C 32.55175 17.950026 34.018501 18.750025 35.751751 18.750025C 37.485126 18.750025 38.951752 17.950026 38.951752 17.016687L 38.951752 12.483362M 35.751751 24.600126C 37.519127 24.600126 38.951752 23.824001 38.951752 22.866749C 38.951752 21.909462 37.519127 21.133425 35.751751 21.133425C 33.984497 21.133425 32.55175 21.909462 32.55175 22.866749C 32.55175 23.824001 33.984497 24.600126 35.751751 24.600126ZM 32.55175 22.866875L 32.55175 27.400126C 32.55175 28.3335 34.018501 29.133499 35.751751 29.133499C 37.485126 29.133499 38.951752 28.3335 38.951752 27.400126L 38.951752 22.866875M 35.751751 34.716625C 37.519127 34.716625 38.951752 33.940624 38.951752 32.98325C 38.951752 32.026001 37.519127 31.25 35.751751 31.25C 33.984497 31.25 32.55175 32.026001 32.55175 32.98325C 32.55175 33.940624 33.984497 34.716625 35.751751 34.716625ZM 32.55175 32.983376L 32.55175 37.51675C 32.55175 38.450001 34.018501 39.25 35.751751 39.25C 37.485126 39.25 38.951752 38.450001 38.951752 37.51675L 38.951752 32.983376M 29.557249 14.625L 27.057249 14.625L 27.057249 35.375L 29.557249 35.375M 29.557249 25L 23.932249 25M 10.9375 25.163876C 10.9375 26.221125 13.099663 27.086 15.937525 27.086C 18.775375 27.086 20.937536 26.221125 20.937536 25.163876"></path></g></g></g><g id="g-root-tx_devopsan_dgp8jv1kdb6kr-stroke" data-item-order="1000000000" transform="translate(591, 54)"></g><g id="g-root-tech_90a4y31k3eex7-stroke" data-item-order="1000000000" transform="translate(387, 234)"><g id="tech_90a4y31k3eex7-stroke" fill="none" stroke-linecap="round" stroke-linejoin="round" stroke-miterlimit="4" stroke="#484848" stroke-width="2"><g><path d="M 28.035999 49.051998C 29.998487 49.45388 31.99679 49.654919 34 49.652C 39.246937 49.717121 44.400009 48.258114 48.834003 45.452003C 53.783222 42.441429 56.860306 37.11927 57 31.327999C 56.860542 25.535604 53.783573 20.212139 48.834 17.200001C 44.39925 14.395582 39.246693 12.93672 34 13C 28.753895 12.936419 23.601894 14.395319 19.167999 17.200001C 14.217382 20.21139 11.139515 25.535107 11 31.328001C 11.13705 37.098179 14.192462 42.404671 19.114 45.420002L 15.6 54.400002ZM 34 22.200001C 41.622002 22.200001 47.799999 26.284 47.799999 31.326C 47.799999 36.368 41.622002 40.452 34 40.452C 26.378 40.452 20.200001 36.368 20.200001 31.326C 20.200001 26.284 26.378 22.200001 34 22.200001Z"></path></g></g></g><g id="g-root-tx_technolo_1qdv0y31k3d0y2-stroke" data-item-order="1000000000" transform="translate(351, 288)"></g><g id="g-root-exch_qqwsqz1kdjlzf-stroke" data-item-order="1000000000" transform="translate(555, 309)"><g id="exch_qqwsqz1kdjlzf-stroke" fill="none" stroke-linecap="round" stroke-linejoin="round" stroke-miterlimit="4" stroke="#e55753" stroke-width="2"><g><path d="M 15.625 20L 15.625 17.1875C 15.624667 15.943545 16.118937 14.7505 16.998896 13.871243C 17.878857 12.991987 19.072296 12.498672 20.31625 12.5L 22.5 12.5M 18.12875 17.5L 15.62875 20L 13.12875 17.5M 20.62875 10.625L 22.50375 12.5L 20.62875 14.375M 16.25 35.3125C 16.077412 35.3125 15.9375 35.452412 15.9375 35.625C 15.9375 35.797588 16.077412 35.9375 16.25 35.9375C 16.422588 35.9375 16.5625 35.797588 16.5625 35.625C 16.5625 35.452412 16.422588 35.3125 16.25 35.3125L 16.25 35.3125M 21.875 38.125C 21.875 38.815353 21.315357 39.375 20.625 39.375L 11.875 39.375C 11.184644 39.375 10.625 38.815353 10.625 38.125L 10.625 24.375C 10.625 23.684643 11.184644 23.125 11.875 23.125L 20.625 23.125C 21.315357 23.125 21.875 23.684643 21.875 24.375ZM 39.375 13.125C 39.375 14.505712 38.255714 15.625 36.875 15.625L 30.625 15.625C 29.244287 15.625 28.125 14.505712 28.125 13.125C 28.125 11.744288 29.244287 10.625 30.625 10.625L 36.875 10.625C 38.255714 10.625 39.375 11.744288 39.375 13.125ZM 31.5625 12.8125C 31.389912 12.8125 31.25 12.952411 31.25 13.125C 31.25 13.297589 31.389912 13.4375 31.5625 13.4375C 31.735088 13.4375 31.875 13.297589 31.875 13.125C 31.875 12.952411 31.735088 12.8125 31.5625 12.8125L 31.5625 12.8125M 39.375 18.125C 39.375 19.505713 38.255714 20.625 36.875 20.625L 30.625 20.625C 29.244287 20.625 28.125 19.505713 28.125 18.125C 28.125 16.744287 29.244287 15.625 30.625 15.625L 36.875 15.625C 38.255714 15.625 39.375 16.744287 39.375 18.125ZM 31.5625 17.8125C 31.389912 17.8125 31.25 17.952412 31.25 18.125C 31.25 18.297588 31.389912 18.4375 31.5625 18.4375C 31.735088 18.4375 31.875 18.297588 31.875 18.125C 31.875 17.952412 31.735088 17.8125 31.5625 17.8125L 31.5625 17.8125M 39.375 23.125C 39.375 24.505713 38.255714 25.625 36.875 25.625L 30.625 25.625C 29.244287 25.625 28.125 24.505713 28.125 23.125C 28.125 21.744287 29.244287 20.625 30.625 20.625L 36.875 20.625C 38.255714 20.625 39.375 21.744287 39.375 23.125ZM 31.5625 22.8125C 31.389912 22.8125 31.25 22.952412 31.25 23.125C 31.25 23.297588 31.389912 23.4375 31.5625 23.4375C 31.735088 23.4375 31.875 23.297588 31.875 23.125C 31.875 22.952412 31.735088 22.8125 31.5625 22.8125L 31.5625 22.8125"></path></g></g></g><g id="g-root-tx_backendd_m8lhfv1kd5ki5-stroke" data-item-order="1000000000" transform="translate(45, 330)"></g><g id="g-root-code_1unezrf1kd5kb2-stroke" data-item-order="1000000000" transform="translate(219, 327)"><g id="code_1unezrf1kd5kb2-stroke" fill="none" stroke-linecap="round" stroke-linejoin="round" stroke-miterlimit="4" stroke="#92bd39" stroke-width="2"><g><path d="M 21.437525 15.109387L 21.437525 12.234387C 21.437525 11.484387 21.937525 10.984383 22.6875 10.984383L 34.6875 10.984383C 34.9375 10.984383 35.3125 11.109383 35.4375 11.234383L 38.4375 13.734387C 38.6875 13.984387 38.9375 14.359387 38.9375 14.734387L 38.9375 30.359375C 38.9375 31.109375 38.4375 31.609375 37.6875 31.609375L 28.3125 31.609375M 10 10M 26.4375 16.234364L 24.5625 18.109364L 26.4375 19.984364M 10 10M 33.9375 16.234364L 35.8125 18.109364L 33.9375 19.984364M 10 10M 28.9375 20.6094L 31.4375 14.9844M 26.9375 39.015625C 25.8125 35.765625 22.6875 33.390625 19.062475 33.390625C 15.437475 33.390625 12.187475 35.765625 11.06247 39.015625M 18.9375 22.140614L 18.9375 18.390614M 12.062375 25.765625L 25.812376 25.765625M 13.812375 27.140625C 13.937375 29.890625 16.187376 32.140625 18.937374 32.140625C 21.812374 32.140625 24.062374 29.890625 24.062374 27.015625L 24.062374 24.765625C 24.062374 21.890614 21.812374 19.640614 18.937374 19.640614C 16.187376 19.640614 13.937375 21.890614 13.812375 24.640625L 13.812375 27.140625Z"></path></g></g></g><g id="g-root-tx_deployme_1cxdua31kdjmrm-stroke" data-item-order="1000000000" transform="translate(591, 312)"></g><g id="g-root-app_4haxzf1kdi6tp-stroke" data-item-order="1000000000" transform="translate(297, 567)"><g id="app_4haxzf1kdi6tp-stroke" fill="none" stroke-linecap="round" stroke-linejoin="round" stroke-miterlimit="4" stroke="#3cc583" stroke-width="2"><g><path d="M 27.12125 34.375L 10.87125 34.375M 19 36.5625C 19.172588 36.5625 19.3125 36.702412 19.3125 36.875L 19.3125 36.875C 19.3125 37.047588 19.172588 37.1875 19 37.1875L 19 37.1875C 18.827412 37.1875 18.6875 37.047588 18.6875 36.875L 18.6875 36.875C 18.6875 36.702412 18.827412 36.5625 19 36.5625M 18.99625 36.5625L 18.99625 36.5625M 27.125 32.9925L 27.125 36.875C 27.125 38.255714 26.005711 39.375 24.625 39.375L 13.375 39.375C 11.994288 39.375 10.875 38.255714 10.875 36.875L 10.875 13.125C 10.875 11.744288 11.994288 10.625 13.375 10.625L 24.625 10.625C 26.005711 10.625 27.125 11.744288 27.125 13.125L 27.125 15.15375M 19.62125 15L 13.99625 18.28125L 19.62125 21.5625L 25.24625 18.28125L 19.62125 15ZM 25.24625 18.28125L 25.24625 24.84375L 19.62125 28.125L 13.99625 24.84375L 13.99625 18.28125M 19.62125 21.5625L 19.62125 28.125M 33.798748 23.2875L 38.982502 12.5C 39.207226 12.104239 39.199093 11.617613 38.961266 11.229582C 38.723446 10.841551 38.293518 10.613441 37.838871 10.634064C 37.384228 10.654686 36.976715 10.920782 36.775002 11.32875L 30.668751 21.75M 26.41375 28.793751C 26.181629 28.93001 26.060898 29.198025 26.112656 29.462162C 26.164415 29.726297 26.377371 29.928926 26.643751 29.967501C 31.005001 30.616249 33.881248 27.467501 34.1875 25.285C 34.42881 23.575842 33.239044 21.994614 31.529926 21.753019C 29.820808 21.511423 28.239382 22.700922 27.997499 24.41C 27.716251 26.418751 28.158751 27.762501 26.41375 28.793751Z"></path></g></g></g><g id="g-root-tx_mobilede_qnrzij1kdi7lw-stroke" data-item-order="1000000000" transform="translate(333, 570)"></g><g id="g-root-code_58q6j1kdb85o-stroke" data-item-order="1000000000" transform="translate(555, 51)"><g id="code_58q6j1kdb85o-stroke" fill="none" stroke-linecap="round" stroke-linejoin="round" stroke-miterlimit="4" stroke="#4e88e7" stroke-width="2"><g><path d="M 23.5625 26.14175C 27.1875 27.01675 29.8125 30.26675 29.8125 34.01675L 29.8125 35.26675M 19.812475 35.266624L 19.812475 25.266624C 19.812475 24.516624 20.312475 24.016624 21.062475 24.016624L 22.312475 24.016624C 23.0625 24.016624 23.5625 24.516624 23.5625 25.266624L 23.5625 35.266624M 19.812475 26.14175C 16.187475 27.01675 13.562475 30.26675 13.562475 34.01675L 13.562475 35.26675M 32.3125 37.766624C 32.3125 38.516624 31.8125 39.016624 31.0625 39.016624L 12.312475 39.016624C 11.562475 39.016624 11.06247 38.516624 11.06247 37.766624L 11.06247 36.516624C 11.06247 35.766624 11.562475 35.266624 12.312475 35.266624L 31.0625 35.266624C 31.8125 35.266624 32.3125 35.766624 32.3125 36.516624L 32.3125 37.766624ZM 21.437525 20.245926L 21.437525 12.233313C 21.437525 11.483313 21.937525 10.983315 22.6875 10.983315L 34.6875 10.983315C 34.9375 10.983315 35.3125 11.108314 35.4375 11.233314L 38.4375 13.733313C 38.6875 13.983313 38.9375 14.358313 38.9375 14.733313L 38.9375 30.358374C 38.9375 31.108376 38.4375 31.608374 37.6875 31.608374L 34.6875 31.608374M 10 10M 26.4375 16.233288L 24.5625 18.108288L 26.4375 19.983288M 10 10M 33.9375 16.233288L 35.8125 18.108288L 33.9375 19.983288M 10 10M 28.9375 20.608326L 31.4375 14.983325"></path></g></g></g></g></g></svg>