<?xml version="1.0" encoding="utf-8" standalone="yes"?>
<!DOCTYPE svg PUBLIC "-//W3C//DTD SVG 1.1//EN" "http://www.w3.org/Graphics/SVG/1.1/DTD/svg11.dtd">
<svg width="878" height="674" viewBox="0 0 878 674" style="fill:none;stroke:none;fill-rule:evenodd;clip-rule:evenodd;stroke-linecap:round;stroke-linejoin:round;stroke-miterlimit:1.5;" version="1.1" xmlns="http://www.w3.org/2000/svg" xmlns:xlink="http://www.w3.org/1999/xlink"><style id="fontImports">@import url("https://fonts.googleapis.com/css2?family=Roboto:wght@400;700&amp;display=block");</style><g id="items" style="isolation: isolate"><g id="blend" style="mix-blend-mode: normal"><g id="g-root-ro_1cw5i8pwih4w3-fill" data-item-order="-31320" transform="translate(339, 258)"><g id="ro_1cw5i8pwih4w3-fill" stroke="none" fill="#f5f5f5"><g><path d="M 34 10L 166 10C 166 10 190 10 190 34L 190 160C 190 160 190 184 166 184L 34 184C 34 184 10 184 10 160L 10 34C 10 34 10 10 34 10"></path></g></g></g><g id="g-root-ro_1uuah7dx2ey2s-fill" data-item-order="-15552" transform="translate(87, 39)"><g id="ro_1uuah7dx2ey2s-fill" stroke="none" fill="#f3f0ff"><g><path d="M 22 10L 286 10C 286 10 298 10 298 22L 298 52C 298 52 298 64 286 64L 22 64C 22 64 10 64 10 52L 10 22C 10 22 10 10 22 10"></path></g></g></g><g id="g-root-ro_1lwrcexws1bls-fill" data-item-order="-14904" transform="translate(567, 375)"><g id="ro_1lwrcexws1bls-fill" stroke="none" fill="#e3fff2"><g><path d="M 22 10L 274 10C 274 10 286 10 286 22L 286 52C 286 52 286 64 274 64L 22 64C 22 64 10 64 10 52L 10 22C 10 22 10 10 22 10"></path></g></g></g><g id="g-root-ro_v7cryxx2gdmv-fill" data-item-order="-14904" transform="translate(15, 189)"><g id="ro_v7cryxx2gdmv-fill" stroke="none" fill="#e8f9ff"><g><path d="M 22 10L 274 10C 274 10 286 10 286 22L 286 52C 286 52 286 64 274 64L 22 64C 22 64 10 64 10 52L 10 22C 10 22 10 10 22 10"></path></g></g></g><g id="g-root-ro_1qegja1ws6xvy-fill" data-item-order="-14256" transform="translate(483, 75)"><g id="ro_1qegja1ws6xvy-fill" stroke="none" fill="#faf0ff"><g><path d="M 22 10L 262 10C 262 10 274 10 274 22L 274 52C 274 52 274 64 262 64L 22 64C 22 64 10 64 10 52L 10 22C 10 22 10 10 22 10"></path></g></g></g><g id="g-root-ro_74uqhws9q8d-fill" data-item-order="-14256" transform="translate(567, 189)"><g id="ro_74uqhws9q8d-fill" stroke="none" fill="#f4ffdc"><g><path d="M 22 10L 262 10C 262 10 274 10 274 22L 274 52C 274 52 274 64 262 64L 22 64C 22 64 10 64 10 52L 10 22C 10 22 10 10 22 10"></path></g></g></g><g id="g-root-ro_5vaftwsdxxo-fill" data-item-order="-12312" transform="translate(315, 525)"><g id="ro_5vaftwsdxxo-fill" stroke="none" fill="#fffbda"><g><path d="M 22 10L 226 10C 226 10 238 10 238 22L 238 52C 238 52 238 64 226 64L 22 64C 22 64 10 64 10 52L 10 22C 10 22 10 10 22 10"></path></g></g></g><g id="g-root-ro_13ymmxlx20w7e-fill" data-item-order="-11016" transform="translate(87, 375)"><g id="ro_13ymmxlx20w7e-fill" stroke="none" fill="#fff2e5"><g><path d="M 22 10L 202 10C 202 10 214 10 214 22L 214 52C 214 52 214 64 202 64L 22 64C 22 64 10 64 10 52L 10 22C 10 22 10 10 22 10"></path></g></g></g><g id="g-root-cu_91ik61x2gb9f-fill" data-item-order="0" transform="translate(333, 93)"></g><g id="g-root-tx_github_1ut0tqxx2gcgb-fill" data-item-order="0" transform="translate(171, 477)"><g id="tx_github_1ut0tqxx2gcgb-fill" stroke="none" fill="#484848"><g><text style="font: 20px Roboto, sans-serif; white-space: pre;" font-size="20px" font-family="Roboto, sans-serif"><tspan x="15.22" y="34" dominant-baseline="ideographic">GitHub</tspan></text></g></g></g><g id="g-root-cu_zs6ffdx2eyv4-fill" data-item-order="0" transform="translate(459, 102)"></g><g id="g-root-tx_nextjs_1qa2y6xx2gc23-fill" data-item-order="0" transform="translate(615, 441)"><g id="tx_nextjs_1qa2y6xx2gc23-fill" stroke="none" fill="#484848"><g><text style="font: 20px Roboto, sans-serif; white-space: pre;" font-size="20px" font-family="Roboto, sans-serif"><tspan x="15.14" y="34" dominant-baseline="ideographic">Next.js</tspan></text></g></g></g><g id="g-root-cu_v48r6hx2gd8l-fill" data-item-order="0" transform="translate(591, 429)"></g><g id="g-root-cu_1cviro9x2gave-fill" data-item-order="0" transform="translate(591, 429)"></g><g id="g-root-tx_applicat_1hjfqmxx2gd1k-fill" data-item-order="0" transform="translate(99, 141)"><g id="tx_applicat_1hjfqmxx2gd1k-fill" stroke="none" fill="#484848"><g><text style="font: 20px Roboto, sans-serif; white-space: pre;" font-size="20px" font-family="Roboto, sans-serif"><tspan x="14.57" y="34" dominant-baseline="ideographic">Application Optimization</tspan></text></g></g></g><g id="g-root-cu_m7csrdx2gbur-fill" data-item-order="0" transform="translate(429, 432)"></g><g id="g-root-cu_htepw9x2gbnr-fill" data-item-order="0" transform="translate(507, 129)"></g><g id="g-root-cu_dfgn15x2gbgn-fill" data-item-order="0" transform="translate(249, 429)"></g><g id="g-root-cu_hva55lx2gaoc-fill" data-item-order="0" transform="translate(249, 429)"></g><g id="g-root-tx_django_mcbw61x2gdn1-fill" data-item-order="0" transform="translate(531, 141)"><g id="tx_django_mcbw61x2gdn1-fill" stroke="none" fill="#484848"><g><text style="font: 20px Roboto, sans-serif; white-space: pre;" font-size="20px" font-family="Roboto, sans-serif"><tspan x="14.76" y="34" dominant-baseline="ideographic">Django</tspan></text></g></g></g><g id="g-root-cu_znt3tlx2gb9c-fill" data-item-order="0" transform="translate(333, 93)"></g><g id="g-root-tx_apioptim_9lp5lx2gavj-fill" data-item-order="0" transform="translate(171, 105)"><g id="tx_apioptim_9lp5lx2gavj-fill" stroke="none" fill="#484848"><g><text style="font: 20px Roboto, sans-serif; white-space: pre;" font-size="20px" font-family="Roboto, sans-serif"><tspan x="13.23" y="34" dominant-baseline="ideographic">API Optimization</tspan></text></g></g></g><g id="g-root-tx_git_93da55x2gb2i-fill" data-item-order="0" transform="translate(207, 441)"><g id="tx_git_93da55x2gb2i-fill" stroke="none" fill="#484848"><g><text style="font: 20px Roboto, sans-serif; white-space: pre;" font-size="20px" font-family="Roboto, sans-serif"><tspan x="15.48" y="34" dominant-baseline="ideographic">Git</tspan></text></g></g></g><g id="g-root-tx_djangore_91huvtx2gc26-fill" data-item-order="0" transform="translate(363, 591)"><g id="tx_djangore_91huvtx2gc26-fill" stroke="none" fill="#484848"><g><text style="font: 20px Roboto, sans-serif; white-space: pre;" font-size="20px" font-family="Roboto, sans-serif"><tspan x="12.13" y="34" dominant-baseline="ideographic">Django Rest Framework</tspan></text></g></g></g><g id="g-root-tx_aws_1d2dac9x2gbno-fill" data-item-order="0" transform="translate(615, 255)"><g id="tx_aws_1d2dac9x2gbno-fill" stroke="none" fill="#484848"><g><text style="font: 20px Roboto, sans-serif; white-space: pre;" font-size="20px" font-family="Roboto, sans-serif"><tspan x="13" y="34" dominant-baseline="ideographic">AWS</tspan></text></g></g></g><g id="g-root-cu_dbpsihx2gcni-fill" data-item-order="0" transform="translate(291, 216)"></g><g id="g-root-cu_8vwae1x2gdft-fill" data-item-order="0" transform="translate(291, 374)"></g><g id="g-root-cu_1um6b2xx2gbnw-fill" data-item-order="0" transform="translate(519, 216)"></g><g id="g-root-tx_reactjs_18jfes9x2gb9g-fill" data-item-order="0" transform="translate(615, 477)"><g id="tx_reactjs_18jfes9x2gb9g-fill" stroke="none" fill="#484848"><g><text style="font: 20px Roboto, sans-serif; white-space: pre;" font-size="20px" font-family="Roboto, sans-serif"><tspan x="16.4" y="34" dominant-baseline="ideographic">React.js</tspan></text></g></g></g><g id="g-root-tx_docker_mg2qopx2gbnq-fill" data-item-order="0" transform="translate(615, 327)"><g id="tx_docker_mg2qopx2gbnq-fill" stroke="none" fill="#484848"><g><text style="font: 20px Roboto, sans-serif; white-space: pre;" font-size="20px" font-family="Roboto, sans-serif"><tspan x="14.84" y="34" dominant-baseline="ideographic">Docker</tspan></text></g></g></g><g id="g-root-tx_sqlite3_1qbydg9x2gb2f-fill" data-item-order="0" transform="translate(159, 255)"><g id="tx_sqlite3_1qbydg9x2gb2f-fill" stroke="none" fill="#484848"><g><text style="font: 20px Roboto, sans-serif; white-space: pre;" font-size="20px" font-family="Roboto, sans-serif"><tspan x="17.16" y="34" dominant-baseline="ideographic">SQLite3</tspan></text></g></g></g><g id="g-root-cu_1lseq3dx2gc91-fill" data-item-order="0" transform="translate(249, 243)"></g><g id="g-root-cu_18hkot5x2gao8-fill" data-item-order="0" transform="translate(249, 243)"></g><g id="g-root-cu_v646ftx2gc96-fill" data-item-order="0" transform="translate(249, 243)"></g><g id="g-root-tx_postgres_zpntspx2gb2h-fill" data-item-order="0" transform="translate(123, 327)"><g id="tx_postgres_zpntspx2gb2h-fill" stroke="none" fill="#484848"><g><text style="font: 20px Roboto, sans-serif; white-space: pre;" font-size="20px" font-family="Roboto, sans-serif"><tspan x="17.2" y="34" dominant-baseline="ideographic">PostgreSQL</tspan></text></g></g></g><g id="g-root-tx_heroku_zqwryxx2gd8l-fill" data-item-order="0" transform="translate(615, 291)"><g id="tx_heroku_zqwryxx2gd8l-fill" stroke="none" fill="#484848"><g><text style="font: 20px Roboto, sans-serif; white-space: pre;" font-size="20px" font-family="Roboto, sans-serif"><tspan x="13.98" y="34" dominant-baseline="ideographic">Heroku</tspan></text></g></g></g><g id="g-root-cu_404ntx2gd1l-fill" data-item-order="0" transform="translate(591, 243)"></g><g id="g-root-cu_1lua5cpx2gb9o-fill" data-item-order="0" transform="translate(591, 243)"></g><g id="g-root-cu_14304uxx2gdmu-fill" data-item-order="0" transform="translate(591, 243)"></g><g id="g-root-tx_mysql_1d0hv2xx2gcnc-fill" data-item-order="0" transform="translate(171, 291)"><g id="tx_mysql_1d0hv2xx2gcnc-fill" stroke="none" fill="#484848"><g><text style="font: 20px Roboto, sans-serif; white-space: pre;" font-size="20px" font-family="Roboto, sans-serif"><tspan x="14.33" y="34" dominant-baseline="ideographic">MySQL</tspan></text></g></g></g><g id="g-root-cu_1q6csyhx2gcg7-fill" data-item-order="0" transform="translate(375, 66)"></g><g id="g-root-cu_2r6hlx2gav6-fill" data-item-order="0" transform="translate(339, 579)"></g><g id="g-root-cu_18ntfo9x2exal-fill" data-item-order="0" transform="translate(519, 374)"></g><g id="g-root-2_1umt1ndwih5oq-fill" data-item-order="1000000000" transform="translate(405, 282)"></g><g id="g-root-tx_webdevel_m7zjbtwih5vt-fill" data-item-order="1000000000" transform="translate(363, 336)"><g id="tx_webdevel_m7zjbtwih5vt-fill" stroke="none" fill="#484848"><g><text style="font: 20px Roboto, sans-serif; white-space: pre;" font-size="20px" font-family="Roboto, sans-serif"><tspan x="55.12" y="34" dominant-baseline="ideographic">Web </tspan><tspan x="16.24" y="58" dominant-baseline="ideographic">Development </tspan><tspan x="38.59" y="82" dominant-baseline="ideographic">Process</tspan></text></g></g></g><g id="g-root-tx_deployme_zp2emxws9pfn-fill" data-item-order="1000000000" transform="translate(615, 204)"><g id="tx_deployme_zp2emxws9pfn-fill" stroke="none" fill="#92bd39"><g><text style="font: 20px Roboto, sans-serif; white-space: pre;" font-size="20px" font-family="Roboto, sans-serif"><tspan x="12.84" y="34" dominant-baseline="ideographic">Deployment &amp; Hosting</tspan></text></g></g></g><g id="g-root-serv_dild3tws9ong-fill" data-item-order="1000000000" transform="translate(579, 201)"></g><g id="g-root-tx_versionc_mg39ndx1zhu0-fill" data-item-order="1000000000" transform="translate(99, 390)"><g id="tx_versionc_mg39ndx1zhu0-fill" stroke="none" fill="#de8431"><g><text style="font: 20px Roboto, sans-serif; white-space: pre;" font-size="20px" font-family="Roboto, sans-serif"><tspan x="13.42" y="34" dominant-baseline="ideographic">Version Control</tspan></text></g></g></g><g id="g-root-sync_1uuwryxx1zhmx-fill" data-item-order="1000000000" transform="translate(249, 387)"></g><g id="g-root-5_1usecntws1a1b-fill" data-item-order="1000000000" transform="translate(579, 387)"></g><g id="g-root-tx_frontend_hxrc7tws1b0m-fill" data-item-order="1000000000" transform="translate(615, 390)"><g id="tx_frontend_hxrc7tws1b0m-fill" stroke="none" fill="#3cc583"><g><text style="font: 20px Roboto, sans-serif; white-space: pre;" font-size="20px" font-family="Roboto, sans-serif"><tspan x="17.36" y="34" dominant-baseline="ideographic">Frontend Development</tspan></text></g></g></g><g id="g-root-data_1cymsgpx2gb9q-fill" data-item-order="1000000000" transform="translate(249, 201)"></g><g id="g-root-tx_database_18efyqhx2ew3p-fill" data-item-order="1000000000" transform="translate(27, 204)"><g id="tx_database_18efyqhx2ew3p-fill" stroke="none" fill="#1eabda"><g><text style="font: 20px Roboto, sans-serif; white-space: pre;" font-size="20px" font-family="Roboto, sans-serif"><tspan x="14.37" y="34" dominant-baseline="ideographic">Database Management</tspan></text></g></g></g><g id="g-root-tx_backendd_146qjkpws6vpg-fill" data-item-order="1000000000" transform="translate(531, 90)"><g id="tx_backendd_146qjkpws6vpg-fill" stroke="none" fill="#ba5de5"><g><text style="font: 20px Roboto, sans-serif; white-space: pre;" font-size="20px" font-family="Roboto, sans-serif"><tspan x="12.67" y="34" dominant-baseline="ideographic">Backend Development</tspan></text></g></g></g><g id="g-root-1_mccbyxwsdypv-fill" data-item-order="1000000000" transform="translate(327, 537)"></g><g id="g-root-tx_apidevel_1hegdqxwsdxxm-fill" data-item-order="1000000000" transform="translate(363, 540)"><g id="tx_apidevel_1hegdqxwsdxxm-fill" stroke="none" fill="#e0cb15"><g><text style="font: 20px Roboto, sans-serif; white-space: pre;" font-size="20px" font-family="Roboto, sans-serif"><tspan x="17.46" y="34" dominant-baseline="ideographic">API Development</tspan></text></g></g></g><g id="g-root-opti_94mxllx2ewoz-fill" data-item-order="1000000000" transform="translate(333, 51)"></g><g id="g-root-tx_optimiza_qvah09x2exhm-fill" data-item-order="1000000000" transform="translate(99, 54)"><g id="tx_optimiza_qvah09x2exhm-fill" stroke="none" fill="#7f64ea"><g><text style="font: 20px Roboto, sans-serif; white-space: pre;" font-size="20px" font-family="Roboto, sans-serif"><tspan x="13.84" y="34" dominant-baseline="ideographic">Optimization Techniques</tspan></text></g></g></g><g id="g-root-acco_dkfzx5ws6vph-fill" data-item-order="1000000000" transform="translate(495, 87)"></g><g id="g-root-ro_1cw5i8pwih4w3-stroke" data-item-order="-31320" transform="translate(339, 258)"><g id="ro_1cw5i8pwih4w3-stroke" fill="none" stroke-linecap="round" stroke-linejoin="round" stroke-miterlimit="4" stroke="#484848" stroke-width="2"><g><path d="M 34 10L 166 10C 166 10 190 10 190 34L 190 160C 190 160 190 184 166 184L 34 184C 34 184 10 184 10 160L 10 34C 10 34 10 10 34 10"></path></g></g></g><g id="g-root-ro_1uuah7dx2ey2s-stroke" data-item-order="-15552" transform="translate(87, 39)"><g id="ro_1uuah7dx2ey2s-stroke" fill="none" stroke-linecap="round" stroke-linejoin="round" stroke-miterlimit="4" stroke="#7f64ea" stroke-width="2"><g><path d="M 22 10L 286 10C 286 10 298 10 298 22L 298 52C 298 52 298 64 286 64L 22 64C 22 64 10 64 10 52L 10 22C 10 22 10 10 22 10"></path></g></g></g><g id="g-root-ro_1lwrcexws1bls-stroke" data-item-order="-14904" transform="translate(567, 375)"><g id="ro_1lwrcexws1bls-stroke" fill="none" stroke-linecap="round" stroke-linejoin="round" stroke-miterlimit="4" stroke="#3cc583" stroke-width="2"><g><path d="M 22 10L 274 10C 274 10 286 10 286 22L 286 52C 286 52 286 64 274 64L 22 64C 22 64 10 64 10 52L 10 22C 10 22 10 10 22 10"></path></g></g></g><g id="g-root-ro_v7cryxx2gdmv-stroke" data-item-order="-14904" transform="translate(15, 189)"><g id="ro_v7cryxx2gdmv-stroke" fill="none" stroke-linecap="round" stroke-linejoin="round" stroke-miterlimit="4" stroke="#1eabda" stroke-width="2"><g><path d="M 22 10L 274 10C 274 10 286 10 286 22L 286 52C 286 52 286 64 274 64L 22 64C 22 64 10 64 10 52L 10 22C 10 22 10 10 22 10"></path></g></g></g><g id="g-root-ro_1qegja1ws6xvy-stroke" data-item-order="-14256" transform="translate(483, 75)"><g id="ro_1qegja1ws6xvy-stroke" fill="none" stroke-linecap="round" stroke-linejoin="round" stroke-miterlimit="4" stroke="#ba5de5" stroke-width="2"><g><path d="M 22 10L 262 10C 262 10 274 10 274 22L 274 52C 274 52 274 64 262 64L 22 64C 22 64 10 64 10 52L 10 22C 10 22 10 10 22 10"></path></g></g></g><g id="g-root-ro_74uqhws9q8d-stroke" data-item-order="-14256" transform="translate(567, 189)"><g id="ro_74uqhws9q8d-stroke" fill="none" stroke-linecap="round" stroke-linejoin="round" stroke-miterlimit="4" stroke="#92bd39" stroke-width="2"><g><path d="M 22 10L 262 10C 262 10 274 10 274 22L 274 52C 274 52 274 64 262 64L 22 64C 22 64 10 64 10 52L 10 22C 10 22 10 10 22 10"></path></g></g></g><g id="g-root-ro_5vaftwsdxxo-stroke" data-item-order="-12312" transform="translate(315, 525)"><g id="ro_5vaftwsdxxo-stroke" fill="none" stroke-linecap="round" stroke-linejoin="round" stroke-miterlimit="4" stroke="#e0cb15" stroke-width="2"><g><path d="M 22 10L 226 10C 226 10 238 10 238 22L 238 52C 238 52 238 64 226 64L 22 64C 22 64 10 64 10 52L 10 22C 10 22 10 10 22 10"></path></g></g></g><g id="g-root-ro_13ymmxlx20w7e-stroke" data-item-order="-11016" transform="translate(87, 375)"><g id="ro_13ymmxlx20w7e-stroke" fill="none" stroke-linecap="round" stroke-linejoin="round" stroke-miterlimit="4" stroke="#de8431" stroke-width="2"><g><path d="M 22 10L 202 10C 202 10 214 10 214 22L 214 52C 214 52 214 64 202 64L 22 64C 22 64 10 64 10 52L 10 22C 10 22 10 10 22 10"></path></g></g></g><g id="g-root-cu_91ik61x2gb9f-stroke" data-item-order="0" transform="translate(333, 93)"><g id="cu_91ik61x2gb9f-stroke" fill="none" stroke-linecap="round" stroke-linejoin="round" stroke-miterlimit="4" stroke="#969696" stroke-width="2" stroke-dasharray="5.0, 7.0"><g><path d="M 28 10L 28 17.5L 28 58C 27.999999 64.627415 22.627416 69.999998 16 69.999998L 15.9 70L 10 70"></path></g></g></g><g id="g-root-tx_github_1ut0tqxx2gcgb-stroke" data-item-order="0" transform="translate(171, 477)"></g><g id="g-root-cu_zs6ffdx2eyv4-stroke" data-item-order="0" transform="translate(459, 102)"><g id="cu_zs6ffdx2eyv4-stroke" fill="none" stroke-linecap="round" stroke-linejoin="round" stroke-miterlimit="4" stroke="#969696" stroke-width="2" stroke-dasharray="5.0, 7.0"><g><path d="M 10 166L 10 146.5L 10 30.9C 10 19.357248 19.357248 10 30.899998 10L 31 10L 34 10"></path></g></g></g><g id="g-root-tx_nextjs_1qa2y6xx2gc23-stroke" data-item-order="0" transform="translate(615, 441)"></g><g id="g-root-cu_v48r6hx2gd8l-stroke" data-item-order="0" transform="translate(591, 429)"><g id="cu_v48r6hx2gd8l-stroke" fill="none" stroke-linecap="round" stroke-linejoin="round" stroke-miterlimit="4" stroke="#969696" stroke-width="2" stroke-dasharray="5.0, 7.0"><g><path d="M 10 10L 10 17.5L 10 58C 10.000002 64.627417 15.372585 70 22.000002 69.999999L 22.1 70L 28 70"></path></g></g></g><g id="g-root-cu_1cviro9x2gave-stroke" data-item-order="0" transform="translate(591, 429)"><g id="cu_1cviro9x2gave-stroke" fill="none" stroke-linecap="round" stroke-linejoin="round" stroke-miterlimit="4" stroke="#969696" stroke-width="2" stroke-dasharray="5.0, 7.0"><g><path d="M 10 10L 10 22L 10 34L 19 34L 28 34"></path></g></g></g><g id="g-root-tx_applicat_1hjfqmxx2gd1k-stroke" data-item-order="0" transform="translate(99, 141)"></g><g id="g-root-cu_m7csrdx2gbur-stroke" data-item-order="0" transform="translate(429, 432)"><g id="cu_m7csrdx2gbur-stroke" fill="none" stroke-linecap="round" stroke-linejoin="round" stroke-miterlimit="4" stroke="#969696" stroke-width="2" stroke-dasharray="5.0, 7.0"><g><path d="M 10 10L 10 56.5L 10 103"></path></g></g></g><g id="g-root-cu_htepw9x2gbnr-stroke" data-item-order="0" transform="translate(507, 129)"><g id="cu_htepw9x2gbnr-stroke" fill="none" stroke-linecap="round" stroke-linejoin="round" stroke-miterlimit="4" stroke="#969696" stroke-width="2" stroke-dasharray="5.0, 7.0"><g><path d="M 10 10L 10 13L 10 22C 10 28.627416 15.372583 33.999999 22 33.999999L 22.1 34L 28 34"></path></g></g></g><g id="g-root-cu_dfgn15x2gbgn-stroke" data-item-order="0" transform="translate(249, 429)"><g id="cu_dfgn15x2gbgn-stroke" fill="none" stroke-linecap="round" stroke-linejoin="round" stroke-miterlimit="4" stroke="#969696" stroke-width="2" stroke-dasharray="5.0, 7.0"><g><path d="M 28 10L 28 17.5L 28 58C 27.999999 64.627415 22.627416 69.999998 16 69.999998L 15.9 70L 10 70"></path></g></g></g><g id="g-root-cu_hva55lx2gaoc-stroke" data-item-order="0" transform="translate(249, 429)"><g id="cu_hva55lx2gaoc-stroke" fill="none" stroke-linecap="round" stroke-linejoin="round" stroke-miterlimit="4" stroke="#969696" stroke-width="2" stroke-dasharray="5.0, 7.0"><g><path d="M 28 10L 28 22L 28 34L 19 34L 10 34"></path></g></g></g><g id="g-root-tx_django_mcbw61x2gdn1-stroke" data-item-order="0" transform="translate(531, 141)"></g><g id="g-root-cu_znt3tlx2gb9c-stroke" data-item-order="0" transform="translate(333, 93)"><g id="cu_znt3tlx2gb9c-stroke" fill="none" stroke-linecap="round" stroke-linejoin="round" stroke-miterlimit="4" stroke="#969696" stroke-width="2" stroke-dasharray="5.0, 7.0"><g><path d="M 28 10L 28 22L 28 34L 19 34L 10 34"></path></g></g></g><g id="g-root-tx_apioptim_9lp5lx2gavj-stroke" data-item-order="0" transform="translate(171, 105)"></g><g id="g-root-tx_git_93da55x2gb2i-stroke" data-item-order="0" transform="translate(207, 441)"></g><g id="g-root-tx_djangore_91huvtx2gc26-stroke" data-item-order="0" transform="translate(363, 591)"></g><g id="g-root-tx_aws_1d2dac9x2gbno-stroke" data-item-order="0" transform="translate(615, 255)"></g><g id="g-root-cu_dbpsihx2gcni-stroke" data-item-order="0" transform="translate(291, 216)"><g id="cu_dbpsihx2gcni-stroke" fill="none" stroke-linecap="round" stroke-linejoin="round" stroke-miterlimit="4" stroke="#969696" stroke-width="2" stroke-dasharray="5.0, 7.0"><g><path d="M 58 110L 55 110L 54.9 110C 43.357245 109.999995 33.999997 100.642746 33.999997 89.099996L 34 89L 34 30.9C 33.999998 19.357248 24.64275 10 13.1 10L 13 10L 10 10"></path></g></g></g><g id="g-root-cu_8vwae1x2gdft-stroke" data-item-order="0" transform="translate(291, 374)"><g id="cu_8vwae1x2gdft-stroke" fill="none" stroke-linecap="round" stroke-linejoin="round" stroke-miterlimit="4" stroke="#969696" stroke-width="2" stroke-dasharray="5.0, 7.0"><g><path d="M 58 10L 55 10L 54.9 10C 50.870243 9.983299 46.497953 11.301926 42.300001 13.8C 39.78535 15.340094 36.796876 19.012676 34.000001 24C 31.203126 28.987325 28.214652 32.659907 25.700001 34.2C 21.502047 36.698075 17.129757 38.016702 13.1 38.000002L 13 38L 10 38"></path></g></g></g><g id="g-root-cu_1um6b2xx2gbnw-stroke" data-item-order="0" transform="translate(519, 216)"><g id="cu_1um6b2xx2gbnw-stroke" fill="none" stroke-linecap="round" stroke-linejoin="round" stroke-miterlimit="4" stroke="#969696" stroke-width="2" stroke-dasharray="5.0, 7.0"><g><path d="M 10 110L 13 110L 13.1 110C 24.642751 110.000007 34.000001 100.642757 34.000001 89.100005L 34 89L 34 30.9C 33.999999 19.357249 43.357248 10.000001 54.899999 10.000002L 55 10L 58 10"></path></g></g></g><g id="g-root-tx_reactjs_18jfes9x2gb9g-stroke" data-item-order="0" transform="translate(615, 477)"></g><g id="g-root-tx_docker_mg2qopx2gbnq-stroke" data-item-order="0" transform="translate(615, 327)"></g><g id="g-root-tx_sqlite3_1qbydg9x2gb2f-stroke" data-item-order="0" transform="translate(159, 255)"></g><g id="g-root-cu_1lseq3dx2gc91-stroke" data-item-order="0" transform="translate(249, 243)"><g id="cu_1lseq3dx2gc91-stroke" fill="none" stroke-linecap="round" stroke-linejoin="round" stroke-miterlimit="4" stroke="#969696" stroke-width="2" stroke-dasharray="5.0, 7.0"><g><path d="M 28 10L 28 22L 28 34L 19 34L 10 34"></path></g></g></g><g id="g-root-cu_18hkot5x2gao8-stroke" data-item-order="0" transform="translate(249, 243)"><g id="cu_18hkot5x2gao8-stroke" fill="none" stroke-linecap="round" stroke-linejoin="round" stroke-miterlimit="4" stroke="#969696" stroke-width="2" stroke-dasharray="5.0, 7.0"><g><path d="M 28 10L 28 40L 28 70L 19 70L 10 70"></path></g></g></g><g id="g-root-cu_v646ftx2gc96-stroke" data-item-order="0" transform="translate(249, 243)"><g id="cu_v646ftx2gc96-stroke" fill="none" stroke-linecap="round" stroke-linejoin="round" stroke-miterlimit="4" stroke="#969696" stroke-width="2" stroke-dasharray="5.0, 7.0"><g><path d="M 28 10L 28 22L 28 94C 28.000002 100.627415 22.627419 105.999998 16.000002 105.999998L 15.9 106L 10 106"></path></g></g></g><g id="g-root-tx_postgres_zpntspx2gb2h-stroke" data-item-order="0" transform="translate(123, 327)"></g><g id="g-root-tx_heroku_zqwryxx2gd8l-stroke" data-item-order="0" transform="translate(615, 291)"></g><g id="g-root-cu_404ntx2gd1l-stroke" data-item-order="0" transform="translate(591, 243)"><g id="cu_404ntx2gd1l-stroke" fill="none" stroke-linecap="round" stroke-linejoin="round" stroke-miterlimit="4" stroke="#969696" stroke-width="2" stroke-dasharray="5.0, 7.0"><g><path d="M 10 10L 10 22L 10 34L 19 34L 28 34"></path></g></g></g><g id="g-root-cu_1lua5cpx2gb9o-stroke" data-item-order="0" transform="translate(591, 243)"><g id="cu_1lua5cpx2gb9o-stroke" fill="none" stroke-linecap="round" stroke-linejoin="round" stroke-miterlimit="4" stroke="#969696" stroke-width="2" stroke-dasharray="5.0, 7.0"><g><path d="M 10 10L 10 40L 10 70L 19 70L 28 70"></path></g></g></g><g id="g-root-cu_14304uxx2gdmu-stroke" data-item-order="0" transform="translate(591, 243)"><g id="cu_14304uxx2gdmu-stroke" fill="none" stroke-linecap="round" stroke-linejoin="round" stroke-miterlimit="4" stroke="#969696" stroke-width="2" stroke-dasharray="5.0, 7.0"><g><path d="M 10 10L 10 22L 10 94C 10.000004 100.627423 15.372587 106.000006 22.000005 106.000005L 22.1 106L 28 106"></path></g></g></g><g id="g-root-tx_mysql_1d0hv2xx2gcnc-stroke" data-item-order="0" transform="translate(171, 291)"></g><g id="g-root-cu_1q6csyhx2gcg7-stroke" data-item-order="0" transform="translate(375, 66)"><g id="cu_1q6csyhx2gcg7-stroke" fill="none" stroke-linecap="round" stroke-linejoin="round" stroke-miterlimit="4" stroke="#969696" stroke-width="2" stroke-dasharray="5.0, 7.0"><g><path d="M 34 202L 34 178L 34 30.9C 33.999998 19.357248 24.64275 10 13.1 10L 13 10L 10 10"></path></g></g></g><g id="g-root-cu_2r6hlx2gav6-stroke" data-item-order="0" transform="translate(339, 579)"><g id="cu_2r6hlx2gav6-stroke" fill="none" stroke-linecap="round" stroke-linejoin="round" stroke-miterlimit="4" stroke="#969696" stroke-width="2" stroke-dasharray="5.0, 7.0"><g><path d="M 10 10L 10 13L 10 22C 10 28.627416 15.372583 33.999999 22 33.999999L 22.1 34L 28 34"></path></g></g></g><g id="g-root-cu_18ntfo9x2exal-stroke" data-item-order="0" transform="translate(519, 374)"><g id="cu_18ntfo9x2exal-stroke" fill="none" stroke-linecap="round" stroke-linejoin="round" stroke-miterlimit="4" stroke="#969696" stroke-width="2" stroke-dasharray="5.0, 7.0"><g><path d="M 10 10L 13 10L 13.1 10C 17.129758 9.983299 21.502048 11.301927 25.7 13.8C 28.214651 15.340094 31.203125 19.012675 34 24C 36.796876 28.987324 39.785349 32.659906 42.3 34.2C 46.497954 36.698075 50.870244 38.016703 54.900001 38.000002L 55 38L 58 38"></path></g></g></g><g id="g-root-2_1umt1ndwih5oq-stroke" data-item-order="1000000000" transform="translate(405, 282)"><g id="2_1umt1ndwih5oq-stroke" fill="none" stroke-linecap="round" stroke-linejoin="round" stroke-miterlimit="4" stroke="#484848" stroke-width="2"><g><path d="M 27.142857 34C 27.142857 37.787094 30.212906 40.857143 34 40.857143C 37.787094 40.857143 40.857143 37.787094 40.857143 34C 40.857143 30.212906 37.787094 27.142857 34 27.142857C 30.212906 27.142857 27.142857 30.212906 27.142857 34M 11.714286 34C 11.714286 36.366936 13.633065 38.285713 16 38.285713C 18.366936 38.285713 20.285715 36.366936 20.285715 34C 20.285715 31.633066 18.366936 29.714287 16 29.714287C 13.633065 29.714287 11.714286 31.633066 11.714286 34M 47.714287 34C 47.714287 36.366936 49.633068 38.285713 52 38.285713C 54.366936 38.285713 56.285713 36.366936 56.285713 34C 56.285713 31.633066 54.366936 29.714287 52 29.714287C 49.633068 29.714287 47.714287 31.633066 47.714287 34M 20.285715 34L 27.142857 34M 40.857143 34L 47.714287 34"></path></g></g></g><g id="g-root-tx_webdevel_m7zjbtwih5vt-stroke" data-item-order="1000000000" transform="translate(363, 336)"></g><g id="g-root-tx_deployme_zp2emxws9pfn-stroke" data-item-order="1000000000" transform="translate(615, 204)"></g><g id="g-root-serv_dild3tws9ong-stroke" data-item-order="1000000000" transform="translate(579, 201)"><g id="serv_dild3tws9ong-stroke" fill="none" stroke-linecap="round" stroke-linejoin="round" stroke-miterlimit="4" stroke="#92bd39" stroke-width="2"><g><path d="M 35.625 18.658751C 35.604069 17.425695 35.082287 16.254242 34.179691 15.413896C 33.277096 14.573548 32.071404 14.136663 30.839998 14.20375C 29.734344 11.995436 27.46958 10.607589 25 10.625C 21.637741 10.576427 18.815884 13.14772 18.5525 16.5C 17.549095 16.278038 16.499016 16.516819 15.690258 17.150854C 14.8815 17.784889 14.398968 18.747618 14.375 19.775C 14.375 23.1775 18.07 23.125 18.07 23.125L 31.467499 23.125C 31.467499 23.125 35.625 22.598751 35.625 18.658751ZM 18.4375 35.936249C 18.265074 35.936249 18.125233 36.075909 18.125004 36.248337C 18.124773 36.420761 18.264244 36.560791 18.43667 36.561249C 18.609095 36.561707 18.74931 36.422424 18.75 36.25C 18.750334 36.167015 18.717516 36.087337 18.65884 36.02866C 18.600163 35.969982 18.520481 35.937164 18.4375 35.9375L 18.4375 35.9375M 21.5625 35.936249C 21.390074 35.936249 21.250231 36.075909 21.250002 36.248337C 21.249773 36.420761 21.389244 36.560791 21.56167 36.561249C 21.734097 36.561707 21.87431 36.422424 21.875 36.25C 21.875334 36.167015 21.842516 36.087337 21.78384 36.02866C 21.725161 35.969982 21.645481 35.937164 21.5625 35.9375L 21.5625 35.9375M 35.625 37.5C 35.625 38.535534 34.785534 39.375 33.75 39.375L 16.25 39.375C 15.214466 39.375 14.375 38.535534 14.375 37.5L 14.375 35C 14.375 33.964466 15.214466 33.125 16.25 33.125L 33.75 33.125C 34.785534 33.125 35.625 33.964466 35.625 35ZM 18.4375 29.686249C 18.265074 29.686253 18.125233 29.825909 18.125004 29.998335C 18.124773 30.170761 18.264244 30.310791 18.43667 30.311249C 18.609095 30.311708 18.74931 30.172424 18.75 30C 18.750334 29.917017 18.717516 29.837337 18.65884 29.77866C 18.600163 29.719982 18.520481 29.687164 18.4375 29.687498L 18.4375 29.6875M 21.5625 29.686249C 21.390074 29.686253 21.250231 29.825909 21.250002 29.998335C 21.249773 30.170761 21.389244 30.310791 21.56167 30.311249C 21.734097 30.311708 21.87431 30.172424 21.875 30C 21.875334 29.917017 21.842516 29.837337 21.78384 29.77866C 21.725161 29.719982 21.645481 29.687164 21.5625 29.687498L 21.5625 29.6875M 35.625 31.25C 35.625 32.285534 34.785534 33.125 33.75 33.125L 16.25 33.125C 15.214466 33.125 14.375 32.285534 14.375 31.25L 14.375 28.75C 14.375 27.714466 15.214466 26.875 16.25 26.875L 33.75 26.875C 34.785534 26.875 35.625 27.714466 35.625 28.75Z"></path></g></g></g><g id="g-root-tx_versionc_mg39ndx1zhu0-stroke" data-item-order="1000000000" transform="translate(99, 390)"></g><g id="g-root-sync_1uuwryxx1zhmx-stroke" data-item-order="1000000000" transform="translate(249, 387)"><g id="sync_1uuwryxx1zhmx-stroke" fill="none" stroke-linecap="round" stroke-linejoin="round" stroke-miterlimit="4" stroke="#de8431" stroke-width="2"><g><path d="M 20.625 39.375L 11.875 39.375C 11.184644 39.375 10.625 38.815353 10.625 38.125L 10.625 11.875C 10.625 11.184644 11.184644 10.625 11.875 10.625L 28.487499 10.625C 28.819754 10.623079 29.139101 10.753517 29.375 10.9875L 34.012497 15.625C 34.246483 15.860899 34.376923 16.180246 34.375 16.512501L 34.375 20.625M 14.375 16.875L 14.375 21.875M 25.625 16.875L 25.625 21.875M 21.875 25.625L 21.875 30.625M 29.375 16.875L 29.375 21.875M 20 16.875C 21.035534 16.875 21.875 17.714466 21.875 18.75L 21.875 20C 21.875 21.035534 21.035534 21.875 20 21.875C 18.964466 21.875 18.125 21.035534 18.125 20L 18.125 18.75C 18.125 17.714466 18.964466 16.875 20 16.875ZM 16.25 25.625C 17.285534 25.625 18.125 26.464466 18.125 27.5L 18.125 28.75C 18.125 29.785534 17.285534 30.625 16.25 30.625C 15.214466 30.625 14.375 29.785534 14.375 28.75L 14.375 27.5C 14.375 26.464466 15.214466 25.625 16.25 25.625ZM 33.862499 28.925001L 37.662498 30.625L 39.375 26.7875M 24.15 29.075001C 25.210592 25.98177 28.280867 24.043419 31.52957 24.416073C 34.778271 24.788727 37.32988 27.371956 37.662502 30.625M 27.975 34.825001L 24.174999 33.125L 22.4625 36.962502M 37.6875 34.662498C 36.628666 37.755024 33.561069 39.694588 30.313261 39.325039C 27.065451 38.95549 24.512007 36.376347 24.174999 33.125"></path></g></g></g><g id="g-root-5_1usecntws1a1b-stroke" data-item-order="1000000000" transform="translate(579, 387)"><g id="5_1usecntws1a1b-stroke" fill="none" stroke-linecap="round" stroke-linejoin="round" stroke-miterlimit="4" stroke="#3cc583" stroke-width="2"><g><path d="M 13.214286 11.071428L 36.785713 11.071428C 36.785713 11.071428 38.92857 11.071428 38.92857 13.214286L 38.92857 36.785713C 38.92857 36.785713 38.92857 38.92857 36.785713 38.92857L 13.214286 38.92857C 13.214286 38.92857 11.071428 38.92857 11.071428 36.785713L 11.071428 13.214286C 11.071428 13.214286 11.071428 11.071428 13.214286 11.071428M 11.071428 17.5L 38.92857 17.5M 30.357141 17.5L 30.357141 38.92857"></path></g></g></g><g id="g-root-tx_frontend_hxrc7tws1b0m-stroke" data-item-order="1000000000" transform="translate(615, 390)"></g><g id="g-root-data_1cymsgpx2gb9q-stroke" data-item-order="1000000000" transform="translate(249, 201)"><g id="data_1cymsgpx2gb9q-stroke" fill="none" stroke-linecap="round" stroke-linejoin="round" stroke-miterlimit="4" stroke="#1eabda" stroke-width="2"><g><path d="M 11.071428 16.428572C 11.071429 19.387239 17.307463 21.785713 25 21.785713C 32.692539 21.785713 38.92857 19.387239 38.92857 16.428572C 38.92857 13.469903 32.692539 11.071428 25 11.071428C 17.307463 11.071428 11.071429 13.469903 11.071429 16.428572M 11.071428 16.428572L 11.071428 33.571426C 11.071428 36.528572 17.307142 38.92857 25 38.92857C 32.692856 38.92857 38.92857 36.528572 38.92857 33.571426L 38.92857 16.428572M 38.92857 25C 38.92857 27.957142 32.692856 30.357141 25 30.357141C 17.307142 30.357141 11.071428 27.957142 11.071428 25"></path></g></g></g><g id="g-root-tx_database_18efyqhx2ew3p-stroke" data-item-order="1000000000" transform="translate(27, 204)"></g><g id="g-root-tx_backendd_146qjkpws6vpg-stroke" data-item-order="1000000000" transform="translate(531, 90)"></g><g id="g-root-1_mccbyxwsdypv-stroke" data-item-order="1000000000" transform="translate(327, 537)"><g id="1_mccbyxwsdypv-stroke" fill="none" stroke-linecap="round" stroke-linejoin="round" stroke-miterlimit="4" stroke="#e0cb15" stroke-width="2"><g><path d="M 21.785713 25C 21.785713 26.775202 23.2248 28.214285 25 28.214285C 26.775202 28.214285 28.214285 26.775202 28.214285 25C 28.214285 23.2248 26.775202 21.785713 25 21.785713C 23.2248 21.785713 21.785713 23.2248 21.785713 25M 11.071428 25C 11.071428 26.775202 12.510513 28.214285 14.285714 28.214285C 16.060915 28.214285 17.5 26.775202 17.5 25C 17.5 23.2248 16.060915 21.785713 14.285714 21.785713C 12.510513 21.785713 11.071428 23.2248 11.071428 25M 32.5 25C 32.5 26.775202 33.939087 28.214285 35.714287 28.214285C 37.489487 28.214285 38.92857 26.775202 38.92857 25C 38.92857 23.2248 37.489487 21.785713 35.714287 21.785713C 33.939087 21.785713 32.5 23.2248 32.5 25M 17.5 25L 21.785713 25M 28.214285 25L 32.5 25"></path></g></g></g><g id="g-root-tx_apidevel_1hegdqxwsdxxm-stroke" data-item-order="1000000000" transform="translate(363, 540)"></g><g id="g-root-opti_94mxllx2ewoz-stroke" data-item-order="1000000000" transform="translate(333, 51)"><g id="opti_94mxllx2ewoz-stroke" fill="none" stroke-linecap="round" stroke-linejoin="round" stroke-miterlimit="4" stroke="#7f64ea" stroke-width="2"><g><path d="M 25 21.487499L 14.1375 21.487499C 12.197633 21.487547 10.625086 23.060133 10.625086 25C 10.625086 26.939867 12.197633 28.512453 14.1375 28.512499L 21.487499 28.512501L 21.487499 35.862499C 21.487547 37.802368 23.060133 39.374916 25 39.374916C 26.939867 39.374916 28.512453 37.802368 28.512499 35.862499L 28.512501 25C 28.512499 23.060101 26.939899 21.487499 25 21.487499ZM 35.862499 10.625L 25 10.625C 23.060133 10.625048 21.487585 12.197633 21.487585 14.1375C 21.487585 16.077366 23.060133 17.649952 25 17.65L 32.349998 17.65L 32.349998 25C 32.349953 26.939934 33.922565 28.512585 35.862499 28.512585C 37.802433 28.512585 39.375046 26.939934 39.375 25L 39.375 14.1375C 39.375 12.197599 37.802399 10.625 35.862499 10.625ZM 10.625 25C 10.624952 26.939934 12.197566 28.512585 14.1375 28.512585C 16.077435 28.512585 17.650047 26.939934 17.65 25C 17.650047 23.060066 16.077435 21.487413 14.1375 21.487413C 12.197566 21.487413 10.624952 23.060066 10.625 25"></path></g></g></g><g id="g-root-tx_optimiza_qvah09x2exhm-stroke" data-item-order="1000000000" transform="translate(99, 54)"></g><g id="g-root-acco_dkfzx5ws6vph-stroke" data-item-order="1000000000" transform="translate(495, 87)"><g id="acco_dkfzx5ws6vph-stroke" fill="none" stroke-linecap="round" stroke-linejoin="round" stroke-miterlimit="4" stroke="#ba5de5" stroke-width="2"><g><path d="M 13.125 10.625L 36.875 10.625C 36.875 10.625 39.375 10.625 39.375 13.125L 39.375 36.875C 39.375 36.875 39.375 39.375 36.875 39.375L 13.125 39.375C 13.125 39.375 10.625 39.375 10.625 36.875L 10.625 13.125C 10.625 13.125 10.625 10.625 13.125 10.625M 10.625 16.875L 39.375 16.875M 27.5 20.625L 35 20.625C 35 20.625 35.625 20.625 35.625 21.25L 35.625 26.25C 35.625 26.25 35.625 26.875 35 26.875L 27.5 26.875C 27.5 26.875 26.875 26.875 26.875 26.25L 26.875 21.25C 26.875 21.25 26.875 20.625 27.5 20.625M 27.5 29.375L 35 29.375C 35 29.375 35.625 29.375 35.625 30L 35.625 35C 35.625 35 35.625 35.625 35 35.625L 27.5 35.625C 27.5 35.625 26.875 35.625 26.875 35L 26.875 30C 26.875 30 26.875 29.375 27.5 29.375M 15 20.625L 22.5 20.625C 22.5 20.625 23.125 20.625 23.125 21.25L 23.125 30C 23.125 30 23.125 30.625 22.5 30.625L 15 30.625C 15 30.625 14.375 30.625 14.375 30L 14.375 21.25C 14.375 21.25 14.375 20.625 15 20.625M 16.875 25C 16.875 26.035534 17.714466 26.875 18.75 26.875C 19.785534 26.875 20.625 26.035534 20.625 25C 20.625 23.964466 19.785534 23.125 18.75 23.125C 17.714466 23.125 16.875 23.964466 16.875 25M 15.625 30.625C 15.46833 28.731516 16.859306 27.062347 18.75 26.875C 20.640696 27.062347 22.03167 28.731516 21.875 30.625M 15 33.125L 20 33.125M 15 35.625L 20 35.625M 15 13.4375C 15.172588 13.4375 15.3125 13.577411 15.3125 13.75C 15.3125 13.922589 15.172588 14.0625 15 14.0625C 14.827411 14.0625 14.6875 13.922589 14.6875 13.75C 14.6875 13.577411 14.827411 13.4375 15 13.4375M 18.75 13.4375C 18.922588 13.4375 19.0625 13.577411 19.0625 13.75C 19.0625 13.922589 18.922588 14.0625 18.75 14.0625C 18.577412 14.0625 18.4375 13.922589 18.4375 13.75C 18.4375 13.577411 18.577412 13.4375 18.75 13.4375M 22.5 13.4375C 22.672588 13.4375 22.8125 13.577411 22.8125 13.75C 22.8125 13.922589 22.672588 14.0625 22.5 14.0625C 22.327412 14.0625 22.1875 13.922589 22.1875 13.75C 22.1875 13.577411 22.327412 13.4375 22.5 13.4375"></path></g></g></g></g></g></svg>