<?xml version="1.0" encoding="utf-8" standalone="yes"?>
<!DOCTYPE svg PUBLIC "-//W3C//DTD SVG 1.1//EN" "http://www.w3.org/Graphics/SVG/1.1/DTD/svg11.dtd">
<svg width="794" height="578" viewBox="0 0 794 578" style="fill:none;stroke:none;fill-rule:evenodd;clip-rule:evenodd;stroke-linecap:round;stroke-linejoin:round;stroke-miterlimit:1.5;" version="1.1" xmlns="http://www.w3.org/2000/svg" xmlns:xlink="http://www.w3.org/1999/xlink"><style id="fontImports">@import url("https://fonts.googleapis.com/css2?family=Shantell+Sans:wght@300..800&amp;display=block");</style><g id="items" style="isolation: isolate"><g id="blend" style="mix-blend-mode: normal"><g id="g-root-0.cu_sy_7q6q1whxhqc-fill" data-item-order="-150739" transform="translate(254.00885009765625, 207)"><g id="0.cu_sy_7q6q1whxhqc-fill" stroke="none" fill="#ebebeb"><g><path d="M 41.8313 44.4598C 26.76 59.2893 15.5897 78.0715 10.000011 99.1266L 40.8737 130L 10 160.873C 15.625 182.062 26.9016 200.948 42.1177 215.821L 82.5012 205L 93.3555 245.509C 103.7319 248.435 114.679 250 125.991 250C 136.943 250 147.552 248.533 157.632 245.785L 168.561 205L 209.666 216.015C 224.605 201.48 235.77 183.087 241.554 162.445L 209.109 130L 241.554 97.5554C 235.807 77.0458 224.748 58.7566 209.954 44.266L 168.56 55.3574L 157.529 14.1873C 147.479 11.4571 136.905 10 125.991 10C 114.716 10 103.8049 11.5549 93.4592 14.462L 82.5017 55.3574L 41.8313 44.4598Z"></path></g></g></g><g id="g-root-6.cu_sy_1ly07exwhxfyd-fill" data-item-order="-150735" transform="translate(244.56106567382812, 145.561767578125)"><g id="6.cu_sy_1ly07exwhxfyd-fill" stroke="none" fill="#ffd9d8"><g><path d="M 45.585069 104.372569C 33.719169 101.193169 23.066269 93.487169 16.438769 82.007969C 3.183969 59.049969 11.049969 29.693569 34.007969 16.438769C 56.966069 3.183969 86.322369 11.049969 99.577169 34.007969C 106.204669 45.486969 107.551869 58.565569 104.372469 70.431269L 91.949469 116.795969L 45.595669 104.375369C 45.592169 104.374469 45.588569 104.373469 45.585069 104.372569Z"></path></g></g></g><g id="g-root-5.cu_sy_18mjp1lwhxhja-fill" data-item-order="-150731" transform="translate(169, 279)"><g id="5.cu_sy_18mjp1lwhxhja-fill" stroke="none" fill="#e7e1ff"><g><path d="M 91.9414 91.9408C 83.2551 100.6273 71.255 106 58 106C 31.4903 106 10.000001 84.5097 10 58C 9.999999 31.4903 31.4903 10.000001 58 10C 71.2548 9.999999 83.2548 15.3726 91.9411 24.0589L 125.883 57.9997L 91.9492 91.9331C 91.9466 91.9356 91.944 91.9382 91.9414 91.9408Z"></path></g></g></g><g id="g-root-4.cu_sy_vbpnrdwhxfyf-fill" data-item-order="-150727" transform="translate(244.56106567382812, 402.000244140625)"><g id="4.cu_sy_vbpnrdwhxfyf-fill" stroke="none" fill="#ffe4cb"><g><path d="M 104.372369 56.3644C 107.551869 68.2302 106.204669 81.309 99.577169 92.7881C 86.322369 115.746 56.966069 123.612 34.007969 110.357C 11.049969 97.1025 3.183969 67.7462 16.438769 44.7881C 23.066169 33.3091 33.718969 25.6031 45.584669 22.4237L 91.948969 10L 104.369469 56.3538C 104.370369 56.3573 104.371369 56.3609 104.372369 56.3644Z"></path></g></g></g><g id="g-root-3.cu_sy_dkfn9lwhxibk-fill" data-item-order="-150723" transform="translate(398.50244140625, 402.000244140625)"><g id="3.cu_sy_dkfn9lwhxibk-fill" stroke="none" fill="#e9ffb9"><g><path d="M 11.6437 56.3644C 8.4641 68.2302 9.8113 81.309 16.4388 92.7881C 29.6936 115.746 59.05 123.612 82.008 110.357C 104.9661 97.1025 112.832 67.7462 99.5772 44.7881C 92.9498 33.3091 82.297 25.6031 70.4313 22.4237L 24.067 10L 11.6465 56.3538C 11.6456 56.3573 11.6446 56.3609 11.6437 56.3644Z"></path></g></g></g><g id="g-root-2.cu_sy_1qf2nplwhxhc9-fill" data-item-order="-150719" transform="translate(453.11767578125, 279)"><g id="2.cu_sy_1qf2nplwhxhc9-fill" stroke="none" fill="#c8ffe5"><g><path d="M 43.9411 91.9408C 52.6274 100.6273 64.6276 106 77.8825 106C 104.3922 106 125.883 84.5097 125.883 58C 125.883 31.4903 104.3922 10.000001 77.8825 10C 64.6277 9.999999 52.6277 15.3726 43.9414 24.0589L 10 57.9997L 43.9333 91.9331C 43.9359 91.9356 43.9385 91.9382 43.9411 91.9408Z"></path></g></g></g><g id="g-root-1.cu_sy_18efix5whyv42-fill" data-item-order="-150715" transform="translate(398.50250244140625, 145.561767578125)"><g id="1.cu_sy_18efix5whyv42-fill" stroke="none" fill="#d1f4ff"><g><path d="M 70.430869 104.372569C 82.296769 101.193169 92.949669 93.487169 99.577169 82.007969C 112.831969 59.049969 104.966069 29.693569 82.007969 16.438769C 59.049969 3.183969 29.693569 11.049969 16.438769 34.007969C 9.811369 45.486969 8.464169 58.565569 11.643569 70.431269L 24.066469 116.795969L 70.420269 104.375369C 70.423769 104.374469 70.427369 104.373469 70.430869 104.372569Z"></path></g></g></g><g id="g-root-cog_18lau15wibite-fill" data-item-order="0" transform="translate(267, 171)"></g><g id="g-root-1_4pfte1wi5wy5-fill" data-item-order="0" transform="translate(423, 171)"></g><g id="g-root-tx_apioptim_9mefdwia32a-fill" data-item-order="0" transform="translate(81, 87)"><g id="tx_apioptim_9mefdwia32a-fill" stroke="none" fill="#e55753"><g><text style="font: bold 20px &quot;Shantell Sans&quot;, cursive; white-space: pre;" font-weight="bold" font-size="20px" font-family="'Shantell Sans', cursive"><tspan x="113.42" y="35" dominant-baseline="ideographic">API </tspan><tspan x="17.44" y="59" dominant-baseline="ideographic">Optimization</tspan></text></g></g></g><g id="g-root-tx_deployme_dkgfplwia4n5-fill" data-item-order="0" transform="translate(15, 255)"><g id="tx_deployme_dkgfplwia4n5-fill" stroke="none" fill="#7f64ea"><g><text style="font: bold 20px &quot;Shantell Sans&quot;, cursive; white-space: pre;" font-weight="bold" font-size="20px" font-family="'Shantell Sans', cursive"><tspan x="17.59" y="35" dominant-baseline="ideographic">Deployment </tspan><tspan x="37.56" y="59" dominant-baseline="ideographic">Platforms</tspan></text></g></g></g><g id="g-root-tx_backendf_1d2dzm1wia32n-fill" data-item-order="0" transform="translate(591, 255)"><g id="tx_backendf_1d2dzm1wia32n-fill" stroke="none" fill="#3cc583"><g><text style="font: bold 20px &quot;Shantell Sans&quot;, cursive; white-space: pre;" font-weight="bold" font-size="20px" font-family="'Shantell Sans', cursive"><tspan x="12" y="35" dominant-baseline="ideographic">Backend </tspan><tspan x="12" y="59" dominant-baseline="ideographic">Frameworks</tspan></text></g></g></g><g id="g-root-tx_componen_v2z0jtwhywoz-fill" data-item-order="0" transform="translate(106, 27)"><g id="tx_componen_v2z0jtwhywoz-fill" stroke="none" fill="#484848"><g><text style="font: bold 25px &quot;Shantell Sans&quot;, cursive; white-space: pre;" font-weight="bold" font-size="25px" font-family="'Shantell Sans', cursive"><tspan x="16.75" y="45" dominant-baseline="ideographic">Components of a Robust Web Application</tspan></text></g></g></g><g id="g-root-tx_frontend_m7csqxwibjt8-fill" data-item-order="0" transform="translate(513, 87)"><g id="tx_frontend_m7csqxwibjt8-fill" stroke="none" fill="#1eabda"><g><text style="font: bold 20px &quot;Shantell Sans&quot;, cursive; white-space: pre;" font-weight="bold" font-size="20px" font-family="'Shantell Sans', cursive"><tspan x="12" y="35" dominant-baseline="ideographic">Frontend </tspan><tspan x="12" y="59" dominant-baseline="ideographic">Technologies</tspan></text></g></g></g><g id="g-root-tx_technolo_7qz61wia41y-fill" data-item-order="0" transform="translate(513, 147)"><g id="tx_technolo_7qz61wia41y-fill" stroke="none" fill="#484848"><g><text style="font: 11.7px &quot;Shantell Sans&quot;, cursive; white-space: pre;" font-size="11.7px" font-family="'Shantell Sans', cursive"><tspan x="12" y="29" dominant-baseline="ideographic">Technologies used for </tspan><tspan x="12" y="43" dominant-baseline="ideographic">building user interfaces</tspan></text></g></g></g><g id="g-root-tx_services_dhc2a1wia3gq-fill" data-item-order="0" transform="translate(3, 315)"><g id="tx_services_dhc2a1wia3gq-fill" stroke="none" fill="#484848"><g><text style="font: 11.7px &quot;Shantell Sans&quot;, cursive; white-space: pre;" font-size="11.7px" font-family="'Shantell Sans', cursive"><tspan x="14.67" y="29" dominant-baseline="ideographic">Services for hosting and </tspan><tspan x="25.67" y="43" dominant-baseline="ideographic">deploying applications</tspan></text></g></g></g><g id="g-root-glob_m8l7yhwi8pom-fill" data-item-order="0" transform="translate(189, 303)"></g><g id="g-root-1_24j2hwieb5y-fill" data-item-order="0" transform="translate(496, 303)"></g><g id="g-root-tx_framewor_qu1itlwia41x-fill" data-item-order="0" transform="translate(591, 315)"><g id="tx_framewor_qu1itlwia41x-fill" stroke="none" fill="#484848"><g><text style="font: 11.7px &quot;Shantell Sans&quot;, cursive; white-space: pre;" font-size="11.7px" font-family="'Shantell Sans', cursive"><tspan x="12" y="28" dominant-baseline="ideographic">Frameworks for server-side </tspan><tspan x="12" y="42" dominant-baseline="ideographic">logic and database </tspan><tspan x="12" y="56" dominant-baseline="ideographic">interaction</tspan></text></g></g></g><g id="g-root-tx_systemsf_18kp289wia4uk-fill" data-item-order="0" transform="translate(513, 483.000244140625)"><g id="tx_systemsf_18kp289wia4uk-fill" stroke="none" fill="#484848"><g><text style="font: 11.7px &quot;Shantell Sans&quot;, cursive; white-space: pre;" font-size="11.7px" font-family="'Shantell Sans', cursive"><tspan x="12" y="29" dominant-baseline="ideographic">Systems for storing and </tspan><tspan x="12" y="43" dominant-baseline="ideographic">retrieving data</tspan></text></g></g></g><g id="g-root-tx_versionc_vb3z49wia5fs-fill" data-item-order="0" transform="translate(57, 447.000244140625)"><g id="tx_versionc_vb3z49wia5fs-fill" stroke="none" fill="#de8431"><g><text style="font: bold 20px &quot;Shantell Sans&quot;, cursive; white-space: pre;" font-weight="bold" font-size="20px" font-family="'Shantell Sans', cursive"><tspan x="13.89" y="35" dominant-baseline="ideographic">Version Control</tspan></text></g></g></g><g id="g-root-bran_zisyh5whxfyl-fill" data-item-order="0" transform="translate(267, 435.000244140625)"></g><g id="g-root-hier_92r8uhwi7cw0-fill" data-item-order="0" transform="translate(423, 435.000244140625)"></g><g id="g-root-tx_database_1d3mxs9wia58r-fill" data-item-order="0" transform="translate(513, 423.000244140625)"><g id="tx_database_1d3mxs9wia58r-fill" stroke="none" fill="#92bd39"><g><text style="font: bold 20px &quot;Shantell Sans&quot;, cursive; white-space: pre;" font-weight="bold" font-size="20px" font-family="'Shantell Sans', cursive"><tspan x="12" y="35" dominant-baseline="ideographic">Database </tspan><tspan x="12" y="59" dominant-baseline="ideographic">Systems</tspan></text></g></g></g><g id="g-root-tx_toolsfor_1ur63rdwia5mr-fill" data-item-order="0" transform="translate(69, 483.000244140625)"><g id="tx_toolsfor_1ur63rdwia5mr-fill" stroke="none" fill="#484848"><g><text style="font: 11.7px &quot;Shantell Sans&quot;, cursive; white-space: pre;" font-size="11.7px" font-family="'Shantell Sans', cursive"><tspan x="23.88" y="29" dominant-baseline="ideographic">Tools for managing code </tspan><tspan x="12.89" y="43" dominant-baseline="ideographic">changes and collaboration</tspan></text></g></g></g><g id="g-root-tx_techniqu_143mlxlwia3gp-fill" data-item-order="0" transform="translate(57, 147)"><g id="tx_techniqu_143mlxlwia3gp-fill" stroke="none" fill="#484848"><g><text style="font: 11.7px &quot;Shantell Sans&quot;, cursive; white-space: pre;" font-size="11.7px" font-family="'Shantell Sans', cursive"><tspan x="22.39" y="29" dominant-baseline="ideographic">Techniques to enhance API </tspan><tspan x="22.16" y="43" dominant-baseline="ideographic">performance and efficiency</tspan></text></g></g></g><g id="g-root-comp_1qa3ngpwia48w-fill" data-item-order="0" transform="translate(321, 279)"></g><g id="g-root-0.cu_sy_7q6q1whxhqc-stroke" data-item-order="-150739" transform="translate(254.00885009765625, 207)"><g id="0.cu_sy_7q6q1whxhqc-stroke" fill="none" stroke-linecap="round" stroke-linejoin="round" stroke-miterlimit="4" stroke="#ffffff" stroke-width="2"><g><path d="M 41.8313 44.4598C 26.76 59.2893 15.5897 78.0715 10 99.1266M 10 160.8734C 15.625 182.0616 26.9016 200.9481 42.1177 215.8211M 93.3555 245.5088C 103.7319 248.4347 114.6787 250 125.9911 250C 136.9428 250 147.5518 248.5329 157.6324 245.7846M 209.6662 216.0146C 224.6048 201.4798 235.7702 183.0868 241.5537 162.4445M 241.5536 97.5554C 235.8074 77.0458 224.748 58.7566 209.9536 44.266M 157.5289 14.1873C 147.4793 11.4571 136.9054 10 125.9911 10C 114.7164 10 103.8049 11.5549 93.4592 14.462"></path></g></g></g><g id="g-root-6.cu_sy_1ly07exwhxfyd-stroke" data-item-order="-150735" transform="translate(244.56106567382812, 145.561767578125)"><g id="6.cu_sy_1ly07exwhxfyd-stroke" fill="none" stroke-linecap="round" stroke-linejoin="round" stroke-miterlimit="4" stroke="#ffffff" stroke-width="2"><g><path d="M 45.585069 104.372569C 33.719169 101.193169 23.066269 93.487169 16.438769 82.007969C 3.183969 59.049969 11.049969 29.693569 34.007969 16.438769C 56.966069 3.183969 86.322369 11.049969 99.577169 34.007969C 106.204669 45.486969 107.551869 58.565569 104.372469 70.431269L 91.949469 116.795869L 45.595669 104.375369C 45.592169 104.374469 45.588569 104.373469 45.585069 104.372569Z"></path></g></g></g><g id="g-root-5.cu_sy_18mjp1lwhxhja-stroke" data-item-order="-150731" transform="translate(169, 279)"><g id="5.cu_sy_18mjp1lwhxhja-stroke" fill="none" stroke-linecap="round" stroke-linejoin="round" stroke-miterlimit="4" stroke="#ffffff" stroke-width="2"><g><path d="M 91.9414 91.9408C 83.2551 100.6273 71.255 106 58 106C 31.4903 106 10 84.5097 10 58C 10 31.4903 31.4903 10 58 10C 71.2548 9.999999 83.2548 15.3726 91.9411 24.0589L 125.8825 57.9997L 91.9492 91.9331C 91.9466 91.9356 91.944 91.9382 91.9414 91.9408Z"></path></g></g></g><g id="g-root-4.cu_sy_vbpnrdwhxfyf-stroke" data-item-order="-150727" transform="translate(244.56106567382812, 402.000244140625)"><g id="4.cu_sy_vbpnrdwhxfyf-stroke" fill="none" stroke-linecap="round" stroke-linejoin="round" stroke-miterlimit="4" stroke="#ffffff" stroke-width="2"><g><path d="M 104.372369 56.3644C 107.551869 68.2302 106.204669 81.309 99.577169 92.7881C 86.322369 115.7462 56.966069 123.6122 34.007969 110.3574C 11.049969 97.1025 3.183969 67.7462 16.438769 44.7881C 23.066169 33.3091 33.718969 25.6031 45.584669 22.4237L 91.948969 10L 104.369469 56.3538C 104.370369 56.3573 104.371369 56.3609 104.372369 56.3644Z"></path></g></g></g><g id="g-root-3.cu_sy_dkfn9lwhxibk-stroke" data-item-order="-150723" transform="translate(398.50244140625, 402.000244140625)"><g id="3.cu_sy_dkfn9lwhxibk-stroke" fill="none" stroke-linecap="round" stroke-linejoin="round" stroke-miterlimit="4" stroke="#ffffff" stroke-width="2"><g><path d="M 11.6437 56.3644C 8.4641 68.2302 9.8113 81.309 16.4388 92.7881C 29.6936 115.7462 59.05 123.6122 82.008 110.3574C 104.9661 97.1025 112.8321 67.7462 99.5772 44.7881C 92.9498 33.3091 82.297 25.6031 70.4313 22.4237L 24.067 10L 11.6465 56.3538C 11.6456 56.3573 11.6446 56.3609 11.6437 56.3644Z"></path></g></g></g><g id="g-root-2.cu_sy_1qf2nplwhxhc9-stroke" data-item-order="-150719" transform="translate(453.11767578125, 279)"><g id="2.cu_sy_1qf2nplwhxhc9-stroke" fill="none" stroke-linecap="round" stroke-linejoin="round" stroke-miterlimit="4" stroke="#ffffff" stroke-width="2"><g><path d="M 43.9411 91.9408C 52.6274 100.6273 64.6276 106 77.8825 106C 104.3922 106 125.8825 84.5097 125.8825 58C 125.8825 31.4903 104.3922 10 77.8825 10C 64.6277 9.999999 52.6277 15.3726 43.9414 24.0589L 10 57.9997L 43.9333 91.9331C 43.9359 91.9356 43.9385 91.9382 43.9411 91.9408Z"></path></g></g></g><g id="g-root-1.cu_sy_18efix5whyv42-stroke" data-item-order="-150715" transform="translate(398.50250244140625, 145.561767578125)"><g id="1.cu_sy_18efix5whyv42-stroke" fill="none" stroke-linecap="round" stroke-linejoin="round" stroke-miterlimit="4" stroke="#ffffff" stroke-width="2"><g><path d="M 70.430869 104.372569C 82.296769 101.193169 92.949669 93.487169 99.577169 82.007969C 112.832069 59.049969 104.966069 29.693569 82.007969 16.438769C 59.049969 3.183969 29.693569 11.049969 16.438769 34.007969C 9.811369 45.486969 8.464169 58.565569 11.643569 70.431269L 24.066469 116.795869L 70.420269 104.375369C 70.423769 104.374469 70.427369 104.373469 70.430869 104.372569Z"></path></g></g></g><g id="g-root-cog_18lau15wibite-stroke" data-item-order="0" transform="translate(267, 171)"><g id="cog_18lau15wibite-stroke" fill="none" stroke-linecap="round" stroke-linejoin="round" stroke-miterlimit="4" stroke="#e55753" stroke-width="2"><g><path d="M 27.931429 17.714285L 29.405714 13.908571C 29.914598 12.589765 31.18071 11.718461 32.594288 11.714286L 35.405712 11.714286C 36.81929 11.718461 38.085403 12.589765 38.594288 13.908571L 40.068573 17.714285L 45.074284 20.594286L 49.119999 19.977142C 50.497784 19.790129 51.852093 20.453739 52.548573 21.657143L 53.920002 24.057142C 54.6394 25.280834 54.530342 26.821299 53.645714 27.931429L 51.142857 31.119999L 51.142857 36.880001L 53.714287 40.068573C 54.598911 41.178703 54.70797 42.719166 53.988571 43.942856L 52.617146 46.342857C 51.920662 47.546261 50.566357 48.209869 49.188572 48.022858L 45.142857 47.405716L 40.137142 50.285713L 38.662857 54.091427C 38.153973 55.410236 36.887859 56.28154 35.474285 56.285713L 32.594288 56.285713C 31.18071 56.28154 29.914598 55.410236 29.405714 54.091427L 27.931429 50.285713L 22.925714 47.405716L 18.879999 48.022858C 17.502214 48.209869 16.147907 47.546261 15.451428 46.342857L 14.08 43.942856C 13.360601 42.719166 13.469661 41.178703 14.354285 40.068573L 16.857143 36.880001L 16.857143 31.119999L 14.285714 27.931429C 13.401089 26.821299 13.292029 25.280834 14.011429 24.057142L 15.382857 21.657143C 16.079336 20.453739 17.433643 19.790129 18.811428 19.977142L 22.857143 20.594286ZM 27.142857 34C 27.142857 37.787094 30.212906 40.857143 34 40.857143C 37.787094 40.857143 40.857143 37.787094 40.857143 34C 40.857143 30.212906 37.787094 27.142857 34 27.142857C 30.212906 27.142857 27.142857 30.212906 27.142857 34Z"></path></g></g></g><g id="g-root-1_4pfte1wi5wy5-stroke" data-item-order="0" transform="translate(423, 171)"><g id="1_4pfte1wi5wy5-stroke" fill="none" stroke-linecap="round" stroke-linejoin="round" stroke-miterlimit="4" stroke="#1eabda" stroke-width="2"><g><path d="M 15 11L 53 11C 53 11 57 11 57 15L 57 53C 57 53 57 57 53 57L 15 57C 15 57 11 57 11 53L 11 15C 11 15 11 11 15 11M 11 21L 57 21M 18 15.5C 18.276142 15.5 18.5 15.723858 18.5 16C 18.5 16.276142 18.276142 16.5 18 16.5C 17.723858 16.5 17.5 16.276142 17.5 16C 17.5 15.723858 17.723858 15.5 18 15.5M 24 15.5C 24.276142 15.5 24.5 15.723858 24.5 16C 24.5 16.276142 24.276142 16.5 24 16.5C 23.723858 16.5 23.5 16.276142 23.5 16C 23.5 15.723858 23.723858 15.5 24 15.5M 30 15.5C 30.276142 15.5 30.5 15.723858 30.5 16C 30.5 16.276142 30.276142 16.5 30 16.5C 29.723858 16.5 29.5 16.276142 29.5 16C 29.5 15.723858 29.723858 15.5 30 15.5M 29 21L 29 57M 17.062 27L 23.032 27M 17.062 31L 23.032 31M 17.062 35L 23.032 35M 17.062 39L 23.032 39M 17.062 43L 23.032 43M 17.062 47L 23.032 47M 17.062 51L 23.032 51M 36 27L 50 27C 50 27 51 27 51 28L 51 36C 51 36 51 37 50 37L 36 37C 36 37 35 37 35 36L 35 28C 35 28 35 27 36 27M 36 43L 40 43C 40 43 41 43 41 44L 41 46C 41 46 41 47 40 47L 36 47C 36 47 35 47 35 46L 35 44C 35 44 35 43 36 43M 46 43L 50 43C 50 43 51 43 51 44L 51 46C 51 46 51 47 50 47L 46 47C 46 47 45 47 45 46L 45 44C 45 44 45 43 46 43"></path></g></g></g><g id="g-root-tx_apioptim_9mefdwia32a-stroke" data-item-order="0" transform="translate(81, 87)"></g><g id="g-root-tx_deployme_dkgfplwia4n5-stroke" data-item-order="0" transform="translate(15, 255)"></g><g id="g-root-tx_backendf_1d2dzm1wia32n-stroke" data-item-order="0" transform="translate(591, 255)"></g><g id="g-root-tx_componen_v2z0jtwhywoz-stroke" data-item-order="0" transform="translate(106, 27)"></g><g id="g-root-tx_frontend_m7csqxwibjt8-stroke" data-item-order="0" transform="translate(513, 87)"></g><g id="g-root-tx_technolo_7qz61wia41y-stroke" data-item-order="0" transform="translate(513, 147)"></g><g id="g-root-tx_services_dhc2a1wia3gq-stroke" data-item-order="0" transform="translate(3, 315)"></g><g id="g-root-glob_m8l7yhwi8pom-stroke" data-item-order="0" transform="translate(189, 303)"><g id="glob_m8l7yhwi8pom-stroke" fill="none" stroke-linecap="round" stroke-linejoin="round" stroke-miterlimit="4" stroke="#7f64ea" stroke-width="2"><g><path d="M 43.017143 32.285713C 46.513237 32.257175 49.55304 29.880989 50.424805 26.495205C 51.296566 23.109421 49.782307 19.560665 46.734718 17.847275C 43.68713 16.133884 39.868271 16.684298 37.428574 19.188572C 35.974289 14.070918 30.8573 10.906865 25.629116 11.892467C 20.400932 12.878069 16.787176 17.688015 17.296022 22.9839C 17.804871 28.279785 22.26837 32.313641 27.588572 32.285713ZM 16.857143 56.285713C 16.857143 46.817978 24.532263 39.142857 34 39.142857C 43.467739 39.142857 51.142857 46.817978 51.142857 56.285713M 37.428574 39.485718L 37.428574 46.720001C 37.490005 48.286156 38.513695 49.651073 40 50.148575C 41.486305 50.646076 42.509998 52.01099 42.571434 53.577148L 42.57143 56.011429M 18.297144 49.428574L 22 49.428574C 25.787096 49.428574 28.857143 52.498619 28.857143 56.285713"></path></g></g></g><g id="g-root-1_24j2hwieb5y-stroke" data-item-order="0" transform="translate(496, 303)"><g id="1_24j2hwieb5y-stroke" fill="none" stroke-linecap="round" stroke-linejoin="round" stroke-miterlimit="4" stroke="#3cc583" stroke-width="2"><g><path d="M 21.001999 52L 47.001999 52M 35.001999 40L 35.001999 52M 57 24C 57 26.209139 55.209141 28 53 28L 15 28C 12.790861 28 11 26.209139 11 24L 11 20C 11 17.790861 12.790861 16 15 16L 53 16C 55.209141 16 57 17.790861 57 20ZM 19.5 21.5C 19.223858 21.5 19 21.723858 19 22C 19 22.276142 19.223858 22.5 19.5 22.5C 19.776142 22.5 20 22.276142 20 22C 20 21.723858 19.776142 21.5 19.5 21.5L 19.5 21.5M 26.5 21.5C 26.223858 21.5 26 21.723858 26 22C 26 22.276142 26.223858 22.5 26.5 22.5C 26.776142 22.5 27 22.276142 27 22C 27 21.723858 26.776142 21.5 26.5 21.5L 26.5 21.5M 57 36C 57 38.209137 55.209141 40 53 40L 15 40C 12.790861 40 11 38.209137 11 36L 11 32C 11 29.790861 12.790861 28 15 28L 53 28C 55.209141 28 57 29.790861 57 32ZM 19.5 33.5C 19.223858 33.5 19 33.723858 19 34C 19 34.276142 19.223858 34.5 19.5 34.5C 19.776142 34.5 20 34.276142 20 34C 20 33.723858 19.776142 33.5 19.5 33.5L 19.5 33.5M 26.5 33.5C 26.223858 33.5 26 33.723858 26 34C 26 34.276142 26.223858 34.5 26.5 34.5C 26.776142 34.5 27 34.276142 27 34C 27 33.723858 26.776142 33.5 26.5 33.5L 26.5 33.5M 16.5 51C 16.223858 51 16 51.223858 16 51.5C 16 51.776142 16.223858 52 16.5 52C 16.776142 52 17 51.776142 17 51.5C 17 51.223858 16.776142 51 16.5 51L 16.5 51M 11.5 51C 11.223858 51 11 51.223858 11 51.5C 11 51.776142 11.223858 52 11.5 52C 11.776142 52 12 51.776142 12 51.5C 12 51.223858 11.776142 51 11.5 51L 11.5 51M 56.5 51C 56.223858 51 56 51.223858 56 51.5C 56 51.776142 56.223858 52 56.5 52C 56.776142 52 57 51.776142 57 51.5C 57 51.223858 56.776142 51 56.5 51L 56.5 51M 51.5 51C 51.223858 51 51 51.223858 51 51.5C 51 51.776142 51.223858 52 51.5 52C 51.776142 52 52 51.776142 52 51.5C 52 51.223858 51.776142 51 51.5 51L 51.5 51"></path></g></g></g><g id="g-root-tx_framewor_qu1itlwia41x-stroke" data-item-order="0" transform="translate(591, 315)"></g><g id="g-root-tx_systemsf_18kp289wia4uk-stroke" data-item-order="0" transform="translate(513, 483.000244140625)"></g><g id="g-root-tx_versionc_vb3z49wia5fs-stroke" data-item-order="0" transform="translate(57, 447.000244140625)"></g><g id="g-root-bran_zisyh5whxfyl-stroke" data-item-order="0" transform="translate(267, 435.000244140625)"><g id="bran_zisyh5whxfyl-stroke" fill="none" stroke-linecap="round" stroke-linejoin="round" stroke-miterlimit="4" stroke="#de8431" stroke-width="2"><g><path d="M 17.644001 17.133999C 17.643053 20.522383 20.389614 23.269712 23.778 23.269712C 27.166382 23.269712 29.912945 20.522383 29.911999 17.133999C 29.912945 13.745616 27.166382 10.998286 23.778 10.998286C 20.389614 10.998286 17.643053 13.745616 17.643999 17.133999M 17.644001 50.866001C 17.643053 54.254379 20.389614 57.001709 23.778 57.001709C 27.166382 57.001709 29.912945 54.254379 29.911999 50.865997C 29.912945 47.477615 27.166382 44.730286 23.778 44.730286C 20.389614 44.730286 17.643053 47.477615 17.643999 50.865997M 38.087997 23.265999C 38.087051 26.654383 40.833614 29.401712 44.221996 29.401712C 47.610382 29.401712 50.356945 26.654383 50.355999 23.265999C 50.356945 19.877617 47.610382 17.130285 44.221996 17.130285C 40.833614 17.130285 38.087051 19.877617 38.087997 23.265999M 23.778 23.265999L 23.778 44.734001M 44.222 29.4C 44.222004 33.916588 40.560585 37.578003 36.043999 37.578003L 29.912001 37.577999C 26.524284 37.577999 23.778 40.324284 23.778 43.711998"></path></g></g></g><g id="g-root-hier_92r8uhwi7cw0-stroke" data-item-order="0" transform="translate(423, 435.000244140625)"><g id="hier_92r8uhwi7cw0-stroke" fill="none" stroke-linecap="round" stroke-linejoin="round" stroke-miterlimit="4" stroke="#92bd39" stroke-width="2"><g><path d="M 23 26.002001C 23 28.763424 27.924868 31.002001 34 31.002001C 40.075134 31.002001 45 28.763424 45 26.002001C 45 23.240578 40.075134 21.001999 34 21.001999C 27.924868 21.001999 23 23.240578 23 26.002001ZM 47 14.002C 47 15.658854 49.238575 17.002001 52 17.002001C 54.761425 17.002001 57 15.658854 57 14.002001C 57 12.345146 54.761425 11.002 52 11.002C 49.238575 11.002 47 12.345146 47 14.002001ZM 57 14L 57 20C 57 21.656 54.762001 23 52 23C 49.237999 23 47 21.658001 47 20L 47 14M 11 14.002C 11 15.658854 13.238577 17.002001 16 17.002001C 18.761425 17.002001 21 15.658854 21 14.002001C 21 12.345146 18.761425 11.002 16 11.002C 13.238577 11.002 11 12.345146 11 14.002001ZM 21 14L 21 20C 21 21.656 18.762001 23 16 23C 13.238 23 11 21.658001 11 20L 11 14M 47 48.001999C 47 49.658855 49.238575 51.002003 52 51.002003C 54.761425 51.002003 57 49.658855 57 48.002003C 57 46.345146 54.761425 45.002003 52 45.002003C 49.238575 45.002003 47 46.345146 47 48.002003ZM 57 48L 57 54C 57 55.655998 54.762001 57 52 57C 49.237999 57 47 55.655998 47 54L 47 48M 11 48.001999C 11 49.658855 13.238577 51.002003 16 51.002003C 18.761425 51.002003 21 49.658855 21 48.002003C 21 46.345146 18.761425 45.002003 16 45.002003C 13.238577 45.002003 11 46.345146 11 48.002003ZM 21 48L 21 54C 21 55.655998 18.762001 57 16 57C 13.238 57 11 55.658001 11 54L 11 48M 45 34C 45 36.762001 40.073997 39 34 39C 27.926001 39 23 36.764 23 34M 23 26L 23 42C 23 44.762001 27.926001 47 34 47C 40.073997 47 45 44.762001 45 42L 45 26M 20.618 21.156L 23.702 24.24M 47.382 21.156L 44.298 24.24M 20.709999 46.993999L 23.812 43.889999M 47.290001 46.993999L 44.188 43.889999"></path></g></g></g><g id="g-root-tx_database_1d3mxs9wia58r-stroke" data-item-order="0" transform="translate(513, 423.000244140625)"></g><g id="g-root-tx_toolsfor_1ur63rdwia5mr-stroke" data-item-order="0" transform="translate(69, 483.000244140625)"></g><g id="g-root-tx_techniqu_143mlxlwia3gp-stroke" data-item-order="0" transform="translate(57, 147)"></g><g id="g-root-comp_1qa3ngpwia48w-stroke" data-item-order="0" transform="translate(321, 279)"><g id="comp_1qa3ngpwia48w-stroke" fill="none" stroke-linecap="round" stroke-linejoin="round" stroke-miterlimit="4" stroke="#969696" stroke-width="2"><g><path d="M 49.82 55.956001C 49.819283 60.474197 53.481804 64.137299 58 64.137299C 62.5182 64.137299 66.180725 60.474197 66.18 55.956001C 66.180725 51.437805 62.5182 47.7747 58 47.7747C 53.481804 47.7747 49.819283 51.437805 49.82 55.956001M 12 55.956001C 11.999281 60.474197 15.661802 64.137299 20.18 64.137299C 24.698198 64.137299 28.36072 60.474197 28.360001 55.956001C 28.36072 51.437805 24.698198 47.7747 20.18 47.7747C 15.661802 47.7747 11.999281 51.437805 12 55.956001M 49.82 20.18C 49.819283 24.698198 53.481804 28.361303 58 28.361303C 62.5182 28.361303 66.180725 24.698198 66.18 20.18C 66.180725 15.661802 62.5182 11.998698 58 11.998698C 53.481804 11.998698 49.819283 15.661802 49.82 20.18M 49.82 95.82C 49.819283 100.338203 53.481804 104.001305 58 104.001305C 62.5182 104.001305 66.180725 100.338203 66.18 95.82C 66.180725 91.301804 62.5182 87.638702 58 87.638702C 53.481804 87.638702 49.819283 91.301804 49.82 95.82M 87.639999 95.82C 87.639282 100.338203 91.301804 104.001305 95.82 104.001305C 100.338203 104.001305 104.000725 100.338203 104 95.82C 104.000725 91.301804 100.338203 87.638702 95.82 87.638702C 91.301804 87.638702 87.639282 91.301804 87.639999 95.82M 87.639999 55.956001C 87.639282 60.474197 91.301804 64.137299 95.82 64.137299C 100.338203 64.137299 104.000725 60.474197 104 55.956001C 104.000725 51.437805 100.338203 47.7747 95.82 47.7747C 91.301804 47.7747 87.639282 51.437805 87.639999 55.956001M 12 20.18C 11.999281 24.698198 15.661802 28.361303 20.18 28.361303C 24.698198 28.361303 28.36072 24.698198 28.360001 20.18C 28.36072 15.661802 24.698198 11.998698 20.18 11.998698C 15.661802 11.998698 11.999281 15.661802 12 20.18M 87.639999 20.18C 87.639282 24.698198 91.301804 28.361303 95.82 28.361303C 100.338203 28.361303 104.000725 24.698198 104 20.18C 104.000725 15.661802 100.338203 11.998698 95.82 11.998698C 91.301804 11.998698 87.639282 15.661802 87.639999 20.18M 12 95.82C 11.999281 100.338203 15.661802 104.001305 20.18 104.001305C 24.698198 104.001305 28.36072 100.338203 28.360001 95.82C 28.36072 91.301804 24.698198 87.638702 20.18 87.638702C 15.661802 87.638702 11.999281 91.301804 12 95.82M 25.807999 89.879997L 52.372002 61.896M 95.82 28.364L 95.82 47.771999M 66.18 55.956001L 87.636002 55.956001M 63.948002 50.335999L 89.867996 25.799999M 26.132 25.799999L 52.051998 50.335999"></path></g></g></g></g></g></svg>